<?xml version="1.0" encoding="utf-8"?>
<!-- Generator: Adobe Illustrator 15.0.0, SVG Export Plug-In  -->
<!DOCTYPE svg PUBLIC "-//W3C//DTD SVG 1.1//EN" "http://www.w3.org/Graphics/SVG/1.1/DTD/svg11.dtd" [
	<!ENTITY ns_flows "http://ns.adobe.com/Flows/1.0/">
]>
<svg version="1.1"
	 xmlns="http://www.w3.org/2000/svg" xmlns:xlink="http://www.w3.org/1999/xlink" xmlns:a="http://ns.adobe.com/AdobeSVGViewerExtensions/3.0/"
	 x="0px" y="0px" width="350px" height="100px" viewBox="-9.059 -21.158 350 100"
	 overflow="visible" enable-background="new -9.059 -21.158 350 100" xml:space="preserve">
<defs>
</defs>
<path d="M7.481,16.551H3.628V4.711C2.605,5.09,1.272,5.184,0.155,5.257v-2.57c2.4-0.069,3.591-0.831,4.305-2.354h3.021V16.551
	L7.481,16.551z"/>
<path d="M17.286,6.661h0.831c0.999,0,1.619-0.62,1.619-1.739c0-1.021-0.265-1.925-1.595-1.925c-1.166,0-1.618,1.215-1.69,2.33
	l-3.709-0.31C12.933,1.619,15.31,0,18.401,0c3.044,0,5.33,1.426,5.33,4.496c0,1.973-1.118,2.971-2.45,3.449v0.048
	c1.806,0.547,2.997,1.761,2.997,3.759c0,4.018-3.307,5.137-6.161,5.137c-4.138,0-5.685-2.024-5.685-5.83l3.807-0.307
	c-0.047,0.164-0.096,0.427-0.096,0.831c0,1.188,0.428,2.308,1.951,2.308c1.211,0,1.947-0.715,1.947-2.167
	c0-1.64-0.783-2.354-2.021-2.354h-0.736L17.286,6.661L17.286,6.661z"/>
<path d="M42.978,16.624h-3.854V4.783c-1.024,0.379-2.354,0.474-3.474,0.546v-2.57c2.402-0.069,3.591-0.831,4.305-2.354h3.021v16.219
	H42.978z"/>
<path d="M47.621,10.036l6.683-9.631h3.613v9.775h2.165v2.712h-2.14v3.732h-3.879v-3.732h-6.442V10.036z M54.064,4.543h-0.048
	L50.33,10.18h3.733L54.064,4.543L54.064,4.543z"/>
<path fill="#9BB120" d="M64.267,0.193h2.646v16.583h-2.646V0.193z"/>
<path fill="#9BB120" d="M28.054,0.193h2.646v16.583h-2.646V0.193z"/>
<path d="M78.875,16.624h-3.854V4.783C74,5.162,72.666,5.257,71.55,5.329v-2.57c2.402-0.069,3.592-0.831,4.307-2.354h3.019V16.624
	L78.875,16.624z"/>
<path d="M85.517,0.404h9.322l-0.26,3.139h-6.16l-0.404,2.854c0.736-0.615,1.688-0.855,2.617-0.855c2.83,0,4.896,2.212,4.896,5.447
	c0,3.043-1.9,5.971-6.23,5.971c-3.875,0-5.469-2.308-5.469-5.425l3.711-0.164v0.521c0,1.378,0.928,2.212,1.854,2.212
	c1.545,0,2.143-1.403,2.143-2.806c0-1.667-0.572-3.045-2.045-3.045c-0.739,0-1.382,0.332-1.786,1.261l-3.233-0.547L85.517,0.404z"/>
<path d="M102.005,10.084h1.041v0.822h0.027c0.411-0.534,1.068-0.985,1.834-0.985c0.711,0,1.546,0.287,1.902,1.138
	c0.466-0.646,1.283-1.138,1.981-1.138c1.069,0,2.134,0.467,2.134,2.384v4.32h-1.121v-4.377c0-0.807-0.354-1.288-1.147-1.288
	c-0.698,0-1.628,0.386-1.628,1.369v4.295h-1.121v-4.377c0-0.807-0.357-1.288-1.15-1.288c-0.695,0-1.627,0.386-1.627,1.369v4.295
	h-1.123v-6.539H102.005z"/>
<path d="M116.484,12.123c0-0.93-0.41-1.327-1.533-1.327c-0.862,0-1.3,0.452-1.34,1.343l-1.123-0.069
	c0.151-1.477,1.028-2.149,2.476-2.149c1.11,0,2.644,0.302,2.644,2.026v3.037c0,0.643,0.247,0.74,0.478,0.74
	c0.125,0,0.234-0.028,0.342-0.069v0.93c-0.217,0.057-0.465,0.097-0.695,0.097c-0.67,0-0.985-0.287-1.139-0.904
	c-0.612,0.683-1.405,1.012-2.322,1.012c-1.163,0-2.096-0.794-2.096-1.806c0-1.804,1.614-2.134,4.312-2.285v-0.576H116.484z
	 M116.484,13.439c-1.833,0.259-3.106,0.464-3.106,1.475c0,0.794,0.728,0.999,1.258,0.999c1.056,0,1.85-0.641,1.85-1.722
	L116.484,13.439L116.484,13.439z"/>
<path d="M119.466,6.884h1.121v1.284h-1.121V6.884z M119.466,10.084h1.121v6.54h-1.121V10.084z"/>
<path d="M126.154,15.407c1.682-0.888,4.679-3.133,4.679-5.309c0-1.162-0.575-1.737-1.792-1.737c-1.218,0-1.683,0.875-1.683,1.722
	c0,0.37,0.055,0.768,0.124,1.164h-1.204c-0.083-0.37-0.124-0.725-0.124-1.053c0-1.586,0.93-2.956,2.968-2.956
	c1.78,0,2.998,1.176,2.998,2.968c0,2.339-2.545,4.202-4.284,5.282v-0.012l-0.013,0.026h4.392v1.121h-6.061V15.407L126.154,15.407z"
	/>
<path d="M136.633,7.239c2.491,0,3.384,2.601,3.384,4.735c0,2.134-0.893,4.733-3.384,4.733c-2.486,0-3.379-2.599-3.379-4.733
	C133.254,9.84,134.146,7.239,136.633,7.239z M136.633,15.585c0.934,0,2.097-0.711,2.097-3.611c0-2.902-1.163-3.612-2.097-3.612
	c-0.93,0-2.093,0.71-2.093,3.612C134.54,14.874,135.703,15.585,136.633,15.585z"/>
<path d="M144.145,9.854h-1.981V8.979c1.299-0.054,2.118-0.261,2.38-1.657h0.889v9.303h-1.286L144.145,9.854L144.145,9.854z"/>
<path d="M153.669,9.824c-0.151-0.957-0.794-1.546-1.615-1.546c-1.861,0-2.176,1.875-2.244,3.34h0.027
	c0.165-0.313,0.876-1.123,2.259-1.123c1.764,0,2.995,1.204,2.995,2.968c0,1.369-0.78,3.244-3.256,3.244
	c-1.098,0-3.23-0.712-3.23-4.61c0-2.149,0.658-4.858,3.421-4.858c1.587,0,2.491,0.903,2.845,2.45L153.669,9.824z M151.943,15.585
	c1.108,0,1.944-0.794,1.944-1.983c0-1.192-0.836-1.984-1.944-1.984c-1.106,0-1.94,0.792-1.94,1.984
	C150.002,14.791,150.836,15.585,151.943,15.585z"/>
<rect x="0.155" y="30.842" fill="none" width="438" height="96"/>
<text transform="matrix(1 0 0 1 0.1553 67.5537)" font-family="'AkzidenzGroteskBE-XBdCn'" font-size="52">VERCINGÉTORIX</text>
</svg>
