<?xml version="1.0" encoding="utf-8"?>
<!-- Generator: Adobe Illustrator 15.0.0, SVG Export Plug-In  -->
<!DOCTYPE svg PUBLIC "-//W3C//DTD SVG 1.1//EN" "http://www.w3.org/Graphics/SVG/1.1/DTD/svg11.dtd" [
	<!ENTITY ns_flows "http://ns.adobe.com/Flows/1.0/">
]>
<svg version="1.1"
	 xmlns="http://www.w3.org/2000/svg" xmlns:xlink="http://www.w3.org/1999/xlink" xmlns:a="http://ns.adobe.com/AdobeSVGViewerExtensions/3.0/"
	 x="0px" y="0px" width="350px" height="100px" viewBox="-5.909 -6.855 350 100"
	 overflow="visible" enable-background="new -5.909 -6.855 350 100" xml:space="preserve">
<defs>
</defs>
<path fill="#FFB731" d="M0.218,1.034h18.221c9.91,0,13.574,5.159,13.574,12.439c0,4.902-2.734,12.438-15.328,12.438H9.509v11.87
	H0.218V1.034z M9.406,19.097h7.743c4.179,0,5.677-2.735,5.677-5.573c0-3.664-1.754-5.678-5.937-5.678H9.406V19.097z"/>
<path fill="#FFB731" d="M43.423,1.034h9.498l13.884,36.748h-9.858l-1.857-5.778H41.514l-1.859,5.778h-9.808L43.423,1.034z
	 M52.869,25.188l-4.541-15.174h-0.104l-4.542,15.174H52.869z"/>
<path fill="#FFB731" d="M70.06,1.034h18.374c8.26,0,13.318,3.819,13.318,12.076c0,4.751-2.994,8.57-7.588,9.91l8.413,14.762H92.306
	L85.08,24.569h-5.833v13.213H70.06V1.034z M79.248,17.756h8.412c2.943-0.051,4.905-1.548,4.905-4.956
	c0-3.405-1.961-4.903-4.905-4.954h-8.412V17.756z"/>
<path fill="#FFB731" d="M106.863,1.034h9.187v36.748h-9.187V1.034z"/>
<path fill="#FFB731" d="M126.221,26.788c3.199,2.892,6.245,4.596,10.633,4.596c2.426,0,6.864-1.033,6.864-4.232
	c0-1.859-1.394-2.788-4.128-3.253l-7.641-1.24c-6.812-1.084-10.528-4.696-10.528-10.115C121.421,3.664,128.595,0,136.439,0
	c6.092,0,12.079,2.479,16.209,7.072l-6.969,5.007c-2.426-2.942-5.987-4.646-9.858-4.646c-2.117,0-5.214,1.343-5.214,3.717
	c0,1.96,1.601,2.943,5.109,3.509l3.511,0.569c7.329,1.186,13.368,3.458,13.368,10.476c0,11.048-9.962,13.113-16.827,13.113
	c-6.245,0-11.562-2.014-16.567-7.485L126.221,26.788z"/>
<path d="M0,48.318h14.417c11.334,0,18.961,5.378,18.961,18.595c0,13.213-7.626,18.594-18.961,18.594H0V48.318z M9.297,77.673h5.328
	c6.947,0,9.454-4.755,9.454-10.761s-2.507-10.761-9.505-10.761H9.297V77.673z"/>
<path d="M70.469,72.553c0,10.188-8.617,14-15.774,14c-7.104,0-15.723-3.812-15.723-14V48.318h9.299v23.453
	c0,4.177,1.619,7.259,6.424,7.259c4.858,0,6.477-3.082,6.477-7.259V48.318h9.297V72.553z"/>
<path d="M77.684,48.318h9.403l13.528,23.767h0.104V48.318h8.461v37.188h-9.297L86.251,62.108h-0.104v23.398h-8.463V48.318z"/>
<path d="M116.398,48.318h9.297v14.833l13.319-14.833h12.327L137.813,62.42l13.946,23.086h-10.342l-10.133-16.504l-5.589,5.693
	v10.811h-9.297V48.318z"/>
<path d="M155.109,85.506V48.318h27.371v7.208h-18.072v6.79h16.872v7.207h-16.872v8.776h19.638v7.207H155.109z"/>
<path d="M188.962,48.318h18.596c8.355,0,13.477,3.864,13.477,12.222c0,4.806-3.031,8.671-7.679,10.03l8.513,14.937h-10.394
	l-7.312-13.371h-5.902v13.371h-9.299V48.318z M198.261,65.241h8.514c2.978-0.052,4.963-1.568,4.963-5.015
	c0-3.448-1.985-4.963-4.963-5.014h-8.514V65.241z"/>
<path d="M262.879,88.956c-3.971-0.313-8.046-3.031-9.769-4.65c-2.61,1.409-5.692,2.248-9.246,2.248
	c-11.857,0-18.803-9.193-18.803-19.641c0-10.448,6.945-19.64,18.803-19.64s18.806,9.191,18.806,19.64
	c0,4.542-1.309,8.88-3.866,12.379c0.835,1.201,3.866,2.664,6.79,3.028L262.879,88.956z M243.865,55.11
	c-5.432,0-9.505,3.443-9.505,11.803c0,5.431,2.192,11.804,9.505,11.804c6.895,0,9.505-6.061,9.505-11.804
	C253.37,61.061,250.759,55.11,243.865,55.11z"/>
<path d="M299.76,72.553c0,10.188-8.617,14-15.774,14c-7.103,0-15.721-3.812-15.721-14V48.318h9.298v23.453
	c0,4.177,1.618,7.259,6.423,7.259c4.859,0,6.478-3.082,6.478-7.259V48.318h9.297V72.553z"/>
<path d="M306.977,85.506V48.318h27.37v7.208h-18.073v6.79h16.872v7.207h-16.872v8.776h19.641v7.207H306.977z"/>
<path d="M188.074,37.709h-3.854V25.869c-1.022,0.379-2.355,0.473-3.472,0.546v-2.57c2.401-0.069,3.591-0.831,4.305-2.354h3.021
	V37.709z"/>
<path d="M197.879,27.819h0.831c0.999,0,1.619-0.62,1.619-1.739c0-1.021-0.264-1.925-1.594-1.925c-1.166,0-1.619,1.215-1.691,2.33
	l-3.709-0.31c0.19-3.398,2.568-5.017,5.659-5.017c3.044,0,5.33,1.426,5.33,4.496c0,1.973-1.118,2.971-2.45,3.449v0.048
	c1.806,0.547,2.997,1.761,2.997,3.759c0,4.018-3.307,5.137-6.161,5.137c-4.138,0-5.685-2.024-5.685-5.83l3.807-0.307
	c-0.047,0.164-0.095,0.427-0.095,0.831c0,1.188,0.427,2.308,1.951,2.308c1.21,0,1.947-0.715,1.947-2.167
	c0-1.64-0.784-2.354-2.021-2.354h-0.736V27.819z"/>
<path d="M223.57,37.782h-3.854V25.941c-1.024,0.379-2.354,0.474-3.474,0.546v-2.57c2.402-0.069,3.591-0.831,4.305-2.354h3.022
	V37.782z"/>
<path d="M228.214,31.194l6.683-9.631h3.613v9.775h2.165v2.712h-2.14v3.732h-3.879v-3.732h-6.442V31.194z M234.657,25.701h-0.048
	l-3.686,5.637h3.733V25.701z"/>
<path fill="#FFB731" d="M244.86,21.351h2.646v16.583h-2.646V21.351z"/>
<path fill="#FFB731" d="M208.646,21.351h2.646v16.583h-2.646V21.351z"/>
<path d="M259.468,37.782h-3.854V25.941c-1.021,0.379-2.355,0.474-3.471,0.546v-2.57c2.402-0.069,3.591-0.831,4.306-2.354h3.019
	V37.782z"/>
<path d="M266.11,21.562h9.322l-0.26,3.139h-6.16l-0.405,2.854c0.737-0.615,1.688-0.855,2.618-0.855c2.829,0,4.896,2.212,4.896,5.447
	c0,3.043-1.9,5.971-6.231,5.971c-3.875,0-5.468-2.308-5.468-5.425l3.711-0.164v0.521c0,1.378,0.927,2.212,1.853,2.212
	c1.545,0,2.143-1.403,2.143-2.806c0-1.667-0.572-3.045-2.045-3.045c-0.739,0-1.382,0.332-1.786,1.261l-3.234-0.547L266.11,21.562z"
	/>
<path d="M282.598,31.242h1.04v0.822h0.028c0.411-0.534,1.069-0.985,1.834-0.985c0.711,0,1.546,0.287,1.903,1.138
	c0.465-0.646,1.283-1.138,1.981-1.138c1.069,0,2.134,0.467,2.134,2.384v4.32h-1.121v-4.377c0-0.807-0.355-1.288-1.148-1.288
	c-0.698,0-1.628,0.386-1.628,1.369v4.295H286.5v-4.377c0-0.807-0.357-1.288-1.15-1.288c-0.695,0-1.628,0.386-1.628,1.369v4.295
	h-1.123V31.242z"/>
<path d="M297.077,33.281c0-0.93-0.41-1.327-1.533-1.327c-0.863,0-1.3,0.452-1.34,1.343l-1.123-0.069
	c0.152-1.477,1.028-2.149,2.476-2.149c1.11,0,2.643,0.302,2.643,2.026v3.037c0,0.643,0.247,0.74,0.478,0.74
	c0.124,0,0.234-0.028,0.341-0.069v0.93c-0.217,0.057-0.464,0.097-0.695,0.097c-0.67,0-0.985-0.287-1.138-0.904
	c-0.613,0.683-1.406,1.012-2.323,1.012c-1.163,0-2.096-0.794-2.096-1.806c0-1.804,1.615-2.134,4.312-2.285V33.281z M297.077,34.597
	c-1.833,0.259-3.107,0.464-3.107,1.475c0,0.794,0.728,0.999,1.259,0.999c1.055,0,1.849-0.641,1.849-1.722V34.597z"/>
<path d="M300.058,28.042h1.121v1.284h-1.121V28.042z M300.058,31.242h1.121v6.54h-1.121V31.242z"/>
<path d="M306.747,36.565c1.682-0.888,4.679-3.133,4.679-5.309c0-1.162-0.575-1.737-1.792-1.737c-1.218,0-1.683,0.875-1.683,1.722
	c0,0.37,0.055,0.768,0.124,1.164h-1.204c-0.083-0.37-0.124-0.725-0.124-1.053c0-1.586,0.93-2.956,2.968-2.956
	c1.78,0,2.998,1.176,2.998,2.968c0,2.339-2.545,4.202-4.284,5.282v-0.012l-0.013,0.026h4.392v1.121h-6.061V36.565z"/>
<path d="M317.226,28.397c2.491,0,3.383,2.601,3.383,4.735s-0.892,4.733-3.383,4.733c-2.487,0-3.379-2.599-3.379-4.733
	S314.739,28.397,317.226,28.397z M317.226,36.743c0.933,0,2.096-0.711,2.096-3.611c0-2.902-1.163-3.612-2.096-3.612
	c-0.93,0-2.093,0.71-2.093,3.612C315.133,36.032,316.296,36.743,317.226,36.743z"/>
<path d="M324.737,31.012h-1.981v-0.875c1.299-0.054,2.118-0.261,2.38-1.657h0.888v9.303h-1.286V31.012z"/>
<path d="M334.262,30.982c-0.152-0.957-0.794-1.546-1.616-1.546c-1.861,0-2.175,1.875-2.244,3.34h0.028
	c0.165-0.313,0.876-1.123,2.258-1.123c1.764,0,2.996,1.204,2.996,2.968c0,1.369-0.781,3.244-3.256,3.244
	c-1.098,0-3.231-0.712-3.231-4.61c0-2.149,0.658-4.858,3.421-4.858c1.587,0,2.491,0.903,2.845,2.45L334.262,30.982z M332.536,36.743
	c1.109,0,1.944-0.794,1.944-1.983c0-1.192-0.835-1.984-1.944-1.984c-1.106,0-1.94,0.792-1.94,1.984
	C330.595,35.949,331.429,36.743,332.536,36.743z"/>
</svg>
