<?xml version="1.0" encoding="utf-8"?>
<!-- Generator: Adobe Illustrator 15.0.0, SVG Export Plug-In . SVG Version: 6.00 Build 0)  -->
<!DOCTYPE svg PUBLIC "-//W3C//DTD SVG 1.1//EN" "http://www.w3.org/Graphics/SVG/1.1/DTD/svg11.dtd">
<svg version="1.1" id="Calque_1" xmlns="http://www.w3.org/2000/svg" xmlns:xlink="http://www.w3.org/1999/xlink" x="0px" y="0px"
	 width="350px" height="100px" viewBox="0 0 350 100" enable-background="new 0 0 350 100" xml:space="preserve">
<path d="M189.46,38.375h-3.854v-11.84c-1.021,0.379-2.354,0.473-3.473,0.546v-2.57c2.4-0.069,3.592-0.831,4.305-2.354h3.021
	L189.46,38.375L189.46,38.375z"/>
<path d="M199.266,28.485h0.83c1,0,1.619-0.62,1.619-1.739c0-1.021-0.265-1.925-1.595-1.925c-1.166,0-1.618,1.215-1.69,2.33
	l-3.709-0.31c0.19-3.398,2.567-5.017,5.659-5.017c3.044,0,5.33,1.426,5.33,4.496c0,1.973-1.118,2.971-2.45,3.449v0.048
	c1.807,0.547,2.997,1.761,2.997,3.76c0,4.018-3.307,5.137-6.161,5.137c-4.138,0-5.685-2.024-5.685-5.83l3.807-0.307
	c-0.047,0.164-0.096,0.426-0.096,0.831c0,1.188,0.428,2.309,1.951,2.309c1.211,0,1.946-0.715,1.946-2.168
	c0-1.639-0.783-2.354-2.021-2.354h-0.735L199.266,28.485L199.266,28.485z"/>
<path d="M224.957,38.448h-3.854V26.607c-1.024,0.379-2.354,0.474-3.475,0.546v-2.57c2.402-0.069,3.592-0.831,4.305-2.354h3.021
	v16.219H224.957z"/>
<path d="M229.6,31.86l6.684-9.631h3.613v9.775h2.164v2.711h-2.14v3.732h-3.879v-3.732H229.6V31.86z M236.043,26.367h-0.048
	l-3.687,5.637h3.732L236.043,26.367L236.043,26.367z"/>
<path fill="#F07E3B" d="M246.246,22.017h2.646V38.6h-2.646V22.017z"/>
<path fill="#F07E3B" d="M210.033,22.017h2.646V38.6h-2.646V22.017z"/>
<path d="M260.854,38.448H257V26.607c-1.021,0.379-2.354,0.474-3.471,0.546v-2.57c2.402-0.069,3.592-0.831,4.307-2.354h3.02v16.219
	H260.854z"/>
<path d="M267.496,22.228h9.322l-0.26,3.139h-6.16l-0.404,2.854c0.736-0.615,1.688-0.855,2.617-0.855c2.83,0,4.896,2.212,4.896,5.447
	c0,3.043-1.899,5.971-6.229,5.971c-3.875,0-5.469-2.308-5.469-5.425l3.711-0.164v0.521c0,1.379,0.928,2.213,1.854,2.213
	c1.545,0,2.143-1.403,2.143-2.807c0-1.667-0.572-3.044-2.045-3.044c-0.738,0-1.382,0.332-1.785,1.261l-3.233-0.547L267.496,22.228z"
	/>
<path d="M283.984,31.908h1.041v0.822h0.026c0.411-0.534,1.068-0.985,1.835-0.985c0.711,0,1.545,0.287,1.901,1.138
	c0.466-0.646,1.282-1.138,1.981-1.138c1.068,0,2.133,0.467,2.133,2.384v4.32h-1.12v-4.377c0-0.808-0.354-1.289-1.147-1.289
	c-0.697,0-1.628,0.387-1.628,1.369v4.295h-1.12V34.07c0-0.807-0.357-1.287-1.15-1.287c-0.695,0-1.627,0.385-1.627,1.368v4.296
	h-1.123v-6.54L283.984,31.908L283.984,31.908z"/>
<path d="M298.463,33.948c0-0.931-0.41-1.328-1.533-1.328c-0.861,0-1.3,0.453-1.34,1.343l-1.123-0.069
	c0.151-1.477,1.028-2.149,2.477-2.149c1.109,0,2.644,0.302,2.644,2.026v3.037c0,0.644,0.247,0.739,0.478,0.739
	c0.125,0,0.234-0.027,0.343-0.068v0.93c-0.218,0.057-0.466,0.098-0.695,0.098c-0.67,0-0.985-0.287-1.139-0.904
	c-0.612,0.684-1.405,1.012-2.322,1.012c-1.163,0-2.096-0.794-2.096-1.806c0-1.804,1.614-2.134,4.312-2.285v-0.575L298.463,33.948
	L298.463,33.948z M298.463,35.263c-1.833,0.259-3.105,0.464-3.105,1.475c0,0.794,0.728,0.999,1.258,0.999
	c1.056,0,1.85-0.641,1.85-1.722L298.463,35.263L298.463,35.263z"/>
<path d="M301.445,28.708h1.121v1.284h-1.121V28.708z M301.445,31.908h1.121v6.54h-1.121V31.908z"/>
<path d="M308.133,37.231c1.683-0.889,4.679-3.133,4.679-5.309c0-1.162-0.574-1.737-1.792-1.737s-1.683,0.875-1.683,1.722
	c0,0.37,0.055,0.768,0.124,1.164h-1.204c-0.083-0.37-0.124-0.725-0.124-1.053c0-1.586,0.93-2.956,2.968-2.956
	c1.78,0,2.998,1.176,2.998,2.968c0,2.339-2.545,4.202-4.284,5.282v-0.013l-0.013,0.027h4.393v1.121h-6.062V37.231L308.133,37.231z"
	/>
<path d="M318.612,29.063c2.49,0,3.384,2.601,3.384,4.734c0,2.135-0.894,4.734-3.384,4.734c-2.486,0-3.379-2.6-3.379-4.734
	C315.233,31.664,316.125,29.063,318.612,29.063z M318.612,37.409c0.934,0,2.097-0.711,2.097-3.611c0-2.901-1.163-3.611-2.097-3.611
	c-0.931,0-2.094,0.71-2.094,3.611C316.519,36.698,317.682,37.409,318.612,37.409z"/>
<path d="M326.124,31.678h-1.981v-0.875c1.3-0.054,2.118-0.261,2.381-1.657h0.889v9.304h-1.286L326.124,31.678L326.124,31.678z"/>
<path d="M335.648,31.648c-0.151-0.957-0.795-1.546-1.615-1.546c-1.861,0-2.176,1.875-2.244,3.34h0.027
	c0.165-0.312,0.876-1.123,2.259-1.123c1.764,0,2.995,1.204,2.995,2.969c0,1.369-0.78,3.244-3.256,3.244
	c-1.099,0-3.23-0.713-3.23-4.611c0-2.148,0.658-4.857,3.421-4.857c1.587,0,2.491,0.903,2.845,2.45L335.648,31.648z M333.922,37.409
	c1.108,0,1.944-0.793,1.944-1.982c0-1.192-0.836-1.984-1.944-1.984c-1.105,0-1.939,0.792-1.939,1.984
	C331.981,36.616,332.815,37.409,333.922,37.409z"/>
<rect y="6.762" fill="none" width="441.286" height="109.5"/>
<text transform="matrix(1 0 0 1 0 39.2383)" font-family="'AkzidenzGroteskBE-XBdCn'" font-size="46">CATHARE </text>
<text transform="matrix(1 0 0 1 0 83.2383)" font-family="'AkzidenzGroteskBE-XBdCn'" font-size="46">MOTO TRAIL</text>
</svg>
