<?xml version="1.0" encoding="utf-8"?>
<!-- Generator: Adobe Illustrator 15.0.0, SVG Export Plug-In  -->
<!DOCTYPE svg PUBLIC "-//W3C//DTD SVG 1.1//EN" "http://www.w3.org/Graphics/SVG/1.1/DTD/svg11.dtd" [
	<!ENTITY ns_flows "http://ns.adobe.com/Flows/1.0/">
]>
<svg version="1.1"
	 xmlns="http://www.w3.org/2000/svg" xmlns:xlink="http://www.w3.org/1999/xlink" xmlns:a="http://ns.adobe.com/AdobeSVGViewerExtensions/3.0/"
	 x="0px" y="0px" width="30px" height="30px" viewBox="12.485 -0.007 30 30"
	 overflow="visible" enable-background="new 12.485 -0.007 30 30" xml:space="preserve">
<defs>
</defs>
<path fill="#010202" d="M16.162,19.683l-2.917-2.04l-0.044-0.167c-0.067-0.242-1.582-5.972,1.063-10.572
	c1.38-2.4,3.641-4.034,6.716-4.857c1.363-0.364,2.697-0.55,3.967-0.55c7.524,0,10.952,6.465,11.426,7.438l5.889,4.404H28.077
	l-0.032,0c-0.008-0.001-0.085-0.006-0.21-0.006c-0.586,0-2.521,0.109-2.813,1.511l-0.527,2.349l-0.01,0.036
	c-0.009,0.032-0.198,0.82,1.281,1.812l3.183,2.185c0.006,0.004,0.621,0.408,1.303,0.408c0.377,0,0.693-0.12,0.971-0.368l0.238-0.214
	c0.721-0.649,1.197-1.078,1.662-1.078c0.203,0,0.389,0.082,0.521,0.233c0.234,0.268,0.285,0.708,0.18,1.522
	c-0.213,1.638-0.875,4.175-2.812,6.951l-0.266,0.379L16.162,19.683z M32.101,21.765l-0.24,0.216
	c-0.453,0.406-0.994,0.612-1.609,0.612c-0.984,0-1.806-0.549-1.844-0.575l-3.18-2.184c-1.95-1.306-1.734-2.603-1.667-2.859
	l0.524-2.334c0.438-2.104,2.981-2.267,3.75-2.267c0.129,0,0.219,0.004,0.257,0.006h11.284l-3.775-2.823L35.55,9.44
	c-0.031-0.07-3.129-6.982-10.602-6.982c-1.186,0-2.437,0.174-3.719,0.517C18.41,3.729,16.348,5.21,15.1,7.378
	c-2.21,3.838-1.234,8.73-1.013,9.682l2.611,1.826l13.784,8.862c1.629-2.466,2.199-4.687,2.389-6.144
	c0.033-0.241,0.045-0.414,0.045-0.536C32.685,21.24,32.358,21.533,32.101,21.765z"/>
<path fill="#010202" d="M33.138,18.77c-0.924,0-1.605,0.612-2.467,1.389l-0.234,0.209c-0.051,0.047-0.084,0.062-0.168,0.062
	c-0.234,0-0.539-0.144-0.619-0.193l-3.202-2.198c-0.473-0.317-0.673-0.575-0.737-0.694l0.508-2.261
	c0.078-0.376,1.003-0.547,1.634-0.547c0.071,0,0.119,0.002,0.125,0.002l0.059,0.004h0.058h5.665
	c-0.004,2.167-0.318,3.69-0.457,4.246C33.245,18.784,33.194,18.77,33.138,18.77z"/>
<g>
	<defs>
		<path id="SVGID_5_" d="M21.104,2.511c10.701-2.864,14.885,6.737,14.885,6.737l4.83,3.611H28.077c0,0-3.085-0.216-3.522,1.879
			l-0.528,2.349c0,0-0.381,1.109,1.468,2.35l3.185,2.187c0,0,1.631,1.102,2.861,0c1.234-1.102,2.072-1.982,1.807,0.043
			c-0.262,2.025-1.102,4.405-2.73,6.739L16.437,19.29l-2.773-1.939C13.664,17.35,10.403,5.373,21.104,2.511z"/>
	</defs>
	<clipPath id="SVGID_6_">
		<use xlink:href="#SVGID_5_"  overflow="visible"/>
	</clipPath>
	<g clip-path="url(#SVGID_6_)">
		<g>
			<g>
				<rect x="1.023" y="1.993" fill="#25346C" width="53.466" height="26.732"/>
			</g>
		</g>
		<g>
			<g>
				<path fill="#010202" d="M27.743,15.366l26.719,13.359L27.743,15.366z M1.023,28.725l26.72-13.359L1.023,28.725z M1.023,2.007
					l26.72,13.359L1.023,2.007z M27.743,15.366L54.489,1.993L27.743,15.366z"/>
			</g>
		</g>
		<g>
			<defs>
				<rect id="SVGID_4_" x="1.023" y="1.993" width="53.466" height="26.732"/>
			</defs>
			<clipPath id="SVGID_7_">
				<use xlink:href="#SVGID_4_"  overflow="visible"/>
			</clipPath>
			<g clip-path="url(#SVGID_7_)">
				<g>
					<polygon fill="#FFFFFF" points="1.992,30.732 27.743,17.858 53.493,30.732 55.485,26.747 32.724,15.366 55.485,3.985 53.493,0 
						27.743,12.875 1.992,0 0,3.985 22.761,15.366 0,26.747 					"/>
				</g>
			</g>
		</g>
		<g>
			<g>
				<path fill="#010202" d="M54.462,28.725l-0.084-0.041L54.462,28.725z M27.743,15.366L27.743,15.366z M27.743,15.366
					L27.743,15.366z M1.023,28.725l26.72-13.359L1.023,28.725z M1.023,2.007l17.823,8.911L1.023,2.007z M54.489,1.993L27.743,15.366
					L54.489,1.993z"/>
			</g>
		</g>
		<g>
			<defs>
				<polygon id="SVGID_3_" points="27.743,1.993 27.743,15.366 54.489,1.993 54.489,15.366 27.743,15.366 27.743,15.366 
					54.462,28.725 27.743,28.725 27.743,15.366 27.743,15.366 1.023,28.725 1.023,15.366 27.743,15.366 1.023,2.007 1.023,1.993 
									"/>
			</defs>
			<clipPath id="SVGID_8_">
				<use xlink:href="#SVGID_3_"  overflow="visible"/>
			</clipPath>
			<g clip-path="url(#SVGID_8_)">
				<g>
					<polygon fill="#CF172C" points="1.594,29.935 27.743,16.861 53.892,29.935 55.087,27.544 30.731,15.366 55.087,3.188 
						53.892,0.797 27.743,13.872 1.594,0.797 0.398,3.188 24.754,15.366 0.398,27.544 					"/>
				</g>
			</g>
		</g>
		<g>
			<g>
				<path fill="#010202" d="M27.743,28.725V15.366V28.725z M27.743,15.366h26.747H27.743z M1.023,15.366h26.72H1.023z
					 M27.743,15.366V1.993V15.366z"/>
			</g>
		</g>
		<g>
			<defs>
				<rect id="SVGID_2_" x="1.023" y="1.993" width="53.466" height="26.732"/>
			</defs>
			<clipPath id="SVGID_9_">
				<use xlink:href="#SVGID_2_"  overflow="visible"/>
			</clipPath>
			<g clip-path="url(#SVGID_9_)">
				<g>
					<polygon fill="#FFFFFF" points="23.287,28.74 32.198,28.74 32.198,19.821 54.489,19.821 54.489,10.911 32.198,10.911 
						32.198,1.993 23.287,1.993 23.287,10.911 0.997,10.911 0.997,19.821 23.287,19.821 					"/>
				</g>
			</g>
		</g>
		<g>
			<g>
				<path fill="#010202" d="M27.743,28.725V15.366V28.725z M27.743,15.366h26.747H27.743z M1.023,15.366h26.72H1.023z
					 M27.743,15.366V1.993V15.366z"/>
			</g>
		</g>
		<g>
			<defs>
				<rect id="SVGID_1_" x="1.023" y="1.993" width="53.466" height="26.732"/>
			</defs>
			<clipPath id="SVGID_10_">
				<use xlink:href="#SVGID_1_"  overflow="visible"/>
			</clipPath>
			<g clip-path="url(#SVGID_10_)">
				<g>
					<polygon fill="#CF172C" points="25.069,28.74 30.415,28.74 30.415,18.04 54.489,18.04 54.489,12.692 30.415,12.692 
						30.415,1.993 25.069,1.993 25.069,12.692 0.997,12.692 0.997,18.04 25.069,18.04 					"/>
				</g>
			</g>
		</g>
	</g>
</g>
</svg>
