<?xml version="1.0" encoding="utf-8"?>
<!-- Generator: Adobe Illustrator 15.0.0, SVG Export Plug-In  -->
<!DOCTYPE svg PUBLIC "-//W3C//DTD SVG 1.1//EN" "http://www.w3.org/Graphics/SVG/1.1/DTD/svg11.dtd" [
	<!ENTITY ns_flows "http://ns.adobe.com/Flows/1.0/">
]>
<svg version="1.1"
	 xmlns="http://www.w3.org/2000/svg" xmlns:xlink="http://www.w3.org/1999/xlink" xmlns:a="http://ns.adobe.com/AdobeSVGViewerExtensions/3.0/"
	 x="0px" y="0px" width="30px" height="30px" viewBox="12.485 -0.007 30 30"
	 overflow="visible" enable-background="new 12.485 -0.007 30 30" xml:space="preserve">
<defs>
</defs>
<path display="none" fill="#010202" d="M16.162,19.683l-2.917-2.04l-0.044-0.167c-0.067-0.242-1.582-5.972,1.063-10.572
	c1.38-2.4,3.641-4.034,6.716-4.857c1.363-0.364,2.697-0.55,3.967-0.55c7.524,0,10.952,6.465,11.426,7.438l5.889,4.404H28.077
	l-0.032,0c-0.008-0.001-0.085-0.006-0.21-0.006c-0.586,0-2.521,0.109-2.813,1.511l-0.527,2.349l-0.01,0.036
	c-0.009,0.032-0.198,0.82,1.281,1.812l3.183,2.185c0.006,0.004,0.621,0.408,1.303,0.408c0.377,0,0.693-0.12,0.971-0.368l0.238-0.214
	c0.721-0.649,1.197-1.078,1.662-1.078c0.203,0,0.389,0.082,0.521,0.233c0.234,0.268,0.285,0.708,0.18,1.522
	c-0.213,1.638-0.875,4.175-2.812,6.951l-0.266,0.379L16.162,19.683z M32.101,21.765l-0.24,0.216
	c-0.453,0.406-0.994,0.612-1.609,0.612c-0.984,0-1.806-0.549-1.844-0.575l-3.18-2.184c-1.95-1.306-1.734-2.603-1.667-2.859
	l0.524-2.334c0.438-2.104,2.981-2.267,3.75-2.267c0.129,0,0.219,0.004,0.257,0.006h11.284l-3.775-2.823L35.55,9.44
	c-0.031-0.07-3.129-6.982-10.602-6.982c-1.186,0-2.437,0.174-3.719,0.517C18.41,3.729,16.348,5.21,15.1,7.378
	c-2.21,3.838-1.234,8.73-1.013,9.682l2.611,1.826l13.784,8.862c1.629-2.466,2.199-4.687,2.389-6.144
	c0.033-0.241,0.045-0.414,0.045-0.536C32.685,21.24,32.358,21.533,32.101,21.765z"/>
<path display="none" fill="#010202" d="M33.138,18.77c-0.924,0-1.605,0.612-2.467,1.389l-0.234,0.209
	c-0.051,0.047-0.084,0.062-0.168,0.062c-0.234,0-0.539-0.144-0.619-0.193l-3.202-2.198c-0.473-0.317-0.673-0.575-0.737-0.694
	l0.508-2.261c0.078-0.376,1.003-0.547,1.634-0.547c0.071,0,0.119,0.002,0.125,0.002l0.059,0.004h0.058h5.665
	c-0.004,2.167-0.318,3.69-0.457,4.246C33.245,18.784,33.194,18.77,33.138,18.77z"/>
<g display="none">
	<defs>
		<path id="SVGID_6_" d="M21.104,2.511c10.701-2.864,14.885,6.737,14.885,6.737l4.83,3.611H28.077c0,0-3.085-0.216-3.522,1.879
			l-0.528,2.349c0,0-0.381,1.109,1.468,2.35l3.185,2.187c0,0,1.631,1.102,2.861,0c1.234-1.102,2.072-1.982,1.807,0.043
			c-0.262,2.025-1.102,4.405-2.73,6.739L16.437,19.29l-2.773-1.939C13.664,17.35,10.403,5.373,21.104,2.511z"/>
	</defs>
	<clipPath id="SVGID_7_" display="inline">
		<use xlink:href="#SVGID_6_"  display="none" overflow="visible"/>
	</clipPath>
	<g clip-path="url(#SVGID_7_)">
		<g>
			<g>
				<rect x="1.023" y="1.993" fill="#25346C" width="53.466" height="26.732"/>
			</g>
		</g>
		<g>
			<g>
				<path fill="#010202" d="M27.743,15.366l26.719,13.359L27.743,15.366z M1.023,28.725l26.72-13.359L1.023,28.725z M1.023,2.007
					l26.72,13.359L1.023,2.007z M27.743,15.366L54.489,1.993L27.743,15.366z"/>
			</g>
		</g>
		<g>
			<defs>
				<rect id="SVGID_5_" x="1.023" y="1.993" width="53.466" height="26.732"/>
			</defs>
			<clipPath id="SVGID_8_" display="inline">
				<use xlink:href="#SVGID_5_"  display="none" overflow="visible"/>
			</clipPath>
			<g clip-path="url(#SVGID_8_)">
				<g>
					<polygon fill="#FFFFFF" points="1.992,30.732 27.743,17.858 53.493,30.732 55.485,26.747 32.724,15.366 55.485,3.985 53.493,0 
						27.743,12.875 1.992,0 0,3.985 22.761,15.366 0,26.747 					"/>
				</g>
			</g>
		</g>
		<g>
			<g>
				<path fill="#010202" d="M54.462,28.725l-0.084-0.041L54.462,28.725z M27.743,15.366L27.743,15.366z M27.743,15.366
					L27.743,15.366z M1.023,28.725l26.72-13.359L1.023,28.725z M1.023,2.007l17.823,8.911L1.023,2.007z M54.489,1.993L27.743,15.366
					L54.489,1.993z"/>
			</g>
		</g>
		<g>
			<defs>
				<polygon id="SVGID_4_" points="27.743,1.993 27.743,15.366 54.489,1.993 54.489,15.366 27.743,15.366 27.743,15.366 
					54.462,28.725 27.743,28.725 27.743,15.366 27.743,15.366 1.023,28.725 1.023,15.366 27.743,15.366 1.023,2.007 1.023,1.993 
									"/>
			</defs>
			<clipPath id="SVGID_9_" display="inline">
				<use xlink:href="#SVGID_4_"  display="none" overflow="visible"/>
			</clipPath>
			<g clip-path="url(#SVGID_9_)">
				<g>
					<polygon fill="#CF172C" points="1.594,29.935 27.743,16.861 53.892,29.935 55.087,27.544 30.731,15.366 55.087,3.188 
						53.892,0.797 27.743,13.872 1.594,0.797 0.398,3.188 24.754,15.366 0.398,27.544 					"/>
				</g>
			</g>
		</g>
		<g>
			<g>
				<path fill="#010202" d="M27.743,28.725V15.366V28.725z M27.743,15.366h26.747H27.743z M1.023,15.366h26.72H1.023z
					 M27.743,15.366V1.993V15.366z"/>
			</g>
		</g>
		<g>
			<defs>
				<rect id="SVGID_3_" x="1.023" y="1.993" width="53.466" height="26.732"/>
			</defs>
			<clipPath id="SVGID_10_" display="inline">
				<use xlink:href="#SVGID_3_"  display="none" overflow="visible"/>
			</clipPath>
			<g clip-path="url(#SVGID_10_)">
				<g>
					<polygon fill="#FFFFFF" points="23.287,28.74 32.198,28.74 32.198,19.821 54.489,19.821 54.489,10.911 32.198,10.911 
						32.198,1.993 23.287,1.993 23.287,10.911 0.997,10.911 0.997,19.821 23.287,19.821 					"/>
				</g>
			</g>
		</g>
		<g>
			<g>
				<path fill="#010202" d="M27.743,28.725V15.366V28.725z M27.743,15.366h26.747H27.743z M1.023,15.366h26.72H1.023z
					 M27.743,15.366V1.993V15.366z"/>
			</g>
		</g>
		<g>
			<defs>
				<rect id="SVGID_2_" x="1.023" y="1.993" width="53.466" height="26.732"/>
			</defs>
			<clipPath id="SVGID_12_" display="inline">
				<use xlink:href="#SVGID_2_"  display="none" overflow="visible"/>
			</clipPath>
			<g clip-path="url(#SVGID_12_)">
				<g>
					<polygon fill="#CF172C" points="25.069,28.74 30.415,28.74 30.415,18.04 54.489,18.04 54.489,12.692 30.415,12.692 
						30.415,1.993 25.069,1.993 25.069,12.692 0.997,12.692 0.997,18.04 25.069,18.04 					"/>
				</g>
			</g>
		</g>
	</g>
</g>
<path fill="#010202" d="M30.786,29.11l-14.615-9.396l-2.941-2.057l-0.045-0.169c-0.066-0.242-1.587-5.99,1.067-10.604
	c1.385-2.409,3.651-4.047,6.738-4.873c1.368-0.366,2.706-0.551,3.979-0.551c7.55,0,10.989,6.486,11.463,7.462l5.907,4.418
	l-14.264-0.001c-0.008,0-0.085-0.005-0.21-0.005c-0.586,0-2.527,0.108-2.819,1.508l-0.545,2.415
	c-0.004,0.018-0.194,0.809,1.285,1.801l3.2,2.196c0.002,0.002,0.618,0.407,1.304,0.407c0.378,0,0.696-0.12,0.974-0.368l0.239-0.215
	c0.724-0.651,1.202-1.084,1.669-1.084c0.202,0,0.389,0.083,0.521,0.234c0.235,0.268,0.287,0.71,0.18,1.527
	c-0.213,1.645-0.876,4.189-2.821,6.974L30.786,29.11z M14.074,17.072l2.635,1.841l13.814,8.883c1.634-2.474,2.206-4.703,2.397-6.165
	c0.031-0.246,0.043-0.42,0.043-0.544c-0.222,0.17-0.553,0.469-0.816,0.705l-0.241,0.215c-0.455,0.409-0.998,0.615-1.615,0.615
	c-0.986,0-1.812-0.549-1.847-0.572l-3.198-2.198c-1.952-1.307-1.734-2.609-1.667-2.865l0.527-2.348
	c0.439-2.104,2.99-2.268,3.761-2.268c0.13,0,0.221,0.004,0.258,0.007h11.321l-3.786-2.832l-0.052-0.117
	c-0.031-0.07-3.156-7.006-10.637-7.006c-1.189,0-2.444,0.175-3.73,0.519c-2.828,0.756-4.896,2.243-6.149,4.417
	C12.873,11.209,13.853,16.118,14.074,17.072z"/>
<path fill="#010202" d="M33.188,18.787c-0.927,0-1.61,0.615-2.476,1.395l-0.233,0.209c-0.053,0.047-0.086,0.062-0.17,0.062
	c-0.235,0-0.542-0.145-0.622-0.193l-3.211-2.204c-0.475-0.32-0.676-0.578-0.74-0.698l0.509-2.269
	c0.079-0.377,1.008-0.548,1.64-0.548c0.072,0,0.119,0.001,0.125,0.002l0.059,0.004h0.059h5.682c-0.003,2.175-0.319,3.703-0.46,4.259
	C33.295,18.8,33.243,18.787,33.188,18.787z"/>
<g>
	<defs>
		<path id="SVGID_1_" d="M21.115,2.476c10.737-2.873,14.933,6.759,14.933,6.759l4.844,3.623H28.109c0,0-3.096-0.217-3.534,1.885
			l-0.529,2.355c0,0-0.382,1.115,1.473,2.357l3.195,2.194c0,0,1.635,1.105,2.871,0c1.237-1.104,2.077-1.988,1.812,0.043
			c-0.264,2.033-1.104,4.42-2.739,6.762l-14.225-9.146l-2.783-1.944C13.649,17.364,10.378,5.347,21.115,2.476z"/>
	</defs>
	<clipPath id="SVGID_14_">
		<use xlink:href="#SVGID_1_"  overflow="visible"/>
	</clipPath>
	<g clip-path="url(#SVGID_14_)">
		<g>
			<rect x="12.173" y="1.426" fill="#E72E3C" width="29.052" height="27.542"/>
		</g>
		<g>
			<rect x="12.173" y="1.426" fill="#FFFFFF" width="19.367" height="27.542"/>
		</g>
		<g>
			<rect x="12.173" y="1.426" fill="#25377E" width="9.684" height="27.542"/>
		</g>
	</g>
</g>
</svg>
