<?xml version="1.0" encoding="utf-8"?>
<!-- Generator: Adobe Illustrator 15.0.0, SVG Export Plug-In  -->
<!DOCTYPE svg PUBLIC "-//W3C//DTD SVG 1.1//EN" "http://www.w3.org/Graphics/SVG/1.1/DTD/svg11.dtd" [
	<!ENTITY ns_flows "http://ns.adobe.com/Flows/1.0/">
]>
<svg version="1.1"
	 xmlns="http://www.w3.org/2000/svg" xmlns:xlink="http://www.w3.org/1999/xlink" xmlns:a="http://ns.adobe.com/AdobeSVGViewerExtensions/3.0/"
	 x="0px" y="0px" width="200px" height="220px" viewBox="-1.391 -3.523 200 220"
	 overflow="visible" enable-background="new -1.391 -3.523 200 220" xml:space="preserve">
<defs>
</defs>
<path d="M194.001,151.394l2.554-0.49l-1.109,2.353c-1.878,3.986-3.756,7.945-5.638,11.886c1.872,3.518,3.738,7.009,5.608,10.479
	l0.854,1.591l-1.772,0.336c-3.438,0.657-6.888,1.229-10.346,1.731c0,5.351,0,10.702,0,16.054v1.097l-1.077,0.206
	c-14.812,2.823-29.731,4.882-44.701,6.189c-11.525,6.411-24.777,10.078-38.877,10.078c-14.124,0-27.399-3.682-38.94-10.115
	c-14.83-1.309-29.611-3.354-44.288-6.152l-1.075-0.206v-1.097c0-5.214,0-10.427,0-15.639c-4.392-0.605-8.771-1.312-13.136-2.146
	l-1.772-0.338l0.853-1.589c1.868-3.47,3.737-6.961,5.609-10.472c-1.883-3.943-3.763-7.906-5.64-11.893L0,150.903l2.554,0.49
	c6.535,1.245,16.521,3.325,28.132,3.799C30.686,155.192,153.276,160.392,194.001,151.394z"/>
<path d="M16.56,195.298c14.487,2.763,29.33,4.823,44.116,6.127l0.291,0.026l0.255,0.142c11.666,6.504,24.9,9.942,38.274,9.942
	c13.352,0,26.564-3.426,38.213-9.905l0.255-0.143l0.291-0.024c14.916-1.302,29.898-3.376,44.529-6.165v-17.202l1.171-0.17
	c3.504-0.508,6.944-1.084,10.229-1.709c-1.859-3.454-3.72-6.93-5.584-10.434l-0.323-0.608l0.297-0.622
	c1.868-3.912,3.732-7.843,5.597-11.799c-15.977,3.514-46.034,5.299-89.288,5.299c-0.003,0-0.002,0-0.004,0
	c-38.544,0-73.898-1.48-74.251-1.496c-10.78-0.439-19.978-2.214-26.694-3.508l-1.553-0.298c1.864,3.958,3.73,7.894,5.6,11.809
	l0.297,0.622l-0.324,0.609c-1.864,3.496-3.724,6.971-5.583,10.424c4.173,0.796,8.551,1.51,13.01,2.125l1.18,0.161V195.298z"/>
<circle fill="#FFFFFF" cx="99.414" cy="132.625" r="77.134"/>
<path fill="#929084" d="M50.462,179.146c-15.263,0-30.6-1.382-45.626-4.11c1.631-3.033,3.259-6.081,4.855-9.079l0.394-0.736
	l-0.361-0.753c-1.487-3.113-3.01-6.317-4.544-9.562c14.92,2.651,30.139,3.992,45.283,3.992c15.557,0,31.19-1.415,46.501-4.214
	v20.191C81.658,177.709,66.02,179.146,50.462,179.146L50.462,179.146z"/>
<path d="M50.462,157.243c-16.124,0-32.248-1.517-48.156-4.551c1.971,4.187,3.946,8.349,5.924,12.489
	c-1.978,3.712-3.954,7.399-5.924,11.066c15.908,3.034,32.032,4.553,48.156,4.553c16.123,0,32.246-1.519,48.155-4.553
	c0-7.852,0-15.703,0-23.556C82.708,155.727,66.585,157.243,50.462,157.243z M95.307,173.494
	c-14.772,2.651-29.845,3.996-44.845,3.996c-14.406,0-28.878-1.24-43.086-3.687c1.267-2.364,2.529-4.728,3.776-7.066l0.786-1.475
	l-0.72-1.51c-1.059-2.217-2.122-4.447-3.18-6.678c14.005,2.31,28.245,3.479,42.424,3.479c14.996,0,30.062-1.309,44.845-3.891
	V173.494z"/>
<path fill="#8BB31D" d="M50.462,157.243c-16.124,0-32.248-1.517-48.156-4.551c1.971,4.187,3.946,8.349,5.924,12.489
	c-1.978,3.712-3.954,7.399-5.924,11.066c15.908,3.034,32.032,4.553,48.156,4.553c16.123,0,32.246-1.519,48.155-4.553
	c0-7.852,0-15.703,0-23.556C82.708,155.727,66.585,157.243,50.462,157.243z M96.51,174.501c-15.158,2.782-30.642,4.192-46.048,4.192
	c-15.03,0-30.131-1.343-44.934-3.991c1.529-2.852,3.059-5.711,4.561-8.531l0.5-0.938l-0.458-0.961
	c-1.39-2.91-2.787-5.845-4.17-8.771c14.671,2.553,29.621,3.85,44.5,3.85c15.403,0,30.882-1.387,46.048-4.126V174.501z"/>
<path d="M2.058,177.547l-1.772-0.338l0.853-1.589c1.868-3.47,3.737-6.961,5.609-10.472l0,0c-1.883-3.943-3.763-7.906-5.64-11.893
	l0,0L0,150.903l2.554,0.49c15.826,3.017,31.867,4.525,47.907,4.525l0,0c16.041,0,32.081-1.511,47.908-4.525l0,0l1.573-0.302v1.601
	c0,7.853,0,15.704,0,23.556l0,0v1.094l-1.077,0.205c-15.99,3.052-32.198,4.575-48.404,4.575l0,0
	C34.254,182.122,18.048,180.599,2.058,177.547L2.058,177.547z M50.461,179.476c15.678,0,31.355-1.442,46.832-4.324l0,0
	c0-6.955,0-13.909,0-20.864l0,0c-15.479,2.854-31.156,4.28-46.832,4.28l0,0c-15.345,0-30.692-1.367-45.854-4.102l0,0
	c1.603,3.396,3.21,6.776,4.817,10.144l0,0l0.289,0.605l-0.314,0.589c-1.692,3.173-3.382,6.333-5.069,9.477l0,0
	C19.579,178.077,35.02,179.476,50.461,179.476L50.461,179.476z"/>
<path fill="#393932" d="M39.24,161.34c-7.156,1.789-14.311,4.175-20.871,7.355c-6.562,3.181,1.391,6.761,5.764,7.356l37.57,6.359
	C52.759,176.646,39.24,161.34,39.24,161.34z"/>
<path d="M24.025,176.788c-2.533-0.368-6.011-1.544-7.833-3.3l0,0c-0.601-0.592-1.061-1.313-1.065-2.176l0,0
	c-0.003-0.641,0.28-1.274,0.772-1.81l0,0c0.496-0.536,1.196-1.018,2.145-1.479l0,0c6.62-3.209,13.823-5.609,21.017-7.407l0,0
	l0.438-0.11l0.3,0.34c0.003,0.003,0.838,0.95,2.241,2.47l0,0c1.402,1.52,3.366,3.608,5.608,5.874l0,0
	c4.476,4.528,10.085,9.779,14.458,12.594l0,0l-0.527,1.362L24.025,176.788L24.025,176.788z M18.693,169.366
	c-0.837,0.404-1.385,0.806-1.692,1.145l0,0c-0.309,0.345-0.379,0.587-0.383,0.802l0,0c-0.006,0.281,0.17,0.671,0.62,1.115l0,0
	c0.442,0.438,1.119,0.888,1.907,1.284l0,0c1.576,0.799,3.594,1.399,5.089,1.601l0,0h0.016l34.355,5.818
	c-7.998-6.092-17.784-16.91-19.619-18.957l0,0C32.014,163.939,25.061,166.28,18.693,169.366L18.693,169.366z M38.684,161.832
	l0.556-0.492L38.684,161.832L38.684,161.832z"/>
<path d="M19.373,175.673c-0.601-0.59-1.061-1.312-1.066-2.174l0,0c-0.003-0.641,0.281-1.272,0.773-1.807l0,0
	c0.494-0.541,1.195-1.021,2.143-1.482l0,0c6.62-3.208,13.823-5.606,21.017-7.404l0,0l0.361,1.444
	c-7.117,1.78-14.227,4.152-20.727,7.303l0,0c-0.838,0.403-1.386,0.806-1.692,1.144l0,0c-0.309,0.345-0.381,0.587-0.384,0.803l0,0
	c-0.005,0.282,0.169,0.669,0.621,1.114l0,0c0.442,0.437,1.119,0.887,1.907,1.284l0,0c1.576,0.802,3.594,1.4,5.089,1.602l0,0
	l-0.201,1.477C24.68,178.607,21.197,177.431,19.373,175.673L19.373,175.673z"/>
<path fill="#929084" d="M186.86,165.849l-0.396-0.734l0.36-0.757c1.497-3.151,3.011-6.357,4.518-9.57
	c-13.615,2.444-27.504,3.7-41.327,3.74c-14.236,0.041-28.548-1.211-42.565-3.721l0.056,20.189
	c14.015,2.548,28.33,3.819,42.566,3.777c13.943-0.038,27.947-1.336,41.67-3.855C190.117,171.914,188.482,168.874,186.86,165.849z"/>
<path d="M194.21,152.568c-14.597,2.827-29.396,4.262-44.199,4.305c-14.802,0.041-29.608-1.309-44.222-4.054
	c0.023,7.852,0.045,15.704,0.066,23.555c14.613,2.745,29.42,4.099,44.222,4.056c14.805-0.041,29.602-1.477,44.2-4.306
	c-1.982-3.66-3.969-7.344-5.957-11.058C190.287,160.928,192.25,156.76,194.21,152.568z M189.199,173.691
	c-12.907,2.236-26.047,3.389-39.131,3.427c-13.679,0.038-27.43-1.142-40.911-3.509l-0.047-16.832
	c13.493,2.299,27.234,3.445,40.908,3.407c12.861-0.036,25.772-1.119,38.475-3.225c-1.056,2.238-2.111,4.473-3.162,6.687l-0.72,1.511
	l0.79,1.473C186.656,168.973,187.926,171.337,189.199,173.691z"/>
<path fill="#8BB31D" d="M194.21,152.568c-14.597,2.827-29.396,4.262-44.199,4.305c-14.802,0.041-29.608-1.309-44.222-4.054
	c0.023,7.852,0.045,15.704,0.066,23.555c14.613,2.745,29.42,4.099,44.222,4.056c14.805-0.041,29.602-1.477,44.2-4.306
	c-1.982-3.66-3.969-7.344-5.957-11.058C190.287,160.928,192.25,156.76,194.21,152.568z M191.049,174.586
	c-13.498,2.44-27.267,3.696-40.978,3.735c-14.085,0.039-28.244-1.205-42.114-3.704l-0.055-19.271
	c13.876,2.452,28.032,3.674,42.114,3.634c13.56-0.039,27.181-1.248,40.547-3.595c-1.379,2.933-2.767,5.874-4.146,8.779l-0.458,0.961
	l0.503,0.939C187.979,168.89,189.516,171.746,191.049,174.586z"/>
<path d="M105.611,177.674l-1.077-0.201l-0.003-1.095c-0.023-7.852-0.046-15.702-0.069-23.555l0,0l-0.003-1.601l1.575,0.296
	c14.53,2.729,29.252,4.07,43.973,4.031l0,0c14.718-0.041,29.436-1.468,43.95-4.28l0,0l2.554-0.496l-1.103,2.355
	c-1.866,3.99-3.734,7.957-5.604,11.901l0,0c1.882,3.512,3.761,6.999,5.638,10.463l0,0l0.858,1.588l-1.771,0.342
	c-14.681,2.844-29.562,4.287-44.448,4.328l0,0C135.195,181.793,120.307,180.437,105.611,177.674L105.611,177.674z M150.073,179.105
	c14.121-0.04,28.236-1.356,42.177-3.945l0,0c-1.695-3.138-3.396-6.292-5.097-9.468l0,0l-0.317-0.59l0.287-0.601
	c1.6-3.37,3.197-6.755,4.793-10.154l0,0c-13.853,2.525-27.875,3.81-41.901,3.85l0,0c-14.356,0.039-28.714-1.224-42.897-3.787l0,0
	c0.021,6.954,0.04,13.909,0.06,20.863l0,0C121.356,177.868,135.719,179.146,150.073,179.105L150.073,179.105z"/>
<path fill="#393932" d="M159.999,159.865c7.158,1.788,14.314,4.173,20.875,7.353c6.56,3.182-1.393,6.76-5.768,7.356l-37.568,6.361
	C146.484,175.171,159.999,159.865,159.999,159.865z"/>
<path d="M137.135,180.309c6.573-4.227,15.868-13.913,20.065-18.469l0,0c1.403-1.52,2.238-2.467,2.241-2.47l0,0l0.301-0.341
	l0.438,0.111c7.195,1.798,14.398,4.197,21.018,7.408l0,0c0.949,0.46,1.649,0.94,2.145,1.48l0,0c0.493,0.531,0.776,1.165,0.772,1.807
	l0,0c-0.005,0.862-0.464,1.583-1.066,2.176l0,0c-0.608,0.598-1.401,1.108-2.279,1.553l0,0c-1.753,0.884-3.853,1.51-5.535,1.744l0,0
	l0,0l-37.571,6.361L137.135,180.309L137.135,180.309z M143.959,175.998c0,0,36.342-4.669,37.672-6.02c0,0,1.191-0.442,0.609-0.945
	l0,0c-0.308-0.338-0.854-0.739-1.691-1.145l0,0c-6.369-3.086-13.321-5.424-20.294-7.192l0,0
	C158.421,162.744,143.959,175.998,143.959,175.998z"/>
<path d="M172.236,176.618c2.24-0.287,5.664-1.537,6.994-2.886l0,0c0.452-0.443,0.628-0.831,0.621-1.114l0,0
	c-0.004-0.215-0.075-0.457-0.384-0.802l0,0c-0.309-0.34-0.854-0.74-1.692-1.145l0,0c-6.5-3.152-13.329-4.82-20.446-6.601
	l-0.279-0.702l0,0l0.64-0.745c7.194,1.801,14.119,3.498,20.737,6.707l0,0c0.948,0.459,1.648,0.94,2.143,1.479l0,0
	c0.494,0.535,0.774,1.166,0.774,1.808l0,0c-0.004,0.864-0.466,1.586-1.068,2.176l0,0c-0.608,0.598-1.398,1.107-2.278,1.553l0,0
	c-1.759,0.89-3.87,1.516-5.558,1.749l0,0L172.236,176.618L172.236,176.618z"/>
<path fill="#ABC910" d="M99.496,212.902c-44.246,0-80.242-35.996-80.242-80.24c0-44.248,35.996-80.243,80.242-80.243
	c44.246,0,80.242,35.995,80.242,80.243C179.738,176.906,143.742,212.902,99.496,212.902z M99.496,57.877
	c-41.235,0-74.783,33.55-74.783,74.785c0,41.234,33.547,74.782,74.783,74.782c41.236,0,74.784-33.548,74.784-74.782
	C174.28,91.427,140.732,57.877,99.496,57.877z"/>
<circle fill="#565656" cx="99.497" cy="132.661" r="24.954"/>
<circle fill="#FFFFFF" cx="99.496" cy="132.661" r="12.803"/>
<path fill="#FFFFFF" d="M113.625,146.789c0,0-0.168,0.181-0.48,0.521c-0.157,0.168-0.35,0.377-0.578,0.623
	c-0.115,0.119-0.231,0.257-0.368,0.393c-0.148,0.126-0.304,0.258-0.469,0.399c-0.333,0.282-0.698,0.605-1.111,0.938
	c-0.436,0.299-0.907,0.619-1.414,0.964c-0.513,0.33-1.103,0.611-1.707,0.947c-0.613,0.319-1.305,0.549-2.007,0.846
	c-0.724,0.226-1.485,0.469-2.285,0.658c-0.811,0.145-1.647,0.338-2.526,0.378c-1.751,0.199-3.628,0.08-5.53-0.254
	c-1.902-0.351-3.812-1.018-5.629-1.943c-1.806-0.957-3.468-2.219-4.978-3.643l-1.02-1.142c-0.33-0.339-0.645-0.779-0.956-1.21
	c-0.667-0.847-1.159-1.742-1.667-2.625c-0.245-0.448-0.434-0.922-0.65-1.379l-0.301-0.69l-0.234-0.717
	c-0.147-0.474-0.329-0.938-0.442-1.418c-0.106-0.479-0.213-0.954-0.318-1.426c-0.335-1.901-0.456-3.78-0.254-5.531
	c0.037-0.879,0.235-1.715,0.378-2.526c0.188-0.802,0.432-1.561,0.659-2.285c0.297-0.701,0.525-1.395,0.845-2.007
	c0.337-0.604,0.618-1.194,0.949-1.709c0.344-0.503,0.666-0.977,0.962-1.414c0.332-0.41,0.654-0.771,0.935-1.103
	c0.141-0.166,0.274-0.321,0.4-0.469c0.134-0.138,0.273-0.257,0.396-0.373c0.247-0.228,0.457-0.422,0.626-0.578
	c0.339-0.314,0.52-0.48,0.52-0.48s-0.148,0.195-0.426,0.563c-0.262,0.382-0.719,0.879-1.146,1.619
	c-0.224,0.363-0.48,0.756-0.738,1.192c-0.23,0.453-0.477,0.944-0.742,1.469c-0.255,0.524-0.449,1.12-0.695,1.723
	c-0.229,0.61-0.389,1.279-0.601,1.954c-0.146,0.697-0.302,1.422-0.405,2.176c-0.058,0.762-0.203,1.536-0.174,2.347
	c-0.076,1.614,0.174,3.307,0.526,5.008c0.372,1.71,1.096,3.368,1.92,4.986c0.468,0.778,0.924,1.584,1.483,2.27
	c0.45,0.697,1.271,1.482,1.823,2.121c1.329,1.283,2.792,2.43,4.391,3.309c1.617,0.827,3.277,1.549,4.986,1.921
	c1.701,0.351,3.393,0.605,5.008,0.527c0.81,0.028,1.584-0.12,2.347-0.174c0.755-0.104,1.478-0.262,2.175-0.406
	c0.677-0.21,1.346-0.371,1.956-0.6c0.602-0.245,1.197-0.442,1.724-0.695c0.522-0.268,1.015-0.514,1.467-0.742
	c0.433-0.268,0.829-0.512,1.187-0.734c0.736-0.425,1.246-0.894,1.624-1.153C113.429,146.938,113.625,146.789,113.625,146.789z"/>
<path fill="#565656" d="M98.71,130.444c-2.756-2.543-5.507-4.738-7.886-4.456c-1.037,1.343-1.722,2.867-2.05,4.456
	c-0.716,3.487,0.272,7.255,2.978,9.96c4.277,4.276,11.212,4.276,15.488,0c0.947-0.946,1.673-2.029,2.2-3.179
	C106.578,138.4,102.641,134.072,98.71,130.444z"/>
<circle fill="#ABC910" cx="99.497" cy="131.84" r="61.773"/>
<rect x="54.134" y="88.163" fill="#80A51B" width="1.094" height="89.632"/>
<polygon fill="#80A51B" points="53.313,177.795 54.68,94.952 56.047,177.795 "/>
<polygon fill="#80A51B" points="54.68,133.282 53.86,88.163 55.501,88.163 "/>
<rect x="78.356" y="72.842" fill="#80A51B" width="1.094" height="119.75"/>
<polygon fill="#80A51B" points="78.903,130.968 80.271,192.592 77.535,192.592 "/>
<rect x="102.578" y="68.634" fill="#80A51B" width="1.093" height="128.051"/>
<rect x="127.072" y="75.19" fill="#80A51B" width="0.548" height="116.189"/>
<polygon fill="#80A51B" points="127.346,75.19 128.44,191.379 126.254,191.379 "/>
<rect x="151.294" y="90.24" fill="#80A51B" width="0.546" height="86.632"/>
<polygon fill="#80A51B" points="151.568,90.24 152.936,174.965 150.202,174.965 "/>
<path fill="#80A51B" d="M81.152,128.966c0,0,0.058,0.913,0.134,2.51c0.062,1.596,0.185,3.875,0.274,6.61
	c0.099,2.737,0.19,5.928,0.266,9.351c0.033,1.71,0.069,3.479,0.102,5.275c0.025,1.796,0.05,3.621,0.076,5.443
	c0.013,1.825,0.026,3.651,0.038,5.445c0.003,1.797,0.006,3.564,0.01,5.276c-0.003,3.422-0.03,6.615-0.071,9.352
	c-0.033,2.739-0.109,5.02-0.138,6.617c-0.042,1.599-0.081,2.511-0.081,2.511s-0.058-0.911-0.132-2.508
	c-0.063-1.596-0.188-3.876-0.277-6.613c-0.099-2.735-0.191-5.928-0.264-9.35c-0.034-1.71-0.068-3.479-0.101-5.273
	c-0.026-1.796-0.052-3.622-0.076-5.446c-0.013-1.822-0.025-3.648-0.039-5.444c-0.001-1.796-0.004-3.565-0.006-5.274
	c0.002-3.425,0.028-6.617,0.069-9.354c0.034-2.737,0.107-5.019,0.138-6.617C81.113,129.88,81.152,128.966,81.152,128.966z"/>
<path fill="#80A51B" d="M75.842,78.011c0,0,0.248,4.738,0.488,11.84c0.12,3.553,0.24,7.695,0.326,12.137
	c0.039,2.22,0.087,4.516,0.104,6.848c0.032,2.33,0.044,4.699,0.041,7.067c0.014,2.37-0.017,4.739-0.035,7.07
	c-0.008,2.331-0.085,4.627-0.124,6.847c-0.044,2.22-0.152,4.363-0.219,6.397c-0.076,2.035-0.212,3.956-0.305,5.729
	c-0.085,1.776-0.259,3.396-0.361,4.834c-0.062,0.718-0.118,1.393-0.168,2.015c-0.07,0.62-0.136,1.191-0.195,1.705
	c-0.235,2.058-0.37,3.234-0.37,3.234s0.109-1.179,0.3-3.24c0.047-0.517,0.1-1.089,0.157-1.708c0.039-0.621,0.08-1.295,0.125-2.016
	c0.072-1.44,0.21-3.063,0.259-4.837c0.052-1.774,0.146-3.695,0.18-5.727c0.022-2.035,0.082-4.179,0.079-6.395
	c-0.01-2.22,0.02-4.512-0.024-6.839c-0.031-2.329-0.051-4.694-0.117-7.061c-0.049-2.365-0.112-4.729-0.195-7.056
	c-0.067-2.328-0.163-4.62-0.252-6.836c-0.181-4.433-0.392-8.567-0.586-12.108c-0.395-7.089-0.743-11.803-0.743-11.803L75.842,78.011
	z"/>
<path fill="#80A51B" d="M55.95,176.587l-0.314-2.32l-0.24-2.334l-0.174-2.339l-0.125-2.339c-0.063-1.566-0.114-3.129-0.122-4.691
	c-0.013-1.565,0.011-3.127,0.044-4.69c0.029-1.563,0.09-3.127,0.152-4.688c0.076-1.563,0.152-3.123,0.252-4.686
	c0.182-3.119,0.466-6.236,0.757-9.347c0.302-3.11,0.635-6.216,0.991-9.32c0.363-3.104,0.716-6.208,1.134-9.304l1.21-9.282
	c0.197-1.549,0.378-3.094,0.542-4.642c0.161-1.544,0.303-3.098,0.326-4.624l0.038-2.512l0.869,2.345
	c0.478,1.289,0.878,2.574,1.251,3.88c0.376,1.302,0.718,2.613,1.032,3.927c0.626,2.639,1.136,5.297,1.521,7.977
	c0.391,2.679,0.618,5.378,0.699,8.079c0.027,0.676,0.024,1.352,0.033,2.026c-0.011,0.674-0.005,1.352-0.037,2.026
	c-0.017,0.674-0.058,1.349-0.109,2.021c-0.037,0.674-0.121,1.344-0.179,2.015c0.025-0.674,0.075-1.345,0.079-2.021
	c0.02-0.672,0.02-1.346,0.016-2.02c0.008-0.671-0.024-1.346-0.037-2.018c-0.035-0.673-0.055-1.345-0.107-2.015
	c-0.173-2.685-0.524-5.353-0.954-8.005c-0.442-2.648-1.008-5.275-1.687-7.875c-0.34-1.296-0.709-2.587-1.109-3.869
	c-0.402-1.276-0.825-2.557-1.287-3.795l0.906-0.169c-0.013,1.598-0.147,3.159-0.296,4.72c-0.153,1.56-0.324,3.113-0.509,4.666
	l-1.143,9.299l-1.167,9.286c-0.377,3.098-0.733,6.197-1.057,9.3l-0.452,4.653l-0.411,4.657c-0.134,1.554-0.243,3.109-0.354,4.664
	c-0.095,1.555-0.191,3.111-0.257,4.668c-0.069,1.556-0.126,3.113-0.148,4.672c-0.041,1.558-0.052,3.116-0.044,4.675l0.039,2.337
	l0.09,2.339l0.14,2.334L55.95,176.587z"/>
<path fill="#80A51B" d="M61.28,121.595c0,0,0.121,0.762,0.28,2.097c0.156,1.339,0.384,3.253,0.589,5.555
	c0.094,1.151,0.206,2.399,0.29,3.721c0.083,1.32,0.187,2.715,0.241,4.158c0.065,1.443,0.138,2.935,0.164,4.451
	c0.045,1.52,0.048,3.059,0.063,4.603c0.01,1.542-0.045,3.085-0.062,4.601c-0.03,1.519-0.129,3.011-0.188,4.455
	c-0.087,1.445-0.21,2.839-0.314,4.16c-0.135,1.319-0.288,2.566-0.426,3.714c-0.148,1.147-0.345,2.193-0.498,3.122
	c-0.139,0.926-0.332,1.728-0.473,2.387c-0.293,1.317-0.475,2.064-0.475,2.064s0.089-0.768,0.265-2.101
	c0.089-0.666,0.217-1.473,0.281-2.409c0.083-0.93,0.174-1.981,0.276-3.126c0.073-1.149,0.152-2.395,0.235-3.71
	c0.054-1.318,0.109-2.707,0.167-4.144c0.029-1.439,0.062-2.924,0.093-4.435c0.007-1.511,0.046-3.045,0.024-4.579
	c0-1.536,0.008-3.071-0.024-4.581c-0.009-0.759-0.018-1.506-0.025-2.249c-0.015-0.741-0.03-1.472-0.043-2.191
	c-0.071-2.879-0.136-5.569-0.193-7.874C61.377,124.669,61.28,121.595,61.28,121.595z"/>
<path fill="#80A51B" d="M107.025,75.19c0,0,0.033,1.19,0.094,3.271c0.039,2.081,0.127,5.056,0.177,8.624
	c0.061,3.568,0.108,7.729,0.137,12.189c0.009,2.231,0.02,4.534,0.027,6.876c0.005,2.34,0.006,4.72,0.008,7.096
	c-0.008,2.381-0.015,4.756-0.022,7.099c-0.017,2.341-0.034,4.646-0.05,6.876c-0.056,4.459-0.106,8.618-0.149,12.188
	c-0.034,3.563-0.11,6.539-0.142,8.619c-0.051,2.083-0.079,3.273-0.079,3.273s-0.049-1.186-0.133-3.266
	c-0.063-2.084-0.187-5.053-0.274-8.624c-0.054-1.785-0.099-3.72-0.115-5.762c-0.021-2.044-0.046-4.198-0.069-6.43
	c-0.015-2.23-0.03-4.535-0.045-6.876c-0.005-2.343-0.01-4.722-0.015-7.101c0.012-2.377,0.022-4.756,0.033-7.098
	c0.021-2.34,0.042-4.646,0.065-6.874c0.05-4.459,0.119-8.623,0.197-12.189c0.074-3.569,0.184-6.541,0.236-8.621
	C106.982,76.38,107.025,75.19,107.025,75.19z"/>
<path fill="#80A51B" d="M144.166,92.68c0,0,0.039,0.298,0.107,0.858c0.064,0.559,0.176,1.377,0.284,2.421
	c0.222,2.089,0.565,5.069,0.89,8.656c0.337,3.586,0.68,7.773,0.993,12.264c0.143,2.247,0.29,4.566,0.437,6.928
	c0.115,2.36,0.231,4.758,0.351,7.156c0.075,2.402,0.172,4.801,0.223,7.166c0.021,1.181,0.04,2.355,0.058,3.513
	c0.021,1.157,0.032,2.304,0.022,3.431c-0.01,2.254,0.006,4.432-0.079,6.496c-0.062,2.065-0.104,4.018-0.249,5.817
	c-0.123,1.798-0.201,3.449-0.407,4.904c-0.085,0.728-0.164,1.409-0.239,2.039c-0.073,0.63-0.131,1.209-0.242,1.726
	c-0.403,2.062-0.63,3.241-0.63,3.241s0.15-1.188,0.418-3.27c0.088-0.52,0.112-1.1,0.154-1.729c0.042-0.631,0.087-1.312,0.135-2.041
	c0.125-1.453,0.118-3.104,0.184-4.898c0.077-1.793,0.043-3.742,0.06-5.799c0.028-2.06-0.051-4.232-0.065-6.477
	c-0.013-2.245-0.134-4.566-0.175-6.925c-0.062-2.357-0.174-4.755-0.257-7.148c-0.107-2.396-0.21-4.792-0.312-7.15
	c-0.115-2.356-0.231-4.675-0.343-6.923c-0.239-4.488-0.464-8.683-0.657-12.273C144.43,97.472,144.166,92.68,144.166,92.68z"/>
<path fill="#80A51B" d="M138.536,156.167c0.361,1.414,0.705,2.83,1.042,4.25l1.012,4.259l0.976,4.267l0.953,4.267l-0.907,0.069
	l0.386-11.075l0.207-5.536l0.159-5.539l0.189-5.537l0.11-2.769l0.046-2.769c0.025-1.845,0.057-3.693,0.111-5.538
	c0.046-1.85,0.087-3.698,0.164-5.55c0.097,1.847,0.16,3.695,0.235,5.542c0.074,1.85,0.129,3.698,0.182,5.548
	c0.025,0.927,0.059,1.851,0.063,2.776l-0.019,2.773l-0.069,5.549l-0.1,5.547c-0.051,1.851-0.125,3.695-0.204,5.542l-0.237,5.544
	l-0.307,5.538l-0.211,3.763l-0.697-3.693l-0.812-4.297l-0.792-4.305l-0.755-4.31C139.012,159.045,138.766,157.607,138.536,156.167z"
	/>
<polygon fill="#80A51B" points="107.325,196.351 110.278,136.374 109.512,196.417 "/>
<path fill="#80A51B" d="M51.505,167.828c0,0-0.081-0.744-0.191-2.046c-0.1-1.302-0.271-3.161-0.408-5.396
	c-0.149-2.232-0.288-4.841-0.401-7.636c-0.122-2.797-0.191-5.779-0.251-8.763c-0.009-1.494-0.02-2.987-0.029-4.455
	c-0.003-1.471,0.025-2.919,0.041-4.319c0.055-2.798,0.158-5.41,0.312-7.647c0.087-1.119,0.158-2.143,0.265-3.05
	c0.109-0.906,0.206-1.694,0.284-2.345c0.233-1.292,0.38-2.02,0.38-2.02s-0.051,0.747-0.168,2.042
	c-0.025,0.651-0.055,1.442-0.091,2.347c-0.027,0.907-0.014,1.934-0.042,3.048c-0.002,1.116-0.002,2.328-0.006,3.606
	c0.011,1.279,0.021,2.629,0.03,4.025c0.039,2.793,0.08,5.771,0.121,8.75c0.039,2.978,0.08,5.96,0.117,8.755
	c0.023,2.797,0.047,5.402,0.066,7.638c-0.002,2.242-0.003,4.105-0.005,5.41C51.512,167.083,51.505,167.828,51.505,167.828z"/>
<path fill="#80A51B" d="M43.052,106.45c0,0-0.022,0.642-0.06,1.765c-0.044,1.123-0.093,2.724-0.128,4.646
	c-0.042,1.925-0.091,4.168-0.144,6.57c-0.037,1.205-0.014,2.445-0.025,3.709c-0.002,1.263-0.004,2.544-0.008,3.827
	c-0.001,1.284-0.005,2.567-0.007,3.83c0.011,1.263-0.035,2.51,0.022,3.709c0.075,2.404,0.146,4.649,0.206,6.575
	c0.12,3.849,0.2,6.415,0.2,6.415s-0.183-2.562-0.456-6.403c-0.138-1.923-0.297-4.164-0.468-6.568
	c-0.105-1.201-0.11-2.446-0.171-3.71c-0.048-1.265-0.097-2.547-0.146-3.831c-0.049-1.285-0.097-2.57-0.144-3.834
	c-0.04-1.265-0.113-2.507-0.122-3.712c-0.044-2.41-0.085-4.662-0.122-6.589c-0.042-1.929-0.056-3.534-0.057-4.659
	c-0.006-1.123-0.012-1.766-0.012-1.766L43.052,106.45z"/>
<polygon fill="#80A51B" points="72.382,139.285 73.202,189.75 71.561,189.75 "/>
<path fill="#80A51B" d="M117.632,144.269l0.256-15.315c0.015-1.278,0.047-2.554,0.099-3.829l0.14-3.829l0.298-7.656l0.214-3.825
	l0.22-3.825c0.08-1.276,0.141-2.553,0.233-3.827l0.31-3.822l0.322-3.822l0.437-3.814c0.075-0.635,0.137-1.272,0.226-1.907
	l0.284-1.903c0.183-1.278,0.399-2.521,0.714-3.827l0.837-3.476l0.128,3.601l0.441,12.345c0.136,4.114,0.291,8.23,0.395,12.346
	l0.614,24.701c0.094,4.115,0.162,8.234,0.209,12.354l0.12,12.352c0.018,2.06,0.021,4.12,0.016,6.178
	c0.002,2.061-0.021,4.12-0.045,6.179c-0.013,2.059-0.054,4.117-0.107,6.177c-0.026,2.061-0.163,4.116-0.26,6.175
	c0.031-2.062,0.083-4.116,0.06-6.177c0.003-2.059-0.009-4.118-0.051-6.175c-0.025-2.059-0.057-4.116-0.108-6.173l-0.126-6.174
	l-0.312-12.348l-0.347-12.345l-1.486-49.384l0.967,0.126c-0.284,1.174-0.521,2.448-0.701,3.695l-0.292,1.883
	c-0.091,0.627-0.153,1.26-0.231,1.894l-0.452,3.792l-0.359,3.807l-0.361,3.807c-0.111,1.27-0.19,2.542-0.285,3.813l-0.277,3.816
	l-0.27,3.818l-0.406,7.642l-0.215,3.823c-0.079,1.272-0.143,2.548-0.188,3.821L117.632,144.269z"/>
<polygon fill="#80A51B" points="113.446,72.824 113.824,123.525 111.806,72.863 "/>
<path fill="#80A51B" d="M83.581,83.342c0,0,0.094,0.979,0.255,2.691c0.142,1.715,0.375,4.16,0.599,7.102
	c0.232,2.94,0.479,6.37,0.72,10.049c0.117,1.838,0.237,3.738,0.359,5.669c0.112,1.931,0.227,3.894,0.341,5.855
	c0.103,1.962,0.205,3.924,0.305,5.855c0.091,1.934,0.18,3.837,0.265,5.677c0.165,3.68,0.294,7.118,0.387,10.065
	c0.101,2.949,0.137,5.407,0.186,7.127c0.026,1.72,0.042,2.702,0.042,2.702s-0.094-0.979-0.255-2.69
	c-0.142-1.713-0.376-4.164-0.598-7.101c-0.233-2.942-0.483-6.371-0.722-10.05c-0.116-1.839-0.235-3.737-0.359-5.668
	c-0.111-1.933-0.227-3.895-0.34-5.855c-0.102-1.965-0.204-3.927-0.305-5.859c-0.09-1.933-0.179-3.834-0.265-5.677
	c-0.164-3.68-0.293-7.117-0.386-10.065c-0.101-2.945-0.137-5.406-0.186-7.124C83.598,84.325,83.581,83.342,83.581,83.342z"/>
<path fill="#80A51B" d="M97.897,137.479c0,0,0.043,0.848,0.096,2.325c0.038,1.479,0.127,3.593,0.175,6.129
	c0.023,1.266,0.044,2.64,0.068,4.093c0.015,1.453,0.031,2.986,0.045,4.568c0.003,1.587,0.004,3.223,0.008,4.887
	c-0.008,1.664-0.016,3.354-0.022,5.045c-0.025,1.688-0.049,3.379-0.071,5.044c-0.019,1.663-0.064,3.301-0.105,4.885
	c-0.049,1.585-0.096,3.115-0.14,4.569c-0.044,1.451-0.1,2.827-0.169,4.092c-0.06,1.27-0.13,2.431-0.193,3.458
	c-0.056,1.028-0.119,1.926-0.196,2.667c-0.142,1.477-0.235,2.312-0.235,2.312s-0.001-0.853,0.022-2.327
	c0.024-0.736,0.021-1.633,0.002-2.665c-0.016-1.028-0.029-2.193-0.028-3.46c-0.004-2.534-0.04-5.492-0.025-8.658
	c0.004-1.585,0.007-3.221,0.012-4.885c0.01-1.665,0.021-3.354,0.033-5.043c0.021-1.69,0.041-3.379,0.062-5.041
	c0.028-1.664,0.058-3.301,0.084-4.886c0.063-3.169,0.137-6.126,0.223-8.658c0.075-2.535,0.183-4.646,0.238-6.126
	C97.845,138.325,97.897,137.479,97.897,137.479z"/>
<polygon fill="#80A51B" points="88.542,72.827 88.816,101.982 87.449,72.859 "/>
<path fill="#80A51B" d="M154.164,123.525c0,0,0.396,2.1,0.846,5.265c0.232,1.583,0.477,3.431,0.716,5.414
	c0.114,0.993,0.248,2.014,0.355,3.059c0.11,1.04,0.226,2.101,0.338,3.159c0.098,1.062,0.198,2.119,0.299,3.161
	c0.104,1.046,0.18,2.073,0.264,3.068c0.162,1.992,0.289,3.852,0.38,5.447c0.192,3.191,0.221,5.328,0.221,5.328
	s-0.396-2.102-0.847-5.266c-0.229-1.581-0.474-3.431-0.713-5.414c-0.115-0.99-0.249-2.014-0.356-3.055
	c-0.109-1.044-0.223-2.104-0.335-3.16c-0.101-1.061-0.201-2.12-0.301-3.167c-0.102-1.042-0.174-2.07-0.262-3.065
	c-0.159-1.988-0.29-3.852-0.379-5.447C154.198,125.664,154.164,123.525,154.164,123.525z"/>
<polygon fill="#80A51B" points="135.458,80.755 134.638,107.668 133.815,80.755 "/>
<path fill="#80A51B" d="M137.351,143.989c0,0-0.029-0.657-0.055-1.807c-0.016-1.152-0.067-2.797-0.075-4.766
	c-0.012-1.971-0.006-4.27,0.027-6.731c0.017-1.231,0.038-2.505,0.058-3.797c0.03-1.293,0.06-2.605,0.092-3.917
	c0.044-1.313,0.085-2.627,0.129-3.917c0.037-1.292,0.106-2.564,0.154-3.794c0.107-2.46,0.231-4.757,0.358-6.725
	c0.116-1.966,0.263-3.605,0.341-4.751c0.09-1.147,0.156-1.803,0.156-1.803s0.032,0.657,0.058,1.809
	c0.013,1.15,0.068,2.794,0.071,4.765c0.016,1.971,0.01,4.271-0.021,6.732c-0.022,1.229-0.024,2.504-0.061,3.795
	c-0.03,1.293-0.063,2.605-0.093,3.918c-0.043,1.313-0.088,2.624-0.131,3.915c-0.051,1.294-0.104,2.564-0.152,3.796
	c-0.107,2.46-0.233,4.756-0.36,6.723c-0.116,1.967-0.261,3.604-0.34,4.754C137.417,143.335,137.351,143.989,137.351,143.989z"/>
<path fill="#80A51B" d="M93.237,94.952c0,0,0.008,5.003,0.025,12.507c-0.031,7.502-0.068,17.502-0.109,27.505
	c-0.017,4.998-0.035,10.001-0.05,14.688c0.028,4.684,0.038,9.06,0.022,12.811c0.041,3.751,0.075,6.875,0.098,9.063
	c0.008,2.189,0.014,3.439,0.014,3.439s-0.083-1.248-0.227-3.433c-0.063-1.09-0.142-2.417-0.234-3.94
	c-0.086-1.522-0.203-3.239-0.278-5.115c-0.127-3.752-0.254-8.129-0.357-12.818c-0.021-2.347-0.042-4.771-0.062-7.232
	c-0.003-2.464-0.036-4.967-0.019-7.468c0.025-2.501,0.049-5.005,0.074-7.465c0.015-2.463,0.071-4.887,0.124-7.229
	c0.104-4.69,0.224-9.068,0.378-12.817c0.13-3.75,0.306-6.873,0.405-9.06c0.049-1.094,0.11-1.953,0.142-2.538
	C93.218,95.264,93.237,94.952,93.237,94.952z"/>
<path d="M99.496,204.715c-39.73,0-72.054-32.322-72.054-72.053c0-39.732,32.323-72.056,72.054-72.056s72.054,32.323,72.054,72.056
	C171.55,172.393,139.227,204.715,99.496,204.715z M99.496,73.864c-32.42,0-58.797,26.376-58.797,58.798
	c0,32.419,26.377,58.797,58.797,58.797c32.422,0,58.797-26.378,58.797-58.797C158.293,100.24,131.918,73.864,99.496,73.864z"/>
<circle fill="#FFFFFF" cx="99.498" cy="67.234" r="2.216"/>
<circle fill="#FFFFFF" cx="99.498" cy="198.087" r="2.216"/>
<circle fill="#FFFFFF" cx="66.784" cy="75.999" r="2.216"/>
<circle fill="#FFFFFF" cx="132.21" cy="189.322" r="2.216"/>
<circle fill="#FFFFFF" cx="42.835" cy="99.947" r="2.216"/>
<circle fill="#FFFFFF" cx="156.158" cy="165.375" r="2.215"/>
<path fill="#FFFFFF" d="M34.069,130.444c1.224,0,2.217,0.992,2.218,2.217c-0.001,1.224-0.994,2.215-2.217,2.215
	c-1.225,0.003-2.216-0.991-2.216-2.215C31.854,131.437,32.846,130.444,34.069,130.444z"/>
<circle fill="#FFFFFF" cx="164.923" cy="132.66" r="2.216"/>
<circle fill="#FFFFFF" cx="42.834" cy="165.375" r="2.216"/>
<circle fill="#FFFFFF" cx="156.157" cy="99.947" r="2.215"/>
<circle fill="#FFFFFF" cx="66.781" cy="189.323" r="2.216"/>
<circle fill="#FFFFFF" cx="132.209" cy="76" r="2.215"/>
<path fill="#80A51B" d="M153.872,131.103c0,0,0.037,0.344,0.108,0.989c0.031,0.322,0.07,0.722,0.117,1.189
	c0.059,0.466,0.088,1.005,0.096,1.615c0.017,0.613,0.035,1.291,0.055,2.028c-0.009,0.736-0.053,1.533-0.084,2.385
	c-0.032,0.854-0.146,1.754-0.225,2.713c-0.076,0.961-0.283,1.95-0.431,2.999c-0.176,1.042-0.44,2.112-0.68,3.234
	c-0.312,1.095-0.59,2.252-0.989,3.401c-0.731,2.327-1.743,4.702-2.908,7.105c-1.222,2.375-2.634,4.759-4.274,7.045
	c-1.652,2.278-3.515,4.455-5.516,6.499c-2.043,1.999-4.219,3.867-6.496,5.518c-2.283,1.645-4.671,3.053-7.043,4.276
	c-2.405,1.167-4.78,2.179-7.106,2.912c-1.151,0.397-2.308,0.674-3.404,0.986c-1.12,0.239-2.192,0.504-3.233,0.68
	c-1.05,0.149-2.037,0.354-2.998,0.432c-0.96,0.077-1.86,0.19-2.714,0.222c-0.854,0.031-1.649,0.075-2.385,0.085
	c-0.735-0.02-1.41-0.04-2.021-0.057c-1.215-0.004-2.168-0.175-2.815-0.215c-0.644-0.07-0.989-0.109-0.989-0.109
	s0.343-0.056,0.986-0.16c0.638-0.106,1.577-0.211,2.756-0.445c0.587-0.109,1.236-0.229,1.944-0.362
	c0.7-0.173,1.46-0.326,2.265-0.507c1.609-0.391,3.396-0.896,5.313-1.515c0.958-0.311,1.939-0.678,2.956-1.039
	c0.994-0.429,2.049-0.791,3.082-1.288c2.104-0.903,4.226-2.046,6.381-3.266c2.125-1.279,4.249-2.701,6.316-4.271
	c2.038-1.604,4.032-3.326,5.899-5.183c1.856-1.867,3.58-3.858,5.186-5.897c1.572-2.063,2.989-4.191,4.275-6.314
	c1.219-2.156,2.363-4.277,3.266-6.382c0.498-1.033,0.855-2.088,1.286-3.083c0.361-1.017,0.729-1.997,1.042-2.956
	c0.616-1.917,1.122-3.705,1.511-5.312c0.18-0.806,0.334-1.564,0.507-2.266c0.13-0.705,0.25-1.354,0.36-1.939
	c0.234-1.171,0.337-2.127,0.444-2.766C153.815,131.443,153.872,131.103,153.872,131.103z"/>
<path fill="#BAB8A8" d="M99.673,201.539c-27.275,0-54.689-2.55-81.5-7.576v-20.299c26.818,4.989,54.227,7.52,81.5,7.52
	s54.681-2.53,81.498-7.52v20.299C154.361,198.989,126.946,201.539,99.673,201.539L99.673,201.539z"/>
<path d="M99.672,179.529c-27.842,0-55.684-2.62-83.153-7.862c0,7.891,0,15.777,0,23.665c27.469,5.241,55.312,7.861,83.153,7.861
	c27.843,0,55.683-2.62,83.154-7.861c0-7.888,0-15.774,0-23.665C155.354,176.909,127.515,179.529,99.672,179.529z M179.516,192.584
	c-26.281,4.845-53.128,7.299-79.844,7.299c-26.715,0-53.563-2.454-79.844-7.299v-16.932c26.293,4.768,53.135,7.186,79.844,7.186
	c26.709,0,53.552-2.418,79.844-7.186V192.584z"/>
<path fill="#8BB31D" d="M99.672,179.529c-27.842,0-55.684-2.62-83.153-7.862c0,7.891,0,15.777,0,23.665
	c27.469,5.241,55.312,7.861,83.153,7.861c27.843,0,55.683-2.62,83.154-7.861c0-7.888,0-15.774,0-23.665
	C155.354,176.909,127.515,179.529,99.672,179.529z M180.719,193.586c-26.668,4.979-53.924,7.5-81.047,7.5
	c-27.122,0-54.379-2.521-81.048-7.5v-19.381c26.677,4.931,53.93,7.429,81.048,7.429c27.119,0,54.372-2.498,81.047-7.429V193.586z"/>
<path d="M16.268,196.635l-1.075-0.206v-1.097c0-7.888,0-15.774,0-23.665l0,0v-1.6l1.571,0.298
	c27.389,5.227,55.147,7.837,82.907,7.837l0,0c27.759,0,55.519-2.61,82.906-7.837l0,0l1.573-0.299v1.601c0,7.891,0,15.777,0,23.665
	l0,0v1.097l-1.077,0.206c-27.551,5.254-55.478,7.882-83.402,7.882l0,0C71.747,204.517,43.821,201.889,16.268,196.635L16.268,196.635
	z M99.672,201.87c27.396,0,54.792-2.544,81.83-7.635l0,0c0-6.99,0-13.98,0-20.97l0,0c-27.041,5.056-54.437,7.588-81.83,7.588l0,0
	c-27.395,0-54.788-2.529-81.831-7.588l0,0c0,6.989,0,13.979,0,20.97l0,0C44.881,199.323,72.275,201.87,99.672,201.87L99.672,201.87z
	"/>
<path d="M28.21,178.397c0,0-3.057-0.55-5.737-1.281c1.673,0.225,3.747,0.321,5.744-0.072c0,0-6.846-1.172-9.042-2.396l0.023,17.896
	c0,0,4.653,1.955,8.937,1.603c0,0-2.973-0.821-5.581-1.778c1.627,0.378,3.644,0.675,5.586,0.501c0,0-2.979-0.799-5.593-1.741
	c1.632,0.365,3.652,0.65,5.599,0.455c0,0-2.986-0.778-5.605-1.699c1.636,0.353,3.661,0.618,5.612,0.409c0,0-2.994-0.755-5.619-1.661
	c1.638,0.343,3.67,0.592,5.625,0.362c0,0-3-0.732-5.63-1.617c1.642,0.327,3.677,0.56,5.635,0.315c0,0-3.004-0.711-5.64-1.578
	c1.645,0.316,3.683,0.533,5.646,0.271c0,0-3.013-0.69-5.657-1.539c1.649,0.305,3.693,0.504,5.663,0.223c0,0-3.02-0.667-5.668-1.496
	c1.652,0.292,3.701,0.474,5.675,0.174c0,0-3.026-0.642-5.681-1.453c1.657,0.277,3.71,0.443,5.687,0.125c0,0-3.035-0.619-5.697-1.411
	c1.661,0.267,3.72,0.415,5.703,0.077c0,0-3.043-0.597-5.71-1.368c1.666,0.252,3.729,0.385,5.717,0.029c0,0-3.05-0.573-5.723-1.327
	C24.15,178.659,26.218,178.773,28.21,178.397z"/>
<path d="M171.214,178.397c0,0,3.057-0.55,5.735-1.281c-1.672,0.225-3.744,0.321-5.743-0.072c0,0,6.848-1.172,9.043-2.396
	l-0.023,17.896c0,0-4.654,1.955-8.938,1.603c0,0,2.974-0.821,5.583-1.778c-1.629,0.378-3.646,0.675-5.587,0.501
	c0,0,2.978-0.799,5.593-1.741c-1.631,0.365-3.653,0.65-5.601,0.455c0,0,2.985-0.778,5.604-1.699
	c-1.634,0.353-3.658,0.618-5.61,0.409c0,0,2.993-0.755,5.618-1.661c-1.64,0.343-3.669,0.592-5.624,0.362
	c0,0,2.999-0.732,5.629-1.617c-1.641,0.327-3.676,0.56-5.637,0.315c0,0,3.007-0.711,5.644-1.578
	c-1.646,0.316-3.685,0.533-5.648,0.271c0,0,3.015-0.69,5.657-1.539c-1.648,0.305-3.693,0.504-5.663,0.223
	c0,0,3.021-0.667,5.669-1.496c-1.653,0.292-3.7,0.474-5.675,0.174c0,0,3.023-0.642,5.679-1.453
	c-1.657,0.277-3.706,0.443-5.686,0.125c0,0,3.035-0.619,5.697-1.411c-1.661,0.267-3.721,0.415-5.705,0.077
	c0,0,3.043-0.597,5.713-1.368c-1.668,0.252-3.729,0.385-5.718,0.029c0,0,3.048-0.573,5.723-1.327
	C175.274,178.659,173.206,178.773,171.214,178.397z"/>
<path d="M36.771,183.04l-0.25,1.811l-0.661-0.091l-0.821,5.955l1.609,0.221l0.24-1.743l2.095,0.289l-0.492,3.566l-6.984-0.959
	l0.252-1.825l0.685,0.094l0.822-5.955l-0.687-0.095l0.25-1.811L36.771,183.04z"/>
<path d="M44.147,193.727l0.209-1.801l1.188,0.139l-0.154-0.968l-2.566-0.296l-0.371,0.902l0.976,0.114l-0.209,1.803l-3.979-0.461
	l0.209-1.802l0.852,0.097l2.388-5.844l-0.512-0.06l0.206-1.775l4.804,0.558l1.307,8.071l0.876,0.101l-0.208,1.802L44.147,193.727z
	 M45.119,189.392l-0.48-3.067L43.48,189.2L45.119,189.392z"/>
<path d="M58.646,192.059c0.058-0.383,0.292-1.045,0.602-1.714l1.399-2.913l-0.665-0.055l0.154-1.795l3.563,0.302l-0.153,1.797
	l-0.615-0.054l-3.685,7.598l-2.309-0.199l-2.653-8.137l-0.69-0.059l0.154-1.795l4.617,0.395l-0.154,1.794l-0.677-0.056l0.8,3.183
	c0.144,0.692,0.254,1.312,0.246,1.704L58.646,192.059z"/>
<path d="M71.546,186.399l-0.201,3.053l-2.174-0.145l0.081-1.229l-2.009-0.134l-0.125,1.908l2.386,0.158l-0.12,1.837l-2.387-0.157
	l-0.147,2.251l2.009,0.132l0.085-1.282l2.174,0.143l-0.206,3.122l-7.576-0.498l0.123-1.839l0.791,0.052l0.394-5.995l-0.791-0.054
	l0.12-1.823L71.546,186.399z"/>
<path d="M76.339,186.632c2.917,0.133,3.425,1.432,3.351,3.01c-0.05,1.077-0.865,1.803-1.917,1.921
	c0.861,0.179,1.603,1.045,1.556,2.041c-0.028,0.594,0.032,0.943,0.258,0.954c0.188,0.008,0.297-0.152,0.309-0.43l0.022-0.458
	l0.843,0.041l-0.035,0.764c-0.054,1.146-0.543,2.19-1.939,2.125c-1.648-0.075-2.396-1.066-2.321-2.685
	c0.06-1.261-0.065-1.571-1.185-1.624l-0.1,2.146l0.769,0.038l-0.085,1.824l-4.062-0.189l0.085-1.827l0.704,0.032l0.28-6.029
	l-0.704-0.032l0.084-1.812L76.339,186.632z M75.354,190.742l0.566,0.027c0.729,0.034,1.225-0.331,1.259-1.065
	c0.038-0.815-0.358-1.25-1.087-1.282l-0.629-0.029L75.354,190.742z"/>
<path d="M89.523,195.025c-0.883,1.014-2.216,1.894-3.864,1.851c-2.667-0.072-4.393-2.002-4.311-5.089
	c0.083-3.186,2.309-5.038,3.958-4.998c1.259,0.036,1.805,0.827,1.914,0.995l0.31-0.767l1.975,0.05l-0.103,3.935l-2.254-0.061
	c-0.012-0.901-0.394-1.757-1.287-1.78c-0.905-0.023-1.529,1.195-1.569,2.702c-0.035,1.372,0.574,2.621,1.77,2.652
	c1.057,0.027,1.919-1.168,2.036-1.304L89.523,195.025z"/>
<path d="M94.558,187.121l-0.022,1.828l-0.78-0.009l-0.066,6.009l0.779,0.011l-0.021,1.841l-4.18-0.047l0.021-1.842l0.793,0.009
	l0.067-6.009l-0.793-0.01l0.019-1.827L94.558,187.121z"/>
<path d="M104.108,188.875l0.051,7.893l-2.705,0.02l-3.247-5.256l0.022,3.49l0.97-0.006l0.012,1.785l-3.866,0.025l-0.01-1.788
	l0.741-0.002l-0.039-6.108l-0.731,0.005l-0.011-1.787l3.614-0.022l3.118,5.062l-0.021-3.297l-0.854,0.006l-0.014-1.787l3.792-0.023
	l0.013,1.787L104.108,188.875z"/>
<path d="M111.717,195.7c-0.261,0.518-1.026,1.027-1.996,1.059c-2.202,0.063-4.008-1.767-4.098-4.756
	c-0.091-3.018,1.749-5.148,3.712-5.207c1.826-0.056,2.281,0.873,2.49,1.087l0.233-1.004l1.875-0.057l0.123,4.084l-2.253,0.066
	c-0.071-1.119-0.745-1.736-1.489-1.715c-1.019,0.031-1.686,1.271-1.646,2.652c0.043,1.412,0.707,2.53,1.803,2.496
	c0.716-0.021,1.01-0.348,1.188-0.713l-0.02-0.581l-0.767,0.021l-0.044-1.479l4.179-0.126l0.044,1.48l-0.504,0.017l0.103,3.458
	l-2.517,0.076L111.717,195.7z"/>
<path d="M123.007,186.369l0.157,3.059l-2.175,0.111l-0.063-1.232l-2.015,0.104l0.1,1.91l2.392-0.122l0.094,1.837l-2.391,0.123
	l0.119,2.256l2.011-0.104l-0.066-1.285l2.175-0.114l0.162,3.128l-7.582,0.39l-0.097-1.838l0.794-0.042l-0.31-6.002l-0.797,0.039
	l-0.092-1.826L123.007,186.369z"/>
<path d="M132.251,189.318l-1.846,0.134l-0.129-1.767l-1.057,0.076l0.44,5.996l1.043-0.08l0.135,1.839l-4.671,0.342l-0.136-1.839
	l1.03-0.075l-0.44-5.992l-1.079,0.077l0.132,1.768l-1.848,0.136l-0.265-3.592l8.426-0.613L132.251,189.318z"/>
<path d="M132.854,190.461c-0.29-2.977,1.316-5.208,3.911-5.458c3.07-0.297,4.693,1.592,4.997,4.695
	c0.3,3.114-1.093,5.171-3.927,5.443C135.218,195.396,133.188,193.907,132.854,190.461z M138.629,190.001
	c-0.163-1.669-0.706-2.968-1.672-2.873c-0.764,0.06-1.174,1.324-1.006,3.033c0.174,1.808,0.873,2.895,1.677,2.816
	C138.416,192.902,138.793,191.709,138.629,190.001z"/>
<path d="M145.878,184.276c2.898-0.355,3.615,0.841,3.809,2.406c0.13,1.072-0.551,1.924-1.567,2.214
	c0.88,0.032,1.754,0.763,1.875,1.755c0.074,0.59,0.188,0.924,0.415,0.896c0.187-0.023,0.267-0.201,0.233-0.475l-0.054-0.454
	l0.836-0.103l0.093,0.757c0.14,1.141-0.168,2.253-1.555,2.422c-1.637,0.199-2.541-0.651-2.738-2.259
	c-0.153-1.251-0.327-1.538-1.438-1.401l0.258,2.13l0.765-0.093l0.221,1.815l-4.034,0.494l-0.223-1.814l0.699-0.085l-0.735-5.994
	l-0.698,0.084l-0.221-1.799L145.878,184.276z M145.598,188.495l0.562-0.069c0.725-0.088,1.152-0.53,1.062-1.258
	c-0.101-0.812-0.56-1.174-1.286-1.086l-0.624,0.077L145.598,188.495z"/>
<path d="M155.229,183.013l0.258,1.812l-0.773,0.106l0.851,5.954l0.774-0.11l0.259,1.823l-4.138,0.591l-0.262-1.822l0.787-0.114
	l-0.853-5.951l-0.782,0.112l-0.262-1.811L155.229,183.013z"/>
<path d="M157.486,192.495l-0.293-1.762l1.082-0.178l1.396-2.911l-2.812-3.033l-0.646,0.108l-0.295-1.775l4.918-0.813l0.296,1.776
	l-0.722,0.117l1.52,1.617l0.965-2.027l-1.093,0.179l-0.294-1.773l4.126-0.682l0.294,1.774l-1.057,0.176l-1.439,2.947l2.791,2.991
	l0.721-0.119l0.294,1.774l-4.956,0.821l-0.294-1.775l0.708-0.118l-1.175-1.238l-0.323-0.339l-0.984,2.002l1.105-0.183l0.291,1.762
	L157.486,192.495z"/>
<path d="M84.409,84.671c0-0.298-0.071-0.609-0.232-0.922l-1.178-2.32c-0.395-0.779-0.799-1.573-1.205-2.374l1.725-0.03l-2.148-0.809
	c-1.672-3.311-3.382-6.767-4.991-10.303l1.791,0.332L76,67.073c-2.151-4.793-4.1-9.729-5.502-14.651l1.592,0.841l-1.86-1.809
	c-1.238-4.579-1.984-9.139-1.966-13.554c0.015-3.533,0.573-6.873,1.546-10.048l0.863,2.169l-0.329-3.784
	c1.125-3.157,2.655-6.15,4.457-9.001c0.652-1.037,1.344-2.053,2.063-3.052l0.676,1.903l-0.122-2.665
	c3.423-4.614,7.455-8.858,11.458-12.858L89.444,0l0.114,0.793c2.024,13.972,4.762,27.839,8.542,41.399
	c3.781,13.558,8.596,26.814,14.777,39.563c0.366,0.754,0.554,1.511,0.583,2.266c0.093,2.248-1.192,4.42-3.189,6.354
	c-1.164,1.128-4.088,3.12-4.088,3.12s-12.114-7.667-24.327-5.172C81.855,88.322,84.409,85.33,84.409,84.671z"/>
<path fill="#80A51B" d="M83.483,77.56c0.976,0.539,1.868,0.957,2.677,1.266l0,0c0.832,0.317,1.585,0.522,2.269,0.625l1.63,0.248
	l-1.562,0.53c-0.979,0.333-2.401,0.178-3.695-0.021l0.463,0.917l0,0c0.272,0.546,0.55,1.096,0.832,1.652
	c0.324,0.639,0.47,1.267,0.47,1.872c-0.002,1.185-0.561,2.273-1.436,3.226l-0.053,0.055c2.068-0.033,4.134,0.093,6.178,0.374
	c4.405,0.61,8.71,1.944,12.72,3.981c1.73-0.966,3.355-2.074,4.642-3.264c1.68-1.551,2.765-3.229,2.698-4.878
	c-0.02-0.479-0.14-0.962-0.372-1.444c-6.014-12.401-10.787-25.34-14.562-38.578c-3.697-12.975-6.438-26.23-8.445-39.552
	c-1.828,1.875-3.504,3.693-5.032,5.463c-1.641,1.905-3.108,3.753-4.408,5.561c1.054,6.057,2.822,12.049,5.132,17.829
	c2.502,6.265,5.634,12.292,9.178,17.913l2.835,4.497l-3.479-4.02c-4.716-5.451-8.094-11.368-10.554-17.3
	c-2.31-5.582-3.805-11.175-4.833-16.4c-1.056,1.639-1.978,3.259-2.764,4.867c-0.9,1.837-1.622,3.661-2.181,5.489
	c1.27,5.136,3.496,10.118,6.197,14.854c2.728,4.784,5.937,9.322,9.131,13.528l4.201,5.536l-4.813-5.017
	c-3.858-4.021-7.487-8.602-10.394-13.301c-2.317-3.743-4.174-7.564-5.326-11.24c-0.089,0.558-0.163,1.117-0.222,1.676
	c-0.119,1.118-0.18,2.252-0.185,3.41c-0.009,2.088,0.167,4.227,0.516,6.445c0.345,2.197,0.865,4.475,1.542,6.852
	c1.817,2.1,3.781,4.075,5.838,5.949c2.075,1.895,4.253,3.69,6.477,5.412l3.031,2.345l-3.45-1.666
	c-4.543-2.19-7.852-5.026-10.409-7.396c0.497,1.417,1.039,2.866,1.627,4.348c0.788,1.985,1.667,4.055,2.631,6.223
	c1.239,0.771,2.484,1.507,3.736,2.21c1.293,0.726,2.609,1.426,3.939,2.105l2.444,1.246l-2.7-0.492
	c-2.708-0.498-4.572-1.209-5.934-1.803c0.523,1.131,1.056,2.26,1.595,3.384C81.982,74.5,82.712,75.997,83.483,77.56L83.483,77.56z"
	/>
<path fill="#ABC910" d="M83.483,77.56c0.976,0.539,1.868,0.957,2.677,1.266l0,0c0.832,0.317,1.585,0.522,2.269,0.625l1.63,0.248
	l-1.562,0.53c-0.798,0.272-1.896,0.219-2.978,0.08c-0.21,0.017-0.432,0.019-0.658,0.013l0.404,0.803l0,0
	c0.272,0.546,0.55,1.096,0.832,1.652c0.324,0.639,0.47,1.267,0.47,1.872c-0.002,1.185-0.561,2.273-1.436,3.226l-0.053,0.055
	c2.068-0.033,4.134,0.093,6.178,0.374c3.549,0.491,7.038,1.456,10.353,2.876c4.427-3.351,8.084-8.08,5.924-12.568
	c-5.978-12.421-9.402-21.354-13.177-34.591c-3.521-12.351-6.172-24.965-8.151-37.643c-1.169,1.243-2.267,2.458-3.3,3.654
	c-1.641,1.905-3.108,3.753-4.408,5.561c1.054,6.057,2.822,12.049,5.132,17.829c2.502,6.265,5.634,12.292,9.178,17.913l2.835,4.497
	l-3.479-4.02c-1.778-2.055-3.366-4.175-4.786-6.337c1.085,1.96,2.222,3.884,3.404,5.76l2.835,4.502l-3.479-4.021
	c-4.718-5.452-8.096-11.368-10.553-17.303c-1.938-4.681-3.303-9.37-4.299-13.845c-0.458,0.807-0.883,1.61-1.274,2.412
	c-0.9,1.837-1.622,3.661-2.181,5.489c1.27,5.136,3.496,10.118,6.197,14.854c2.728,4.784,5.937,9.322,9.131,13.528l4.201,5.536
	l-4.813-5.017c-2.162-2.255-4.253-4.684-6.186-7.211c1.553,2.275,3.166,4.477,4.772,6.593l4.201,5.54l-4.813-5.02
	c-3.859-4.021-7.485-8.602-10.395-13.3c-1.421-2.301-2.673-4.63-3.691-6.935c-0.008,0.291-0.013,0.583-0.015,0.879
	c-0.009,2.088,0.167,4.227,0.516,6.445c0.345,2.197,0.865,4.475,1.542,6.852c1.817,2.1,3.781,4.075,5.838,5.949
	c2.075,1.895,4.253,3.69,6.477,5.412l3.031,2.345l-3.45-1.666c-0.632-0.306-1.241-0.621-1.823-0.946l0.217,0.168l3.032,2.342
	l-3.451-1.661c-2.981-1.438-5.43-3.154-7.484-4.832c0.236,0.621,0.477,1.248,0.728,1.881c0.788,1.985,1.667,4.055,2.631,6.223
	c1.239,0.771,2.484,1.507,3.736,2.21c1.293,0.726,2.609,1.426,3.939,2.105l2.444,1.246l-2.7-0.492l-0.16-0.031l0.836,0.428
	l-2.702-0.495c-1.38-0.253-2.541-0.562-3.527-0.883c0.4,0.855,0.804,1.711,1.213,2.562C81.982,74.5,82.712,75.997,83.483,77.56
	L83.483,77.56z"/>
<path d="M123.246,184.487c0,0,5.249-4.726,5.532-5.088c0,0,1.565-2.058,2.341-3.796c0,0,3.311-8.275,2.988-11.425
	c0,0-1.897-8.318-1.979-8.481l-0.768-1.656c0,0,5.669-12.704,2.651-31.652c0,0,0.486-2.316,0.27-3.284c0,0-0.863-0.378-1.507-0.486
	l-0.216-2.638c0,0,8.506,1.186,13.19,3.715c0,0,1.774,1.187,5.49-0.159c0,0,9.69-1.077,10.229-1.133c0,0,0.485-0.538-0.646-0.913
	c0,0-17.066-8.776-24.118-17.337c0,0-32.721-33.344-75.478-12.811c0,0-0.815,2.884-3.822,5.114
	c-15.498,17.698-8.345,47.213-8.345,47.213l1.293,3.93c0.752,0.539,2.959,1.966,2.959,1.966s17.605,14.779,45.87,25.275
	c0,0,9.753,3.129,22.188,14.797C121.37,185.637,121.984,185.709,123.246,184.487z"/>
<path d="M99.013,90.606c-8.977-10.533-17.062-21.727-24.419-33.388c-9.02-14.295-16.95-29.299-24.092-44.675l-0.405-0.87
	l-0.457,0.846c-3.304,6.123-6.553,12.549-8.914,19.203l1.081,2.88l-1.433-1.866c-0.429,1.261-0.824,2.529-1.181,3.807
	c-1.104,3.953-1.836,7.974-2.029,12.049l1.538,4.104l-1.592-2.072c-0.008,3.938,0.502,7.924,1.687,11.94
	c1.442,4.895,3.747,9.694,6.594,14.363l3.312,1.801l-2.512-0.515c3.201,5.047,7.009,9.935,11.013,14.604l4.258,1.101l-3.189,0.139
	c2.956,3.393,5.999,6.667,8.962,9.803l2.955,0.558l-1.953,0.499c0.525,0.553,1.047,1.102,1.564,1.646c0,0,7.704,2.651,2.27,11.279
	c0,0,9.301-5.159,21.05,2.699c0,0,7.194-4.273,11.373-10.929c4.18-6.658,0,0,0,0s2.907-3.687,2.533-7.843
	c0,0,0.201-1.671-1.708-3.71C103.042,95.631,99.013,90.606,99.013,90.606z"/>
<polygon fill="#1C120B" points="52.75,32.731 52.735,32.613 52.649,32.696 52.175,32.204 53.243,31.176 53.428,32.646 "/>
<path fill="#80A51B" d="M69.967,102.935c1.309,0.284,2.476,0.458,3.515,0.532l0.003,0.001c1.062,0.08,2,0.054,2.821-0.062
	l1.96-0.276l-1.613,1.148c-1.012,0.72-2.7,1.033-4.26,1.248l0.849,0.9l0,0c0.503,0.529,1.011,1.068,1.527,1.608
	c0.591,0.626,0.977,1.297,1.184,1.995c0.407,1.362,0.143,2.808-0.54,4.2c-0.164,0.335-0.351,0.668-0.562,0.995
	c5.741-1.036,13.109-0.412,17.067,3.202c1.563-1.046,3.276-2.393,4.925-3.904c2.343-2.15,4.542-4.631,5.982-7.064
	c1.394-2.366,2.063-4.671,1.421-6.542c-0.189-0.544-0.493-1.059-0.926-1.533C92.13,87.19,82.182,73.953,73.279,60.026
	C64.552,46.38,56.834,32.076,49.938,17.448c-1.458,2.787-2.76,5.452-3.908,8.019c-1.23,2.754-2.283,5.383-3.154,7.912
	c3.299,6.606,7.4,12.883,12.048,18.742c5.034,6.339,10.717,12.192,16.727,17.436l4.811,4.195l-5.388-3.425
	c-7.302-4.641-13.229-10.285-18.099-16.263c-4.583-5.623-8.23-11.54-11.21-17.197c-0.65,2.251-1.151,4.43-1.502,6.552
	c-0.403,2.424-0.606,4.769-0.614,7.065c3.228,5.475,7.505,10.435,12.243,14.95c4.784,4.562,10.042,8.678,15.161,12.414l6.739,4.922
	l-7.265-4.114C60.703,75.36,54.953,71.342,49.99,66.94c-3.955-3.509-7.408-7.261-9.997-11.092c0.087,0.672,0.196,1.339,0.32,2.005
	c0.248,1.324,0.569,2.651,0.964,3.984c0.708,2.405,1.647,4.805,2.813,7.235c1.155,2.409,2.536,4.849,4.136,7.351
	c2.813,1.787,5.752,3.384,8.763,4.832c3.038,1.461,6.163,2.775,9.314,3.99l4.296,1.653l-4.544-0.726
	c-5.979-0.956-10.762-3.076-14.52-4.921c1.058,1.457,2.183,2.936,3.369,4.441c1.59,2.011,3.316,4.09,5.172,6.25
	c1.689,0.461,3.376,0.875,5.06,1.254c1.736,0.386,3.489,0.742,5.255,1.062l3.244,0.594l-3.277,0.361
	c-3.286,0.363-5.676,0.188-7.45-0.029c0.994,1.124,1.995,2.237,3.001,3.345C67.186,99.935,68.541,101.405,69.967,102.935
	L69.967,102.935z"/>
<path fill="#ABC910" d="M69.967,102.935c1.309,0.286,2.476,0.458,3.515,0.532l0.003,0.001c1.062,0.08,2,0.054,2.821-0.062
	l1.96-0.276l-1.613,1.15c-0.826,0.586-2.106,0.903-3.396,1.116c-0.24,0.091-0.492,0.172-0.756,0.245l0.741,0.786l0,0
	c0.503,0.529,1.011,1.072,1.527,1.608c0.591,0.626,0.977,1.297,1.184,1.995c0.407,1.363,0.143,2.808-0.54,4.2
	c-0.164,0.335-0.351,0.67-0.562,0.998c5.263-0.952,11.895-0.508,16.012,2.359c5.783-5.364,12.643-15.68,7.124-21.73
	C86.834,83.632,79.817,74.54,70.915,60.614c-8.307-12.996-15.703-26.588-22.349-40.489c-0.916,1.831-1.759,3.609-2.537,5.342
	c-1.23,2.754-2.283,5.383-3.154,7.912c3.299,6.606,7.4,12.884,12.048,18.742c5.034,6.341,10.717,12.192,16.727,17.436l4.811,4.198
	l-5.388-3.427c-2.753-1.749-5.309-3.642-7.69-5.641c1.925,1.883,3.897,3.705,5.904,5.456l4.811,4.197l-5.388-3.425
	C61.408,66.271,55.483,60.63,50.61,54.65c-3.841-4.715-7.028-9.64-9.712-14.443c-0.248,1.085-0.461,2.157-0.635,3.214
	c-0.403,2.422-0.606,4.767-0.614,7.063c3.228,5.475,7.505,10.435,12.243,14.95c4.784,4.563,10.042,8.678,15.161,12.414l6.739,4.922
	l-7.265-4.114c-3.262-1.848-6.504-3.923-9.598-6.164c2.57,2.082,5.182,4.059,7.761,5.94l6.739,4.922l-7.264-4.114
	c-5.824-3.295-11.576-7.315-16.538-11.717c-2.431-2.155-4.671-4.404-6.637-6.704c0.09,0.337,0.186,0.678,0.286,1.016
	c0.708,2.405,1.647,4.807,2.812,7.235c1.156,2.409,2.536,4.849,4.137,7.351c2.813,1.788,5.752,3.384,8.763,4.832
	c3.038,1.463,6.163,2.775,9.314,3.99l4.296,1.653l-4.544-0.726c-0.831-0.132-1.639-0.287-2.423-0.461l0.308,0.12l4.294,1.65
	l-4.543-0.724c-3.923-0.628-7.331-1.755-10.272-2.979c0.484,0.633,0.979,1.27,1.485,1.914c1.59,2.011,3.316,4.09,5.172,6.25
	c1.689,0.461,3.376,0.875,5.06,1.254c1.736,0.386,3.489,0.742,5.255,1.064l3.244,0.592l-3.277,0.361l-0.196,0.022l1.109,0.202
	l-3.277,0.363c-1.676,0.185-3.116,0.228-4.361,0.2c0.756,0.847,1.514,1.689,2.276,2.528
	C67.186,99.935,68.541,101.405,69.967,102.935L69.967,102.935z"/>
<path fill="#80A51B" d="M85.629,99.625c-1.777-0.707,1.375,0.917,3.784,2.4c1.803,1.11,6.616,4.026,8.878,7.111
	c3.231-3.479,3.986-6.488,3.532-8.864c-0.072-0.018-0.144-0.039-0.213-0.055c-2.037-0.499-10.777-2.692-13.953-3.64
	c-3.175-0.948,4.157,1.817,5.587,2.205c1.429,0.387,8.393,2.101,7.87,2.092c-0.521-0.006-4.051,0.59-5.514,0.525
	c-2.491-0.114-5.062-1.025-5.062-1.025s5.491,3.001,5.208,2.969C95.464,103.315,87.407,100.331,85.629,99.625z"/>
<path fill="#87867E" d="M109.771,146.771l17.709,9.792l3.843-2.192c0,0,5.84-11.677,2.968-32.356c0,0-13.974-3.348-23.333-2.114
	c0,0-3.847-0.006-4.623,4.507l-1.812,9.901c0,0-1.026,2.163,1.713,4.519l3.564,3.359c0,0,1.331,0.76,0.655,1.836L109.771,146.771z"
	/>
<path fill="#FAFAFB" d="M106.073,129.271c0.032-0.221-1.076,6.011-1.076,6.011s-0.232,2.228,2.534,3.531
	C107.531,138.812,104.991,136.51,106.073,129.271z"/>
<path fill="#D6D6D6" d="M122.448,153.781l3.418-33.323c-0.348-0.115-5.262-0.608-5.262-0.608l-3.502,30.975L122.448,153.781z"/>
<path fill="#D6D6D6" d="M114.585,149.433c0.608-5.33,1.221-10.705,1.827-16.052c0.543-4.794,1.064-9.448,1.541-13.698l1.841,0.104
	c-1.026,9.227-2.286,20.312-3.464,30.611L114.585,149.433z"/>
<path opacity="0.6" fill="#FFFFFF" d="M121.271,153.129c1.317-11.517,2.66-23.349,3.707-32.805l-0.785-0.093
	c-0.578,5.222-1.195,10.718-1.908,17.012c-0.576,5.105-1.175,10.369-1.759,15.473L121.271,153.129z"/>
<path d="M122.921,128.562c-0.048,1.164,0.249-0.978,0.612-2.663c0.273-1.261,0.976-4.619,2.292-6.547
	c-2.661-1.146-4.548-0.968-5.823-0.226c0.003,0.047,0.006,0.091,0.013,0.134c0.127,1.271,0.64,6.739,0.738,8.756
	c0.102,2.018,0.204-2.758,0.137-3.657c-0.069-0.899-0.497-5.248-0.396-4.946c0.103,0.3,1.161,2.208,1.423,3.06
	c0.441,1.453,0.438,3.118,0.438,3.118s0.613-3.766,0.652-3.598C123.047,122.163,122.968,127.398,122.921,128.562z"/>
<path fill="#FAFAFB" d="M106.803,125.611c0,0-0.153-5.452,5.458-4.914C112.261,120.697,107.649,121.773,106.803,125.611z"/>
<path d="M124.096,143.971c0.24-1.379-0.454,1.124-1.16,3.071c-0.529,1.458-1.905,5.344-3.784,7.427
	c2.984,1.794,5.26,1.886,6.896,1.205c0.005-0.055,0.01-0.108,0.013-0.161c0.05-1.534,0.32-8.129,0.526-10.545
	c0.204-2.418-0.684,3.25-0.749,4.333s-0.256,6.33-0.328,5.956c-0.07-0.375-1.029-2.816-1.199-3.875
	c-0.293-1.805-0.02-3.783-0.02-3.783s-1.337,4.386-1.357,4.182C122.913,151.568,123.852,145.348,124.096,143.971z"/>
<path fill="#363631" d="M93.174,82.941c-0.135-0.004-0.209-0.005-0.209-0.005l0.118,0.146
	C93.113,83.036,93.143,82.988,93.174,82.941z"/>
<path fill="#363631" d="M155.654,115.654c-4.087-2.101-12.788-6.858-16.662-11.143c-0.995,0.044-2.114,0.344-2.596,0.471
	c-0.79,0.209-1.761,0.542-1.257,0.314c0.499-0.228,2.729-1.302,2.791-1.352c0.062-0.054-1.661,0.495-1.661,0.495
	s0.702-0.351,1.219-0.835c0.114-0.107,0.266-0.291,0.417-0.483c-0.046-0.066-0.093-0.134-0.133-0.202c0,0-0.033-0.028-0.093-0.078
	c-0.477,0.292-1.026,0.633-1.212,0.744c-0.367,0.219-2.405,1.185-1.575,0.718c0.566-0.318,1.768-1.053,2.636-1.59
	c-1.413-1.192-8.792-7.353-14.259-10.693c0.616,1.25,1.286,2.35,1.646,2.942c0.935,1.545,2.259,3.391,1.447,2.467
	c-0.812-0.921-4.554-4.99-4.709-5.088c-0.152-0.104,2.097,3.206,2.097,3.206s-1.205-1.275-2.615-2.081
	c-0.166-0.095-0.392-0.2-0.643-0.31c0.622,0.989,1.354,2.159,2.148,3.439c1.175,1.25,2.745,3.02,1.598,1.926
	c-0.253-0.243-0.582-0.548-0.961-0.892c3.17,5.152,7.076,11.749,9.117,16.114c0,0,9.929,1.619,14.303,3.394
	c0.245,0.099,0.491,0.184,0.739,0.26c-1.325-1.585-2.628-2.92-3.354-3.672c-2.064-2.135-4.859-4.615-3.227-3.425
	c1.637,1.191,9.115,6.368,9.399,6.475c0.281,0.106-4.538-4.383-4.538-4.383s2.399,1.614,4.941,2.411
	C151.802,115.158,154.3,115.464,155.654,115.654z"/>
<path fill="#3C3C37" d="M151.404,114.991c-0.394-0.229-0.83-0.493-1.299-0.779c-1.94-1.09-5.139-2.825-6.037-3.336
	c-1.367-0.775-8.154-5.541-5.144-3.724c1.003,0.602,2.602,1.512,4.36,2.497c-2.17-1.619-4.195-3.358-5.504-4.989
	c-0.58,0.109-1.098,0.246-1.385,0.322c-0.79,0.209-1.761,0.542-1.257,0.314c0.355-0.163,1.585-0.752,2.287-1.096
	c-0.022-0.035-0.044-0.066-0.067-0.1c-0.48,0.146-1.09,0.339-1.09,0.339s0.467-0.234,0.918-0.583
	c-0.083-0.125-0.157-0.248-0.23-0.368c0,0-0.044-0.047-0.122-0.125c-0.162,0.098-0.294,0.179-0.367,0.223
	c-0.367,0.219-2.405,1.185-1.575,0.718c0.397-0.226,1.114-0.655,1.805-1.077c-0.922-0.919-4.18-4.09-7.914-6.868
	c0.506,1.165,0.977,2.148,1.281,2.787c1.263,2.649,3.107,5.847,1.941,4.225c-1.16-1.623-6.566-8.794-6.801-8.98
	c-0.232-0.189,2.873,5.528,2.873,5.528s-1.749-2.256-3.905-3.776c-0.299-0.214-0.73-0.464-1.219-0.724
	c1.411,2.317,3.3,5.474,5.123,8.67c0.777,1.074,1.21,1.739,0.612,1.083c1.647,2.924,3.186,4.933,4.198,7.166
	c0,0,3.465,0.584,6.974,1.417c-0.259-0.274-0.491-0.511-0.684-0.709c-2.063-2.138-4.858-4.619-3.223-3.428
	c1.085,0.794,4.746,3.343,7.166,4.999c0.403,0.121,0.79,0.246,1.153,0.37c-1.347-1.301-3.461-3.271-3.461-3.271
	s1.226,0.822,2.852,1.583c-1.997-2.021-4.334-4.111-2.809-2.999c0.894,0.651,3.536,2.494,5.79,4.047
	c0.43,0.089,0.919,0.175,1.418,0.252c-1.16-1.101-2.347-2.207-2.347-2.207s2.399,1.614,4.941,2.411
	C150.869,114.867,151.123,114.932,151.404,114.991z"/>
<path fill="#363631" d="M130.114,113.968c-0.956-0.793-2.084-1.719-2.455-2.032c-0.714-0.606-4.145-4.152-2.583-2.756
	c0.926,0.83,2.857,2.448,4.492,3.798c-0.896-1.621-2.294-4.144-3.836-6.874c-3.266,0.298-6.612,1.154-8.161,1.544
	c-2.938,0.735-6.536,1.924-4.669,1.104c1.867-0.815,10.158-4.689,10.392-4.879c0.232-0.188-6.169,1.763-6.169,1.763
	s2.614-1.266,4.549-3.04c0.351-0.32,0.794-0.829,1.256-1.393c-0.252-0.435-0.5-0.86-0.746-1.281l-0.351-0.596
	c-1.862-3.158-3.489-5.764-4.224-6.553c-5.462-5.889-13.458-8.255-18.848-9.204c1.117,1.355,2.29,2.52,2.902,3.133
	c1.493,1.498,3.512,3.23,2.334,2.401c-1.176-0.829-6.556-4.431-6.759-4.502c-0.203-0.074,3.279,3.066,3.279,3.066
	s-1.727-1.119-3.544-1.659c-0.42-0.123-1.095-0.232-1.785-0.328l1.446,1.783c0.7,0.368,1.295,0.684,1.578,0.837
	c0.981,0.537,5.868,3.849,3.704,2.592c-0.975-0.564-2.727-1.512-4.489-2.453l6.261,7.715c4.314,2.656,4.108,6.207,4.108,6.207
	c0.325,6.526-8.956,13.333-11.57,15.117c1.104-0.073,2.193-0.297,2.721-0.401c1.089-0.217,2.432-0.589,1.732-0.322
	c-0.699,0.267-3.813,1.536-3.902,1.604c-0.088,0.064,2.295-0.537,2.295-0.537s-0.983,0.418-1.726,1.034
	c-0.223,0.182-0.552,0.554-0.841,0.892c0.35-0.09,0.817-0.208,1.432-0.365c0.349-0.187,0.648-0.346,0.792-0.421
	c0.515-0.265,3.359-1.405,2.194-0.842c-0.447,0.214-1.178,0.593-1.947,1c1.743-0.445,4.323-1.1,8.099-2.058
	c6.606-1.677,15.12-0.784,19.874-0.042c-0.759-1.788-1.906-3.54-2.425-4.342c-0.962-1.48-2.312-3.248-1.491-2.367
	c0.82,0.878,4.604,4.744,4.76,4.841c0.151,0.093-2.149-3.078-2.149-3.078s1.222,1.212,2.622,1.963
	c0.505,0.266,1.526,0.607,2.31,0.869v-0.087C130.576,114.816,130.41,114.511,130.114,113.968z"/>
<path fill="#3C3C37" d="M128.267,114.034c0.198,0.103,0.478,0.221,0.793,0.34l-1.818-2.825c-1.128-1.087-3.515-3.579-2.165-2.369
	c0.356,0.321,0.867,0.763,1.45,1.256l-2.088-3.25c-3.532-0.13-6.869,0.743-8.794,1.225c-2.938,0.735-8.326,2.364-6.458,1.544
	c1.866-0.817,10.159-4.689,10.393-4.879c0.231-0.188-6.168,1.762-6.168,1.762s2.611-1.265,4.548-3.039
	c0.725-0.665,1.859-2.142,2.692-3.227l-0.316-0.554c-1.886,1.104-5.224,3.129-6.156,3.67c-0.713,0.417-3.146,1.574-4.845,2.337
	c-0.317,0.901-3.617,6.996-10.831,11.137c0.172-0.033,0.325-0.062,0.445-0.086c1.089-0.217,2.432-0.589,1.732-0.322
	c-0.58,0.222-2.814,1.129-3.613,1.474v0.08c0.5-0.111,1.515-0.363,1.875-0.453c3.742-1.504,13.049-4.234,27.503-1.928
	c-0.699-1.379-1.509-2.612-1.92-3.25c-0.962-1.48-2.312-3.248-1.491-2.367c0.82,0.878,4.604,4.744,4.76,4.841
	c0.151,0.093-2.149-3.078-2.149-3.078S126.866,113.283,128.267,114.034z"/>
<path fill="#3C3C37" d="M119.983,99.405l-1.889-3.302c0,0-3.479-6.469-13.395-9.818c0.774,0.921,1.463,1.686,1.916,2.194
	c1.978,2.212,4.669,4.796,3.083,3.545c-1.585-1.251-8.847-6.708-9.126-6.824c-0.276-0.117,4.354,4.549,4.354,4.549
	s-2.33-1.702-4.839-2.592c-0.067-0.026-0.138-0.046-0.213-0.071c0.377,0.343,0.643,0.58,0.643,0.58s-0.571-0.369-1.397-0.783
	c-0.393-0.097-0.829-0.187-1.277-0.276c0.612,0.818,1.348,1.795,2.1,2.786c0.232,0.152,0.469,0.311,0.701,0.466
	c0.431,0.259,0.784,0.472,0.997,0.605c1.338,0.829,7.93,5.84,4.989,3.915c-1.202-0.787-3.292-2.075-5.471-3.396
	c1.525,1.979,2.859,3.649,3.027,3.651c0.352,0.009,7.016,5.033,5.271,11.008C112.361,103.991,117.283,101.038,119.983,99.405z"/>
<path fill="#87867E" d="M123.298,91.934c0,0,12.972,9.093,14.607,11.187l-1.636,1.319l1.426-0.254l-2.556,1.111l3.853-0.785
	c0,0,5.78,5.699,16.662,11.143l-4.25-0.663c0,0-12.111-6.424-13.062-8.177l4.794,2.738c0,0-4.679-3.613-4.833-4.161l-5.515,0.62
	l3.957-2.701L123.298,91.934z"/>
<path fill="#87867E" d="M122.93,101.203c0,0-4.063-7.284-5.32-8.43c0,0-6.578-7.646-19.017-9.181l5.858,5.734
	c0,0-3.461-4.018-3.575-4.018c-0.115,0,9.205,7.085,9.205,7.085l-5.137-6.098C104.943,86.294,114.76,88.923,122.93,101.203z"/>
<path fill="#ABC910" d="M94.305,119.522c-0.115,5.838-5,10.481-10.914,10.372s-10.617-4.934-10.503-10.771
	c0.117-5.836,5.001-10.48,10.917-10.372C89.717,108.862,94.42,113.683,94.305,119.522z"/>
<path d="M83.372,130.939c-6.495-0.123-11.678-5.43-11.554-11.835c0.126-6.403,5.512-11.517,12.007-11.396
	c6.495,0.12,11.677,5.43,11.552,11.833C95.251,125.946,89.867,131.059,83.372,130.939z M83.784,109.793
	c-5.313-0.096-9.72,4.098-9.824,9.351c-0.102,5.254,4.138,9.611,9.452,9.708c5.313,0.099,9.72-4.095,9.823-9.349
	C93.337,114.248,89.097,109.893,83.784,109.793z"/>
<path fill="#C8D64F" d="M83.878,119.243c-2.677-1.994-5.059-2.248-6.932-1.861c-0.091,0.417-0.146,0.848-0.156,1.29
	c-0.071,3.717,2.922,6.786,6.686,6.856c3.455,0.064,6.351-2.423,6.86-5.704C88.448,120.619,86.176,120.713,83.878,119.243z"/>
<path fill="#80A51B" d="M86.607,119.292c-0.033,1.641-1.405,2.944-3.066,2.916c-1.661-0.032-2.982-1.387-2.947-3.026
	c0.03-1.639,1.404-2.942,3.064-2.911C85.318,116.301,86.639,117.654,86.607,119.292z"/>
<ellipse transform="matrix(0.9998 0.0182 -0.0182 0.9998 2.0664 -1.5028)" fill="#80A51B" cx="83.722" cy="112.946" rx="1.505" ry="1.486"/>
<ellipse transform="matrix(0.0197 -0.9998 0.9998 0.0197 -43.3943 193.9842)" fill="#80A51B" cx="77.228" cy="119.122" rx="1.485" ry="1.502"/>
<ellipse transform="matrix(-0.9998 -0.0185 0.0185 -0.9998 164.617 252.5805)" fill="#80A51B" cx="83.477" cy="125.529" rx="1.504" ry="1.484"/>
<ellipse transform="matrix(-0.0201 0.9998 -0.9998 -0.0201 211.1085 31.7976)" fill="#80A51B" cx="89.971" cy="119.357" rx="1.485" ry="1.503"/>
<path fill="#363631" d="M130.777,160.032l-3.564,0.15l-19.573-11.511l0.347-1.186c-1.405,0.227-2.83,0.703-3.488,0.917
	c-1.247,0.411-2.768,1.039-1.987,0.623c0.785-0.414,4.247-2.356,4.341-2.443c0.094-0.093-2.61,0.952-2.61,0.952
	s1.091-0.632,1.87-1.468c0.28-0.3,0.703-0.941,1.023-1.437c-0.088-0.058-0.18-0.12-0.271-0.184
	c-0.796,0.554-2.029,1.435-2.391,1.683c-0.563,0.388-3.732,2.141-2.449,1.309c0.993-0.645,3.242-2.232,4.573-3.181
	c-2.145-1.54-5.122-4.397-3.976-7.797l0.34-2.137c-0.559-3.226-1.267-7.149-1.348-7.329c-0.124-0.273,0.038,6.302,0.038,6.302
	s-0.538-2.817-1.779-5.146c-0.729-1.364-3.195-4.261-3.47-4.737c-0.276-0.478,1.886,6.758,2.297,8.262
	c0.412,1.503,1.79,9.628,0.958,6.242c-0.83-3.389-3.504-12.494-4.141-14.609c-0.02-0.067-0.039-0.137-0.057-0.207
	c-0.321,1.052-1.638,4.733-4.909,6.944c0.054,0.155,0.106,0.293,0.145,0.402c0.374,1.027,0.943,2.278,0.569,1.636
	c-0.171-0.297-0.631-1.057-1.088-1.799c-0.105,0.064-0.213,0.128-0.32,0.188c0.05,0.122,0.083,0.198,0.083,0.198
	s-0.044-0.066-0.121-0.177c-0.267,0.145-0.543,0.284-0.834,0.411c0.55,0.854,1.512,2.473,0.899,1.603
	c-0.251-0.355-0.666-0.908-1.121-1.51c-2.133,0.871-4.882,1.113-8.404,0.076c0,0-1.454-0.478-3.182-1.621
	c-0.421,0.212-0.775,0.407-1.007,0.535c-0.974,0.536-2.142,1.296-1.557,0.828c0.328-0.26,1.276-1.052,2.061-1.712
	c-0.082-0.06-0.164-0.119-0.247-0.181c-0.341,0.209-0.615,0.377-0.615,0.377s0.215-0.187,0.491-0.475
	c-0.233-0.178-0.468-0.367-0.699-0.568c-0.673,0.607-2.501,2.111-1.66,1.306c0.344-0.33,0.891-0.879,1.472-1.474
	c-3.291-2.969-6.193-8.431-1.267-17.588L62.785,99.015c-1.1,3.084-1.676,6.524-1.946,8.096c-0.51,2.931-0.858,6.645-0.87,4.637
	c-0.015-2.013-0.292-11.039-0.379-11.325c-0.082-0.285-0.861,6.247-0.861,6.247s-0.128-2.864-1.024-5.336
	c-0.317-0.865-1.166-2.353-1.842-3.521c-0.203,0.324-0.414,0.672-0.628,1.05c0.292,2.147,0.695,4.924,0.803,5.801
	c0.194,1.547,0.399,9.779,0.062,6.312c-0.23-2.339-0.919-7.369-1.442-11.062c-1.997,3.784-4.252,9.706-5.251,18.2
	c1.233,0.397,2.672,0.567,3.307,0.645c1.111,0.138,2.513,0.208,1.755,0.242c-0.755,0.035-4.149,0.27-4.255,0.304
	c-0.106,0.035,2.364,0.214,2.364,0.214s-1.077,0.09-1.994,0.446c-0.356,0.14-0.997,0.528-1.439,0.797
	c-0.007,0.07-0.014,0.143-0.021,0.214c0.776-0.122,2.325-0.4,2.738-0.468c0.579-0.093,3.674-0.287,2.374-0.113
	c-1.118,0.148-3.862,0.629-5.13,0.854c-0.39,5.215-0.309,11.29,0.527,18.312c0.554-0.933,0.985-1.812,1.227-2.301
	c0.673-1.355,1.38-3.114,1.095-2.134c-0.285,0.979-1.457,5.406-1.457,5.555c-0.001,0.151,1.323-2.918,1.323-2.918
	s-0.352,1.41-0.275,2.736c0.039,0.649,0.41,2.037,0.546,2.635c0.035,0.023,0.066,0.051,0.102,0.077
	c0.145-0.741,0.537-3.456,0.644-4.102c0.129-0.777,1.224-4.809,0.887-3.076c-0.325,1.667-0.989,6.127-1.176,7.439
	c5.855,4.36,20.411,14.732,34.445,21.06c-0.027-0.061-0.056-0.115-0.082-0.178c1.479-0.322,3.299-1.57,3.99-2.034
	c0.921-0.621,2.011-1.483,1.471-0.964c-0.54,0.518-2.901,2.9-2.955,2.996c-0.058,0.096,1.903-1.379,1.903-1.379
	s-0.739,0.766-1.175,1.627c-0.126,0.253-0.272,0.703-0.4,1.12c0.121,0.05,0.241,0.101,0.362,0.15
	c0.504-0.626,1.154-1.444,1.362-1.697c0.368-0.444,2.535-2.604,1.686-1.633c-0.614,0.708-1.925,2.34-2.795,3.432
	c2.614,1.058,5.183,1.942,7.646,2.589c0,0,16.802,7.996,22.208,13.684c0.187-1.402,0.164-2.833,0.158-3.519
	c-0.015-1.403-0.169-3.156,0.009-2.224c0.177,0.935,1.079,5.104,1.141,5.229c0.062,0.129-0.132-2.969-0.132-2.969
	s0.304,1.319,0.932,2.395c0.191,0.33,0.617,0.852,0.999,1.304c0.121-0.104,0.241-0.213,0.368-0.325
	c-0.32-0.979-0.751-2.257-0.879-2.661c-0.222-0.702-1.019-4.511-0.564-2.927c0.323,1.138,1.152,3.647,1.718,5.337
	c2.954-2.713,7.563-7.969,8.062-14.677L130.777,160.032z"/>
<path fill="#3C3C37" d="M80.327,136.622c-1.079,0.287-2.405,0.747-1.717,0.433c0.685-0.312,3.73-1.792,3.814-1.866
	c0.085-0.067-2.269,0.684-2.269,0.684s0.669-0.337,1.301-0.84c-0.415-0.06-0.822-0.14-1.226-0.231
	c-0.792,0.424-2.981,1.464-1.954,0.88c0.379-0.215,0.967-0.569,1.606-0.959c-3.641-0.92-6.755-3.088-8.84-5.999
	c-2.904-2.437-9.053-6.934-11.743-6.618c0.133,1.355,0.711,2.913,0.947,3.562c0.375,1.028,0.943,2.277,0.572,1.636
	c-0.375-0.641-2.117-3.487-2.196-3.563c-0.08-0.079,0.869,2.152,0.869,2.152s-0.567-0.896-1.306-1.532
	c-0.176-0.15-0.484-0.354-0.801-0.546c-0.046,0.184-0.079,0.396-0.093,0.638c0.404,0.524,0.819,1.062,0.971,1.264
	c0.345,0.464,1.917,3.066,1.174,2.014c-0.439-0.621-1.364-1.836-2.153-2.864c0.009,0.599,0.113,1.345,0.358,2.294
	c1.149,4.434,4.729,6.563,3.257,16.44c-0.104,0.703,0.039-1.222-0.946-3.501c-0.983-2.277-3.095-4.904-3.116-4.489
	c-0.022,0.458-0.275,1.432-0.569,2.599c-0.514,2.034-1.16,4.646-0.946,6.099c0.927,0.558,3.202,2.411,5.154,3.75
	c0.717-1.233,1.124-3.035,1.291-3.756c0.247-1.062,0.452-2.416,0.415-1.682c-0.035,0.74-0.12,4.051-0.096,4.155
	c0.025,0.107,0.444-2.269,0.444-2.269s-0.011,1.051,0.265,1.973c0.082,0.27,0.291,0.704,0.486,1.096
	c0.113-0.105,0.23-0.215,0.353-0.329c-0.06-0.758-0.139-1.653-0.158-1.951c-0.04-0.573,0.055-3.592,0.108-2.314
	c0.036,0.854,0.182,2.677,0.297,4.037c0.471-0.44,1.015-0.93,1.637-1.445c1.094-0.912,2.234-1.945,3.243-2.974
	c0.28-0.286,0.548-0.57,0.802-0.85c-0.679-1.294-2.187-2.671-2.767-3.208c-0.812-0.753-1.901-1.616-1.271-1.208
	c0.631,0.407,3.509,2.174,3.615,2.209c0.108,0.032-1.774-1.537-1.774-1.537s0.921,0.55,1.876,0.79
	c0.405,0.101,1.255,0.157,1.771,0.199c-0.192-0.155-0.383-0.31-0.568-0.461c-0.721-0.347-1.617-0.771-1.903-0.914
	c-0.522-0.258-3.134-1.887-1.983-1.276c0.64,0.34,1.912,0.96,3.044,1.503c-6.398-5.282-8.096-7.748-9.181-10.247
	c2.329,3.148,6.085,6.647,14.131,12.363c0.293,0.208,0.58,0.374,0.86,0.502c0.039-1.205-0.15-2.487-0.234-3.069
	c-0.155-1.081-0.454-2.419-0.222-1.716c0.233,0.701,1.354,3.828,1.417,3.919c0.062,0.091-0.406-2.278-0.406-2.278
	s0.369,0.987,0.962,1.757c0.298,0.383,1.109,1.086,1.431,1.388c0.022-0.014,0.045-0.023,0.068-0.034
	c-0.238-0.538-1.095-2.272-1.293-2.699c-0.243-0.518-1.247-3.376-0.736-2.199c0.464,1.069,1.769,3.742,2.277,4.773
	c1.419-0.778,2.789-2.379,4.292-4.225l0.054-0.024C81.92,136.196,80.848,136.484,80.327,136.622z"/>
<path fill="#3C3C37" d="M71.653,110.675l-9.578-9.383c-0.273,0.993-0.498,1.967-0.683,2.851c-0.025,0.906-0.022,1.677-0.022,2.203
	c-0.003,2.517,0.245,5.667-0.058,3.988c-0.091-0.511-0.298-1.568-0.545-2.794c-0.469,2.848-0.785,6.117-0.797,4.207
	c-0.011-1.446-0.156-6.512-0.271-9.355c-0.112-0.522-0.206-0.941-0.266-1.194c-0.026,0.18-0.056,0.383-0.086,0.604
	c0.042,1.515,0.199,4.465,0.199,4.465s-0.178-0.798-0.539-1.848c-0.153,1.222-0.277,2.25-0.277,2.25s-0.112-2.431-0.829-4.744
	c-0.295-0.507-0.871-1.248-1.444-1.951c-0.211,0.354-0.432,0.744-0.665,1.179c0.496,1.552,1.035,3.212,1.218,3.808
	c0.385,1.265,1.744,8.108,0.961,5.261c-0.411-1.488-1.285-4.291-2.11-6.879c0.08,0.576,0.145,1.044,0.177,1.32
	c0.194,1.547,0.399,9.779,0.062,6.312c-0.178-1.796-0.623-5.175-1.059-8.32c-1.604,3.388-3.415,8.554-4.385,15.781
	c0.844,0.177,1.631,0.271,2.057,0.321c1.111,0.138,2.513,0.208,1.755,0.242c-0.622,0.027-3.028,0.192-3.92,0.27
	c-0.004,0.026-0.007,0.057-0.011,0.082c0.651,0.064,2.041,0.166,2.041,0.166s-1.077,0.09-1.994,0.446
	c-0.036,0.016-0.078,0.033-0.123,0.052c-0.026,0.249-0.054,0.494-0.08,0.746c0.626-0.109,1.242-0.216,1.48-0.255
	c0.579-0.093,3.674-0.287,2.374-0.113c-0.823,0.108-2.53,0.398-3.88,0.634c-0.479,4.886-0.576,10.607-0.013,17.26
	c0.217-0.419,0.394-0.774,0.517-1.028c0.673-1.355,1.38-3.114,1.095-2.134c-0.25,0.863-1.188,4.392-1.409,5.329
	c0.004,0.047,0.007,0.09,0.013,0.137c0.26-0.503,1.262-2.829,1.262-2.829s-0.352,1.41-0.275,2.736
	c0.021,0.321,0.121,0.821,0.232,1.32l0.579,0.421c0.175-1.104,0.403-2.663,0.48-3.131c0.129-0.777,1.224-4.809,0.887-3.076
	c-0.267,1.365-0.758,4.6-1.031,6.448l1.207,0.88c0,0,1.074-8.483,2.088-10.153c0,0,1.983,1.029,2.669,2.434
	c0,0-1.42-5.689-2.608-7.601c0,0-3.269-10.171,5.864-7.511c0,0,4.453,2.474,7.231,4.589c-0.602-1.658-0.914-3.447-0.877-5.308
	C68.333,116.35,69.592,113.185,71.653,110.675z"/>
<path fill="#3C3C37" d="M121.538,165.861c0.962,2.327,3.32,7.455,4.919,10.887c1.978-2.788,3.804-6.106,3.715-8.747l-0.506-5.572
	l-3.162-0.058l-20.84-12.305c-3.103-0.106-6.913,0.81-8.465,1.177c-2.358,0.549-5.25,1.461-3.748,0.824
	c1.502-0.636,8.183-3.647,8.372-3.797c0.188-0.149-4.951,1.336-4.951,1.336s2.107-0.986,3.68-2.395
	c0.769-0.687,2.116-2.486,2.733-3.248c-0.047-0.045-0.09-0.09-0.135-0.137c-1.223,0.667-4.738,2.747-5.615,3.24
	c-1.099,0.619-7.208,3.33-4.713,2.007c2.208-1.171,7.647-4.347,9.925-5.69c-1.551-1.811-2.728-4.518-1.408-8.196l0.262-2.133
	c-0.157-0.725-0.703-2.979-1.729-4.903c-0.325-0.606-0.996-1.521-1.662-2.387c-0.223,0.545-0.477,1.076-0.756,1.59
	c0.516,1.783,1.059,3.64,1.246,4.321c0.412,1.503,1.79,9.628,0.958,6.242c-0.509-2.072-1.704-6.28-2.705-9.724
	c-1.783,2.795-4.474,4.979-7.668,6.163c-1.306,0.8-2.257,1.219-2.257,1.219l-2.269,1.277c0,0-6.571,10.013-12.298,4.244
	l-4.672,4.412c3.183,0.863,6.653,1.222,8.255,1.394c3.034,0.331,6.861,0.456,4.802,0.585c-2.062,0.127-11.302,0.906-11.591,1.007
	c-0.29,0.096,6.454,0.483,6.454,0.483s-2.929,0.287-5.412,1.3c-0.799,0.324-2.106,1.115-3.213,1.804
	c0.356,0.214,0.736,0.442,1.132,0.677c2.134-0.396,4.739-0.903,5.589-1.051c1.573-0.276,10.004-0.938,6.467-0.413
	c-2.36,0.352-7.398,1.287-11.145,2.004c5.017,2.964,12.484,7.237,19.238,10.529c1.06-0.506,2.063-1.189,2.537-1.51
	c0.921-0.621,2.011-1.483,1.471-0.964c-0.53,0.51-2.818,2.817-2.945,2.985c0.003,0,0.006,0.002,0.011,0.005
	c0.206-0.11,1.883-1.373,1.883-1.373s-0.739,0.766-1.175,1.627c-0.011,0.022-0.021,0.043-0.03,0.067
	c0.234,0.109,0.465,0.216,0.696,0.324c0.289-0.36,0.541-0.678,0.658-0.818c0.368-0.444,2.535-2.604,1.686-1.633
	c-0.466,0.535-1.331,1.602-2.102,2.562c2.492,1.146,4.816,2.102,6.791,2.736c0,0,13.56,4.468,20.776,10.999
	c0.112-3.158-0.315-6.434-0.507-7.963c-0.361-2.951-1.11-6.608-0.512-4.684c0.595,1.926,3.492,10.505,3.656,10.756
	c0.166,0.251-0.992-6.229-0.992-6.229s0.961,2.711,2.539,4.832c0.514,0.688,1.621,1.764,2.568,2.66
	c0.199-0.257,0.398-0.523,0.601-0.793c-0.914-2.001-2.172-4.684-2.541-5.52C122.796,170.468,120.205,162.629,121.538,165.861z"/>
<path fill="#87867E" d="M90.552,130.046c0,0,3.847-2.964,4.909-6.944l2.552,9.072l1.86,6.593l-4.496-12.678
	C95.377,126.089,93.466,129.524,90.552,130.046z"/>
<path fill="#87867E" d="M130.213,168.503c0.991,7.954-6.251,13.38-6.251,13.38l-1.822-5.632c-0.137,1.153,1.548,5.883,1.548,5.883
	l-0.368,0.325c-1.168-0.954-1.885-3.427-1.885-3.427l0.086,2.697l-1.257-5.439c0.364,1.052-0.051,5.953-0.051,5.953
	c-5.725-6.06-21.995-13.587-21.995-13.587c7.194,1.955,20.274,10.173,20.403,10.18c0.387-1.516-1.174-13.067-1.174-13.067
	l3.812,11.177l-0.931-5.908c1.447,4.165,5.046,7.172,5.046,7.172S129.877,172.633,130.213,168.503z"/>
<polygon fill="#87867E" points="80.957,151.231 69.126,153.299 76.548,157.408 72.333,153.827 "/>
<path fill="#87867E" d="M62.57,98.805l11.304,11.901c0,0-3.186,4.471-2.215,11.942c0,0-1.779-8.797-0.218-11.713l-9.52-9.712
	L62.57,98.805z"/>
<polygon fill="#87867E" points="98.288,130.479 96.368,123.738 98.982,127.168 97.54,126.312 "/>
<path fill="#80A51B" d="M98.651,78.037c-1.084-0.431,0.842,0.56,2.314,1.466c1.101,0.68,5.601,2.016,6.983,3.901
	c1.976-2.126,0.878-3.52,0.599-4.971c-0.043-0.011-0.087-0.022-0.128-0.034c-1.247-0.303-6.588-1.646-8.529-2.225
	c-1.94-0.58,2.541,1.112,3.415,1.348c0.874,0.237,5.129,1.284,4.809,1.279c-0.316-0.003-2.476,0.361-3.368,0.32
	c-1.521-0.068-3.094-0.626-3.094-0.626s3.354,1.833,3.183,1.814C104.662,80.292,99.738,78.469,98.651,78.037z"/>
<circle cx="83.646" cy="119.727" r="10.953"/>
<path fill="#ABC910" d="M89.439,125.182c-0.802-0.749-1.876-1.611-1.255-1.204c0.548,0.357,2.813,1.768,3.413,2.12
	c0.011-0.014,0.02-0.029,0.03-0.043c-0.395-0.361-1.632-1.412-1.632-1.412s0.905,0.545,1.842,0.781
	c0.06,0.016,0.144,0.026,0.221,0.04c0.036-0.059,0.081-0.109,0.119-0.171c0.091-0.139,0.167-0.284,0.249-0.427
	c-0.545-0.263-1.075-0.518-1.28-0.619c-0.513-0.258-3.086-1.88-1.952-1.273c0.7,0.375,2.167,1.09,3.361,1.67
	c2.514-4.574,1.115-10.381-3.334-13.268c-0.245-0.16-0.494-0.3-0.746-0.437c-0.976,1.386-1.717,3.254-2.032,4.044
	c-0.512,1.279-1.032,2.93-0.84,2.018c0.193-0.913,0.959-5.032,0.951-5.168c-0.008-0.142-1.002,2.745-1.002,2.745
	s0.231-1.307,0.076-2.515c-0.068-0.541-0.42-1.627-0.605-2.22c-0.053-0.008-0.107-0.017-0.163-0.022
	c-0.087,0.875-0.244,3.04-0.295,3.593c-0.067,0.718-0.789,4.468-0.597,2.863c0.168-1.413,0.444-4.975,0.557-6.497
	c-3.553-0.274-7.144,1.351-9.223,4.55c-1.236,1.904-1.735,4.073-1.587,6.176c0.812,0.317,1.59,0.54,2.005,0.66
	c1.051,0.308,2.398,0.59,1.662,0.51c-0.554-0.062-2.557-0.237-3.572-0.313c0.007,0.047,0.016,0.096,0.024,0.145
	c0.667,0.166,1.633,0.394,1.633,0.394s-0.753-0.053-1.556,0.061c0.063,0.278,0.135,0.554,0.22,0.824
	c0.212-0.004,0.388-0.007,0.491-0.009c0.572-0.002,3.598,0.275,2.314,0.252c-0.596-0.014-1.662-0.005-2.717,0.013
	c0.7,2.068,2.065,3.928,4.039,5.211c4.121,2.675,9.467,1.945,12.744-1.481C90.397,126.081,89.767,125.493,89.439,125.182z"/>
<path d="M79.034,112.67c0.939,0.04,1.631,0.157,3.252-0.492l2.218,1.325l-4.636,7.756l1.158,0.693l-1.089,1.822l-4.983-2.98
	l1.089-1.821l1.246,0.744l3.039-5.083l-1.631-0.101L79.034,112.67z"/>
<path d="M90.618,120.844c-0.26-0.53-0.642-1.335-1.401-1.788c-0.938-0.524-2.015-0.052-2.745,0.887
	c0.537-0.162,1.373-0.09,2.049,0.277c1.636,0.887,2.203,2.936,1.089,4.798c-1.098,1.838-3.228,2.685-5.299,1.538
	c-2.084-1.152-2.625-3.671-1.062-6.456c1.051-1.846,3.646-5.222,6.988-3.373c0.851,0.472,1.968,1.716,2.292,2.841L90.618,120.844z
	 M85.268,122.014c-0.41,0.685-0.605,1.832,0.192,2.309c0.636,0.381,1.457,0.165,1.838-0.5c0.307-0.542,0.476-1.389-0.28-1.822
	C86.416,121.677,85.631,121.859,85.268,122.014z"/>
</svg>
