<?xml version="1.0" encoding="utf-8"?>
<!-- Generator: Adobe Illustrator 15.0.0, SVG Export Plug-In  -->
<!DOCTYPE svg PUBLIC "-//W3C//DTD SVG 1.1//EN" "http://www.w3.org/Graphics/SVG/1.1/DTD/svg11.dtd" [
	<!ENTITY ns_flows "http://ns.adobe.com/Flows/1.0/">
]>
<svg version="1.1"
	 xmlns="http://www.w3.org/2000/svg" xmlns:xlink="http://www.w3.org/1999/xlink" xmlns:a="http://ns.adobe.com/AdobeSVGViewerExtensions/3.0/"
	 x="0px" y="0px" width="200px" height="200px" viewBox="-4.823 -7.755 200 200"
	 overflow="visible" enable-background="new -4.823 -7.755 200 200" xml:space="preserve">
<defs>
</defs>
<ellipse fill="#E52320" cx="93.719" cy="93.124" rx="92.924" ry="92.329"/>
<path fill="#F9B233" d="M93.72,186.249c-12.651,0-24.925-2.463-36.479-7.317c-11.16-4.69-21.183-11.405-29.79-19.955
	c-8.607-8.554-15.365-18.513-20.086-29.602C2.478,117.892,0,105.697,0,93.124c0-12.57,2.478-24.767,7.365-36.25
	c4.721-11.087,11.479-21.047,20.086-29.601c8.607-8.55,18.63-15.264,29.79-19.955C68.794,2.464,81.069,0,93.72,0
	c12.65,0,24.924,2.464,36.479,7.319c11.157,4.69,21.18,11.404,29.788,19.955c8.606,8.553,15.364,18.513,20.085,29.601
	c4.888,11.482,7.365,23.678,7.365,36.25c0,12.573-2.478,24.769-7.365,36.251c-4.721,11.089-11.479,21.048-20.085,29.602
	c-8.608,8.55-18.631,15.265-29.788,19.955C118.644,183.786,106.37,186.249,93.72,186.249z M93.72,1.592
	c-50.801,0-92.129,41.062-92.129,91.532c0,50.473,41.328,91.534,92.129,91.534c50.801,0,92.129-41.062,92.129-91.534
	C185.849,42.653,144.521,1.592,93.72,1.592z"/>
<ellipse fill="#FFFFFF" cx="93.718" cy="93.473" rx="62.686" ry="62.283"/>
<path fill="#FFFFFF" d="M93.72,183.186c-12.237,0-24.106-2.382-35.281-7.079c-10.793-4.534-20.487-11.028-28.811-19.298
	c-8.324-8.272-14.858-17.905-19.424-28.629c-4.727-11.102-7.125-22.897-7.125-35.057c0-12.157,2.398-23.952,7.125-35.056
	c4.566-10.724,11.1-20.355,19.424-28.626c8.324-8.271,18.018-14.764,28.811-19.3C69.614,5.445,81.483,3.063,93.72,3.063
	c12.236,0,24.105,2.382,35.281,7.078c10.792,4.536,20.485,11.028,28.81,19.3c8.325,8.271,14.859,17.902,19.426,28.626
	c4.727,11.104,7.122,22.899,7.122,35.056c0,12.159-2.396,23.955-7.122,35.057c-4.566,10.724-11.101,20.356-19.426,28.629
	c-8.324,8.27-18.018,14.764-28.81,19.298C117.825,180.804,105.956,183.186,93.72,183.186z M93.72,3.746
	c-49.604,0-89.958,40.094-89.958,89.377c0,49.284,40.354,89.381,89.958,89.381c49.603,0,89.956-40.097,89.956-89.381
	C183.676,43.84,143.322,3.746,93.72,3.746z"/>
<path fill-rule="evenodd" clip-rule="evenodd" fill="#004C99" d="M102.988,136.302c5.333-3.182,10.919-6.678,15.742-10.896
	c6.917-6.049,13.3-14.909,12.624-24.545c-0.135-1.964-0.741-3.768-1.752-5.109c-0.711-0.943-1.743-1.906-3.229-2.583
	c-3.575-1.622-8.662-0.281-12.622-0.204c-2.953,0.058-6.068-0.304-8.462-1.713c-1.818-1.077-3.251-2.685-3.805-4.553
	c0.84,1.726,2.13,3.14,3.938,4.126c6.925,3.78,15.169-1.125,21.267,1.642c4.393,1.997,5.16,6.315,5.161,6.298l0,0
	c3.924-12.582-8.251-19.443-11.038-28.215c-2.529-7.959,1.322-12.929,10.029-11.41c-2.373-1.895-4.77-2.588-7.272-2.794
	c0.184,0.289,0.518,1.56,0.036,2.385c0.358-1.212-0.014-2.182-0.688-2.955c-0.564-0.646-1.244-1.105-1.994-1.405
	c-3.034-1.22-6.707-0.035-9.22,1.818c-3.025,2.231-5.35,5.741-6.865,8.92c-2.738,5.749-4.294,12.516-5.691,17.29
	c-2.647,9.042-9.163,16.992-16.679,22.52c-2.016,1.482-4.007,2.666-5.841,3.442c3.377-4.259,5.577-10.188,6.813-15.419
	c0.668-2.849,1.109-5.731,1.291-8.442c1.485-22.137-22.168-29.781-32.513-12.502c-2.908,4.859-4.313,10.875-6.061,16.397
	c-3.698,11.693-8.833,14.626-11.974,16.157c5.976-1.012,9.844-4.178,14.288-7.889c1.587-1.323,3.209-2.569,5.055-3.421
	c2.354-1.085,4.653-1.546,6.761-1.448c-6.858,2.089-10.079,5.644-11.747,9.834c4.473-4.182,11.572-8.774,19.256-6.118
	c-2.779,0.01-8.794,0.451-11.623,5.435c3.504-2.946,12.615-3.47,14.369,2.636c-1.061-1.653-4.374-2.454-7.162-1.25
	c7.25,0.754,6.567,8.856,6.173,14.356c-0.382,5.325,0.247,10.401,2.699,14.589c-1.125-4.626-1.093-7.951-0.259-10.475
	c-0.231,3.592,0.641,7.293,2.44,9.951c7.947-4.244,8.864-16.941,15.251-25.379c-5.705,8.089-5.44,21.728-15.641,26.959
	c12.042,1.348,27.807-3.927,35.484-14.213c3.687-4.938,4.941-9.714,4.431-13.755c-0.319-2.52-1.135-4.914-2.876-6.785
	c-1.82-1.956-3.889-2.868-5.921-3.221c2.388,0.141,4.549,1.202,6.22,2.898c1.297,1.319,2.286,3.032,2.848,5.022
	c1.497,5.305-0.038,12.604-6.843,19.676c-4.109,4.271-9.486,7.305-15.127,9.133c-0.111,0.036-1.142,0.365-1.307,0.393
	c3.057,3.389,3.916,7.991,3.682,12.447c-0.069,1.329-0.443,2.002-1.911,2.952c-0.989,0.638-2.157,1.317-2.305,2.899
	c0.934-2.056,3.423-2.476,5.207-0.622c1.885,1.964,3.444,2.794,6.256,2.938c3.592,0.186,4.665-0.853,7.625-1.923
	c0.902-0.328,1.78-0.361,2.556,0.607c-0.207-0.812-0.871-1.303-1.694-1.402c-0.831-0.102-1.771,0.168-2.528,0.382
	c-2.398,0.687-4.897,0.669-7.161-0.512c-1.561-0.816-2.725-2.169-2.918-4.159c-0.328-3.375-0.023-5.129,2.351-6.901
	C100.946,137.562,101.94,136.929,102.988,136.302L102.988,136.302z M123.473,56.099L123.473,56.099
	c4.998,0.528,5.238-7.216,0.732-6.2c-0.987,0.222-1.089-0.144-1.088-0.98c0.001-1.617,0.645-2.924,2.11-3.52
	c-1.637-0.514-3.592-0.165-4.971,0.783c-1.726,1.184-1.906,0.453-1.717-1.283c0.189-1.715,0.93-3.427,1.943-4.163
	c-1.833-0.263-3.635,0.522-5.104,1.873c-1.718,1.581-2.179,0.398-2.24-1.373c-0.061-1.73,0.277-3.497,0.898-4.909
	c-2.685,0.446-4.66,2.407-5.75,4.634c-1.06,2.163-2.526,1.009-3.024-0.817c-0.537-1.99-0.534-4.149-0.313-5.999
	c-9.641,4.878-9.417,17.831,1.154,19.486c2.274,0.354,4.597,0.045,7.023-0.248c2.298-0.277,4.812-0.486,6.956,0.184
	C121.438,53.988,122.602,54.888,123.473,56.099L123.473,56.099z M123.542,60.02L123.542,60.02c-2.014,1.77,0.859,3.695,2.796,5.182
	c5.051,3.871,3.517,8.632,0.349,8.88c-3.249,0.252-5.45-3.274-5.948-6.081C120.217,65.064,120.735,61.328,123.542,60.02
	L123.542,60.02z"/>
<rect x="28.703" y="41.517" fill-rule="evenodd" clip-rule="evenodd" fill="#BE1622" width="5.213" height="5.213"/>
<rect x="28.73" y="51.944" fill-rule="evenodd" clip-rule="evenodd" fill="#BE1622" width="5.212" height="5.213"/>
<rect x="33.917" y="46.729" fill-rule="evenodd" clip-rule="evenodd" fill="#BE1622" width="5.214" height="5.215"/>
<rect x="23.49" y="46.729" fill-rule="evenodd" clip-rule="evenodd" fill="#BE1622" width="5.213" height="5.215"/>
<rect x="29.798" y="41.517" fill-rule="evenodd" clip-rule="evenodd" fill="#FFFFFF" width="5.213" height="5.213"/>
<rect x="29.825" y="51.944" fill-rule="evenodd" clip-rule="evenodd" fill="#FFFFFF" width="5.212" height="5.213"/>
<rect x="35.011" y="46.729" fill-rule="evenodd" clip-rule="evenodd" fill="#FFFFFF" width="5.215" height="5.215"/>
<rect x="24.585" y="46.729" fill-rule="evenodd" clip-rule="evenodd" fill="#FFFFFF" width="5.213" height="5.215"/>
<rect x="152.17" y="41.517" fill-rule="evenodd" clip-rule="evenodd" fill="#BE1622" width="5.213" height="5.213"/>
<rect x="152.197" y="51.944" fill-rule="evenodd" clip-rule="evenodd" fill="#BE1622" width="5.212" height="5.213"/>
<rect x="157.383" y="46.729" fill-rule="evenodd" clip-rule="evenodd" fill="#BE1622" width="5.215" height="5.215"/>
<rect x="146.957" y="46.729" fill-rule="evenodd" clip-rule="evenodd" fill="#BE1622" width="5.213" height="5.215"/>
<rect x="153.266" y="41.517" fill-rule="evenodd" clip-rule="evenodd" fill="#FFFFFF" width="5.212" height="5.213"/>
<rect x="153.292" y="51.944" fill-rule="evenodd" clip-rule="evenodd" fill="#FFFFFF" width="5.212" height="5.213"/>
<rect x="158.478" y="46.729" fill-rule="evenodd" clip-rule="evenodd" fill="#FFFFFF" width="5.215" height="5.215"/>
<rect x="148.052" y="46.729" fill-rule="evenodd" clip-rule="evenodd" fill="#FFFFFF" width="5.214" height="5.215"/>
<path fill="#BE1622" d="M10.604,76.886l-0.138-0.253l-0.256-0.554l-0.132-0.358l-0.203-0.564l-0.109-0.352l-0.121-0.566L9.568,73.87
	l-0.101-0.64l-0.013-0.403l0.002-0.45l0.051-0.436l0.06-0.646l0.158-0.88l0.107-0.445l0.134-0.625l0.377-1.266l0.149-0.406
	l0.173-0.4l0.195-0.393l0.222-0.385l0.231-0.329l0.62-1.008l0.354-0.478l0.241-0.273l0.408-0.382l0.306-0.227l0.314-0.252
	l0.321-0.274l0.725-0.473l0.38-0.206l0.396-0.173l0.446-0.16l0.407-0.118l0.398-0.093l0.392-0.068l0.585-0.09l1.133-0.062
	l0.537-0.024l0.805-0.024l0.38,0.06l0.566,0.143l0.359,0.134l0.383,0.141l0.414,0.123l0.813,0.297l0.382,0.141l0.343,0.182
	l0.507,0.258l0.336,0.208l0.33,0.23l0.305,0.223l0.437,0.316l0.291,0.272l0.313,0.28l0.307,0.305l0.301,0.328l0.275,0.322
	l0.244,0.338l0.26,0.37l0.229,0.387l0.181,0.373l0.173,0.397l0.157,0.364l0.303,0.939l0.099,0.375l0.093,0.398l0.123,0.833
	l0.021,0.458l0.005,0.427l-0.051,0.886l-0.052,0.436l-0.075,0.429l-0.177,0.771l-0.112,0.549l-0.131,0.359l-0.188,0.528
	l-0.389,0.865l-0.175,0.318l-0.267,0.532L26.9,77.856l-0.248,0.299l-0.478,0.441l-0.296,0.282L25.25,79.38l-0.763,0.596
	l-0.273,0.209l-0.166,0.109l-0.221,0.121l-0.21-0.01l-0.188-0.083l-0.152-0.204l-0.202-0.301l-0.187-0.347l-0.164-0.34l-0.139-0.333
	l-0.187-0.349l-0.364-0.559l-0.214-0.356l-0.083-0.157l-0.13-0.278l-0.022-0.193l0.028-0.177l0.1-0.156l0.227-0.225l0.479-0.361
	l0.265-0.266l0.403-0.463l0.224-0.305l0.308-0.491l0.181-0.344l0.231-0.594l0.116-0.391l0.111-0.551l0.021-0.418l-0.011-0.586
	l-0.038-0.409l-0.028-0.354l-0.098-0.559l-0.142-0.415l-0.094-0.214l-0.23-0.387l-0.275-0.322l-0.266-0.263l-0.29-0.273
	l-0.321-0.255l-0.354-0.238l-0.392-0.198l-0.351-0.157l-0.718-0.267l-0.388-0.115l-0.616-0.159l-0.374-0.084l-0.597-0.047
	l-0.4,0.012L17.83,66.92l-0.423,0.084l-0.645,0.206l-0.373,0.18l-0.529,0.347l-0.313,0.251l-0.39,0.414l-0.254,0.322l-0.308,0.492
	l-0.188,0.368l-0.201,0.577l-0.167,0.561l-0.029,0.362l-0.009,0.211l0.012,0.4l0.037,0.675l0.055,0.439l0.06,0.418l0.075,0.367
	l0.155,0.55l0.148,0.39l0.097,0.295l0.005,0.161l-0.113,0.204l-0.251,0.217l-0.324,0.195l-0.176,0.054l-0.341,0.164l-0.603,0.245
	l-0.366,0.155l-0.952,0.433l-0.357,0.132l-0.158,0.084l-0.256,0.055L10.604,76.886z"/>
<path fill="#BE1622" d="M16.751,103.853l-0.408-0.017l-0.585-0.041l-0.382-0.043l-0.766-0.14l-0.585-0.04l-0.381-0.042l-0.41-0.069
	l-0.382-0.096l-0.539-0.244l-0.359-0.171l-1.156-0.665l-0.336-0.222l-0.335-0.249l-0.285-0.247l-0.439-0.4l-0.258-0.275
	l-0.262-0.324l-0.234-0.301l-0.313-0.454l-0.208-0.325l-0.21-0.378l-0.16-0.353l-0.214-0.505l-0.108-0.379l-0.271-0.81l-0.135-0.43
	L6.92,96.229l-0.109-0.432l-0.086-0.429l-0.033-0.433l-0.025-1.373L6.702,92.7l0.085-0.842L6.858,91.5l0.094-0.382l0.432-1.38
	l0.119-0.411l0.171-0.435l0.34-0.82l0.195-0.387L8.433,87.3l0.248-0.334l0.272-0.337l0.327-0.312l0.324-0.285l0.674-0.699
	l0.299-0.26l0.327-0.261l0.327-0.209l0.505-0.212l1.136-0.402l0.532-0.163l0.379-0.083l0.405-0.084l0.38-0.084l0.558-0.086
	l0.381-0.032l0.431-0.034l0.433-0.009l0.432,0.018l0.458,0.017l0.433,0.042l0.435,0.067l0.435,0.094l0.434,0.12l0.383,0.118
	l0.411,0.146l0.588,0.168l0.411,0.169l0.229,0.097l0.386,0.197l0.565,0.346l0.362,0.247l0.204,0.124l0.312,0.299l0.363,0.426
	l0.261,0.325l0.235,0.325l0.522,0.755l0.208,0.326l0.211,0.353l0.185,0.352l0.24,0.53l0.134,0.354l0.133,0.379l0.11,0.378
	l0.196,0.962l0.082,0.381l0.177,1.269l0.066,0.812l-0.036,0.765l-0.014,0.609l-0.042,0.434l-0.069,0.434l-0.094,0.435l-0.067,0.433
	l-0.094,0.41l-0.096,0.382l-0.12,0.384l-0.193,0.538l-0.146,0.358l-0.465,0.849l-0.225,0.334l-0.247,0.336l-0.399,0.438l-0.25,0.285
	l-0.273,0.285l-0.301,0.233l-0.477,0.366l-0.325,0.208l-0.327,0.185l-0.327,0.211l-0.504,0.289l-0.326,0.208l-0.378,0.186
	l-0.353,0.133l-0.583,0.138l-0.759,0.168l-0.431,0.059l-0.432,0.085L16.751,103.853z M13.331,97.712l0.36,0.222l0.565,0.244
	l0.385,0.145l0.586,0.116l0.382,0.045l0.612,0.04l0.432-0.009l0.431-0.034l0.406-0.033l0.759-0.166l0.355-0.107l0.554-0.291
	l0.328-0.209l0.451-0.365l0.274-0.259l0.4-0.389l0.224-0.285l0.369-0.668l0.146-0.358l0.119-0.409l0.07-0.409l0.035-0.813
	l-0.032-0.38l-0.037-0.559l-0.083-0.381l-0.191-0.658l-0.159-0.404l-0.317-0.58l-0.235-0.351l-0.364-0.399l-0.311-0.274
	l-0.386-0.272l-0.333-0.197l-0.155-0.073l-0.538-0.22l-0.384-0.12l-0.18-0.073l-0.357-0.07l-0.356-0.043l-0.357-0.019l-0.383-0.02
	l-0.379,0.007l-0.408,0.035l-0.405,0.083l-0.229,0.029l-0.379,0.11l-0.177,0.053l-0.353,0.134l-0.204,0.106l-0.35,0.209l-0.201,0.13
	L12.98,89.81l-0.174,0.155l-0.299,0.311l-0.424,0.516l-0.223,0.361l-0.194,0.411l-0.146,0.384l-0.167,0.536l-0.07,0.384
	l-0.064,0.637l-0.018,0.432l0.062,0.636l0.059,0.406l0.138,0.558l0.159,0.354l0.367,0.552l0.235,0.3l0.414,0.398l0.285,0.25
	L13.331,97.712z"/>
<path fill="#BE1622" d="M17.122,128.551l-0.261-0.122l-0.537-0.292l-0.319-0.211l-0.498-0.333l-0.294-0.22l-0.435-0.382l-0.281-0.25
	l-0.461-0.457l-0.248-0.315l-0.266-0.363l-0.217-0.383l-0.336-0.553l-0.395-0.805l-0.18-0.421l-0.263-0.581l-0.447-1.243
	l-0.122-0.416l-0.099-0.423l-0.076-0.434l-0.049-0.44l-0.009-0.404l-0.101-1.176l0.002-0.596l0.031-0.364l0.1-0.547l0.113-0.366
	l0.103-0.39l0.095-0.411l0.302-0.812l0.185-0.39l0.216-0.374l0.263-0.393l0.257-0.337l0.268-0.312l0.273-0.288l0.417-0.421
	l0.875-0.719l0.419-0.341l0.632-0.496l0.341-0.178l0.541-0.222l0.368-0.105l0.392-0.113l0.407-0.146l0.83-0.244l0.39-0.113
	l0.386-0.059l0.561-0.093l0.394-0.033l0.401-0.011h0.378l0.538-0.004l0.396,0.048l0.417,0.036l0.429,0.063l0.436,0.085l0.414,0.096
	l0.396,0.128l0.43,0.142l0.415,0.175l0.366,0.192l0.375,0.218l0.344,0.2l0.803,0.576l0.303,0.243l0.311,0.266l0.594,0.597
	l0.289,0.354l0.258,0.341l0.483,0.745l0.217,0.38l0.194,0.39l0.316,0.725l0.236,0.509l0.105,0.368l0.166,0.535l0.197,0.928
	l0.049,0.36l0.102,0.584l0.063,0.924l-0.024,0.387l-0.122,0.638l-0.071,0.404l-0.208,0.777l-0.259,0.929l-0.097,0.334l-0.067,0.186
	l-0.108,0.229l-0.174,0.116l-0.2,0.045l-0.243-0.075l-0.34-0.12l-0.358-0.17l-0.333-0.177l-0.31-0.186l-0.359-0.168l-0.622-0.235
	l-0.383-0.158l-0.164-0.077l-0.269-0.146l-0.131-0.141l-0.084-0.16l-0.013-0.185l0.05-0.313l0.171-0.575l0.054-0.373l0.051-0.612
	v-0.376l-0.046-0.578l-0.058-0.385l-0.168-0.616l-0.137-0.382l-0.236-0.51l-0.234-0.349l-0.355-0.466l-0.274-0.308l-0.23-0.267
	l-0.411-0.392l-0.36-0.25l-0.203-0.114l-0.416-0.176l-0.413-0.096l-0.371-0.055l-0.394-0.049l-0.412-0.014l-0.425,0.019
	l-0.432,0.074l-0.377,0.082l-0.734,0.21l-0.383,0.139l-0.59,0.238l-0.349,0.152l-0.508,0.319l-0.315,0.246l-0.348,0.314l-0.289,0.32
	l-0.398,0.549l-0.191,0.367l-0.219,0.591l-0.104,0.388l-0.067,0.565l-0.015,0.41l0.047,0.579l0.065,0.406l0.183,0.584l0.197,0.551
	l0.191,0.31l0.117,0.171l0.248,0.317l0.431,0.521l0.306,0.321l0.296,0.299l0.28,0.251l0.449,0.352l0.352,0.224l0.253,0.181
	l0.1,0.125l0.029,0.231l-0.072,0.325l-0.146,0.349l-0.109,0.146l-0.177,0.334l-0.341,0.557l-0.202,0.342l-0.508,0.913l-0.209,0.317
	l-0.077,0.163l-0.172,0.197L17.122,128.551z"/>
<path fill="#BE1622" d="M38.078,146.587l-0.336,0.229l-0.497,0.316l-0.332,0.192l-0.698,0.343l-0.494,0.315l-0.333,0.194
	l-0.37,0.187l-0.365,0.151l-0.576,0.124l-0.39,0.076l-1.327,0.155l-0.4,0.018h-0.419l-0.375-0.029l-0.591-0.061l-0.371-0.067
	l-0.404-0.105l-0.367-0.102l-0.522-0.178l-0.363-0.139l-0.394-0.177l-0.337-0.189l-0.472-0.28l-0.313-0.24l-0.696-0.489
	l-0.365-0.265l-0.329-0.26l-0.342-0.28l-0.324-0.297l-0.285-0.327l-0.836-1.088l-0.487-0.717l-0.431-0.727l-0.156-0.329
	l-0.153-0.363l-0.474-1.367l-0.146-0.4l-0.123-0.449l-0.215-0.862l-0.07-0.427l-0.051-0.442v-0.417l0.02-0.432l0.079-0.442
	l0.089-0.423l0.126-0.964l0.086-0.388l0.106-0.403l0.138-0.362l0.28-0.47l0.675-1.001l0.33-0.445l0.254-0.293l0.277-0.309
	l0.254-0.293l0.396-0.401l0.287-0.252l0.328-0.284l0.343-0.263l0.358-0.244l0.378-0.258l0.373-0.225l0.39-0.202l0.403-0.183
	l0.42-0.164l0.38-0.132l0.416-0.125l0.571-0.216l0.431-0.106l0.244-0.059l0.426-0.072l0.659-0.058l0.438-0.017l0.238-0.023
	l0.429,0.056l0.545,0.126l0.401,0.108l0.384,0.122l0.87,0.294l0.36,0.138l0.379,0.159l0.358,0.173l0.507,0.284l0.318,0.204
	l0.332,0.225l0.313,0.241l0.73,0.656l0.293,0.256l0.895,0.914l0.538,0.613l0.424,0.637l0.352,0.497l0.224,0.375l0.202,0.39
	l0.183,0.403l0.203,0.389l0.167,0.386l0.152,0.364l0.132,0.379l0.164,0.547l0.097,0.375l0.126,0.959l0.022,0.402v0.417l-0.059,0.59
	l-0.031,0.377l-0.053,0.393l-0.103,0.367l-0.164,0.575l-0.138,0.362l-0.154,0.344l-0.137,0.363l-0.233,0.531l-0.138,0.362
	l-0.194,0.374l-0.206,0.316l-0.385,0.458l-0.512,0.585l-0.312,0.304l-0.296,0.325L38.078,146.587z M31.677,143.686l0.422-0.035
	l0.598-0.139l0.396-0.113l0.541-0.254l0.333-0.192l0.514-0.333l0.344-0.263l0.327-0.282l0.307-0.271l0.511-0.585l0.221-0.298
	l0.272-0.562l0.138-0.361l0.146-0.562l0.066-0.371l0.09-0.55l0.011-0.362l-0.101-0.755l-0.096-0.376l-0.146-0.398l-0.187-0.369
	l-0.457-0.676l-0.253-0.287l-0.36-0.429l-0.294-0.255l-0.543-0.416l-0.368-0.229l-0.599-0.277l-0.399-0.143l-0.531-0.105
	l-0.411-0.036l-0.472,0.011l-0.387,0.04l-0.167,0.032l-0.562,0.144l-0.38,0.133l-0.188,0.047l-0.331,0.158l-0.312,0.176
	l-0.297,0.196l-0.317,0.214l-0.303,0.231l-0.306,0.269l-0.276,0.31l-0.167,0.157l-0.24,0.314l-0.109,0.146l-0.205,0.319l-0.1,0.205
	l-0.157,0.378l-0.083,0.225l-0.113,0.439l-0.048,0.229l-0.056,0.427l-0.032,0.667l0.035,0.42l0.088,0.448l0.111,0.396l0.184,0.53
	l0.171,0.349l0.328,0.551l0.242,0.357l0.428,0.473l0.289,0.293l0.442,0.366l0.336,0.188l0.624,0.226l0.367,0.103l0.57,0.073
	l0.378,0.032L31.677,143.686z"/>
<path fill="#BE1622" d="M52.327,168.385l-0.333-0.099l-1.483-0.984l-1.149-0.796l-0.339-0.226l-0.98-0.59l-0.278-0.184l-0.132-0.212
	l-0.057-0.281l-0.045-1.404l-0.021-0.381l-0.072-1.361l-0.022-0.38l0.054-1.369l-0.021-0.38l-0.073-1.36l-0.035-0.27l-0.085-0.147
	l-0.239-0.189l-0.649-0.494l-0.29-0.161l-0.254,0.014l-0.246,0.234l-0.816,1.138l-0.206,0.352l-0.702,1.242l-0.206,0.353
	l-0.316,0.523l-0.226,0.338l-0.246,0.325l-0.212,0.225l-0.174,0.037l-0.277-0.091l-0.338-0.226l-0.973-0.738l-1.016-0.586
	l-0.341-0.225l-0.931-0.71l-0.227-0.212l-0.07-0.168l0.098-0.239l0.177-0.312l0.189-0.332l0.408-0.522l0.246-0.323l0.845-1.09
	l0.226-0.337l0.696-1.187l0.205-0.352l0.725-1.136l0.224-0.34l0.825-1.102l0.225-0.34l0.697-1.185l0.225-0.341l0.823-1.101
	l0.226-0.339l0.789-1.094l0.226-0.338l0.738-1.157l0.224-0.34l0.423-0.727l0.231-0.305l0.108-0.112l0.246-0.233l0.24-0.084
	l0.296,0.105l0.183,0.091l0.333,0.19l0.924,0.676l2.465,1.76l1.496,0.87l0.339,0.227l1.341,1.014l0.804,0.536l0.347,0.259
	l0.274,0.274l0.362,0.422l0.246,0.319l0.234,0.338l0.254,0.352l0.218,0.359l0.164,0.352l0.219,0.545l0.107,0.343l0.071,0.354
	l0.043,0.394l0.016,0.622l0.006,0.402l-0.012,0.571l-0.048,0.395l-0.063,0.416l-0.12,0.409l-0.162,0.382l-0.203,0.353l-0.269,0.495
	l-0.224,0.338l-0.246,0.325l-0.283,0.331l-0.304,0.316l-0.309,0.285l-0.338,0.232l-0.361,0.22l-0.399,0.189l-0.374,0.15
	l-0.361,0.127l-0.344,0.105l-0.565,0.114l-0.359,0.035l-0.577-0.048l-0.353-0.021l-0.373-0.034l-0.319-0.12l-0.212-0.048
	l-0.028,0.225l0.046,1.587l0.021,0.381l0.074,1.544l0.042,0.396l0.058,1.564l0.045,0.396l0.15,1.198l0.035,0.36l-0.049,0.304
	L52.327,168.385z M51.329,155.968l0.522,0.225l0.346,0.076l0.353,0.021l0.381-0.114l0.359-0.218l0.31-0.284l0.246-0.324l0.217-0.374
	l0.198-0.388l0.127-0.374l0.062-0.416l-0.022-0.382l-0.106-0.345l-0.213-0.323l-0.396-0.418l-0.31-0.266l-1.045-0.726l-0.339-0.226
	l-1.122-0.653l-0.269-0.148l-0.19-0.035l-0.211,0.043l-0.177,0.22l-0.303,0.502l-0.183,0.365l-0.198,0.388l-0.217,0.374
	l-0.815,1.138l-0.134,0.247l-0.043,0.154l0.107,0.163l0.226,0.211l1.045,0.817l0.339,0.226L51.329,155.968z"/>
<path fill="#BE1622" d="M66.76,169.861l-0.136,0.384l-0.559,1.259l-0.138,0.383l-0.497,1.308l-0.095,0.264l-0.114,0.094
	l-0.218,0.003l-0.343-0.097l-1.212-0.461l-1.485-0.533l-1.16-0.524l-0.128-0.101l-0.046-0.096l0.085-0.24l0.167-0.616l0.139-0.383
	l0.104-0.367l0.131-0.36l0.389-1.316l0.163-0.375l0.536-1.268l0.162-0.374l0.4-1.342l0.137-0.383l0.441-1.302l0.739-2.058
	l0.449-1.327l0.137-0.383l0.488-1.283l0.738-2.059l0.424-1.333l0.167-0.237l0.178-0.046l0.25,0.062l0.189,0.068l0.368,0.106
	l0.567,0.229l0.383,0.138l1.118,0.348l1.485,0.532l0.246,0.143l-0.003,0.159l-0.069,0.271l-0.177,0.64l-0.115,0.393l-0.841,2.346
	l-0.44,1.302l-0.137,0.384l-0.497,1.307l-0.138,0.384l-0.438,1.3l-0.138,0.383l-0.512,1.276l-0.747,2.083L66.76,169.861z"/>
<path fill="#BE1622" d="M91.523,176.091l-0.223,0.18l-0.5,0.355l-0.326,0.195l-0.519,0.303l-0.325,0.168l-0.536,0.224l-0.349,0.142
	l-0.61,0.215l-0.393,0.087l-0.443,0.08l-0.437,0.029l-0.646,0.058l-0.896,0.006l-0.458-0.025l-0.636-0.017l-1.315-0.141
	l-0.427-0.073l-0.423-0.097l-0.423-0.121l-0.417-0.148l-0.365-0.167l-1.104-0.425l-0.534-0.263l-0.313-0.187l-0.45-0.331
	l-0.277-0.259l-0.305-0.265l-0.33-0.265l-0.596-0.627l-0.271-0.336l-0.244-0.358l-0.236-0.411l-0.19-0.376l-0.164-0.378
	l-0.139-0.371l-0.195-0.559l-0.266-1.102l-0.12-0.524l-0.172-0.786l-0.01-0.384l0.038-0.585l0.066-0.377l0.07-0.401l0.045-0.431
	l0.145-0.852l0.068-0.402l0.117-0.371l0.161-0.545l0.143-0.37l0.167-0.364l0.165-0.34l0.232-0.486l0.215-0.335l0.217-0.36
	l0.244-0.357l0.267-0.354l0.266-0.329l0.29-0.301l0.315-0.324l0.338-0.296l0.335-0.247l0.357-0.241l0.332-0.222l0.868-0.467
	l0.351-0.167l0.375-0.165l0.797-0.271l0.446-0.104l0.417-0.085l0.884-0.11l0.436-0.026l0.435-0.005l0.79,0.033l0.561,0.01
	l0.378,0.065l0.553,0.085l0.92,0.228l0.347,0.115l0.57,0.163l0.858,0.349l0.338,0.19l0.52,0.387l0.333,0.241l0.608,0.525
	l0.723,0.641l0.255,0.232l0.138,0.144l0.159,0.195l0.029,0.208l-0.047,0.199l-0.174,0.187l-0.256,0.252l-0.309,0.249l-0.306,0.222
	l-0.301,0.199l-0.308,0.246l-0.484,0.459l-0.311,0.274l-0.139,0.111l-0.25,0.179l-0.185,0.057l-0.179,0.006l-0.172-0.069
	l-0.26-0.181l-0.443-0.406l-0.31-0.212l-0.528-0.312l-0.341-0.166l-0.539-0.21l-0.372-0.118l-0.626-0.117l-0.405-0.045l-0.56-0.01
	l-0.417,0.06l-0.573,0.115l-0.397,0.112l-0.342,0.091l-0.532,0.196l-0.381,0.216l-0.194,0.131l-0.338,0.297l-0.265,0.33
	l-0.213,0.309l-0.214,0.335l-0.194,0.363l-0.169,0.392l-0.123,0.42l-0.091,0.375l-0.133,0.753l-0.043,0.402l-0.042,0.636
	l-0.016,0.382l0.063,0.595l0.086,0.393l0.129,0.449l0.163,0.401l0.319,0.595l0.246,0.334l0.436,0.457l0.304,0.262l0.479,0.309
	l0.361,0.193l0.54,0.211l0.396,0.12l0.604,0.089l0.581,0.063l0.363-0.037l0.208-0.028l0.393-0.086l0.655-0.16l0.425-0.133
	l0.396-0.136l0.348-0.142l0.514-0.252l0.356-0.217l0.27-0.149l0.158-0.034l0.222,0.074l0.26,0.209l0.25,0.281l0.084,0.163
	l0.223,0.306l0.351,0.55l0.219,0.329l0.598,0.855l0.195,0.33l0.114,0.14l0.102,0.242L91.523,176.091z"/>
<path fill="#BE1622" d="M116.881,165.212l0.056,0.403l0.065,0.582l0.026,0.384l0.002,0.778l0.066,0.585l0.025,0.384l0.005,0.412
	l-0.021,0.396l-0.144,0.572l-0.104,0.384l-0.445,1.259l-0.159,0.368l-0.184,0.374l-0.194,0.326l-0.312,0.503l-0.224,0.305
	l-0.274,0.313l-0.252,0.287l-0.389,0.389l-0.283,0.265l-0.334,0.276l-0.318,0.22l-0.457,0.301l-0.354,0.173l-0.749,0.413
	l-0.396,0.21l-0.379,0.18l-0.404,0.187l-0.408,0.159l-0.418,0.111l-1.347,0.272l-0.855,0.12l-0.843,0.067l-0.364-0.003l-0.394-0.024
	l-1.437-0.176l-0.424-0.043l-0.459-0.091l-0.869-0.186l-0.413-0.124l-0.419-0.149l-0.375-0.183l-0.38-0.209l-0.364-0.263l-0.34-0.27
	l-0.807-0.536l-0.312-0.249l-0.314-0.272l-0.265-0.284l-0.3-0.457l-0.604-1.047l-0.254-0.493l-0.149-0.357l-0.155-0.384l-0.15-0.359
	l-0.187-0.532l-0.099-0.369l-0.111-0.417l-0.086-0.426l-0.062-0.428l-0.065-0.453l-0.037-0.435l-0.011-0.438l0.014-0.442l0.04-0.449
	l0.047-0.399l0.07-0.428l0.057-0.609l0.095-0.435l0.055-0.243l0.124-0.415l0.238-0.619l0.177-0.398l0.084-0.225l0.239-0.359
	l0.354-0.434l0.272-0.316l0.278-0.288l0.648-0.651l0.282-0.264l0.309-0.272l0.313-0.244l0.479-0.329l0.323-0.196l0.348-0.2
	l0.353-0.175l0.913-0.366l0.357-0.15l1.217-0.403l0.786-0.21l0.757-0.102l0.604-0.096l0.433-0.036l0.439-0.012l0.442,0.014
	l0.439-0.01l0.42,0.019l0.394,0.024l0.399,0.049l0.562,0.094l0.378,0.079l0.919,0.307l0.369,0.158l0.375,0.183l0.504,0.312
	l0.326,0.196l0.328,0.218l0.286,0.253l0.444,0.403l0.264,0.283l0.24,0.288l0.266,0.284l0.374,0.443l0.266,0.281l0.251,0.34
	l0.194,0.323l0.24,0.548l0.3,0.717l0.138,0.415l0.16,0.407L116.881,165.212z M111.458,169.682l0.152-0.395l0.137-0.598l0.076-0.404
	l0.009-0.599l-0.026-0.383l-0.071-0.608l-0.088-0.425l-0.109-0.418l-0.105-0.394l-0.301-0.718l-0.172-0.329l-0.384-0.492
	l-0.266-0.282l-0.439-0.379l-0.305-0.224l-0.453-0.323l-0.32-0.17l-0.723-0.241l-0.38-0.079l-0.423-0.044l-0.415,0.007l-0.807,0.111
	l-0.37,0.102l-0.542,0.135l-0.36,0.151l-0.611,0.304l-0.367,0.23l-0.513,0.417l-0.304,0.294l-0.328,0.43l-0.213,0.354l-0.199,0.428
	l-0.133,0.364l-0.046,0.166l-0.118,0.569l-0.049,0.398l-0.041,0.189l-0.001,0.364l0.02,0.357l0.045,0.354l0.052,0.379l0.075,0.374
	l0.105,0.393l0.157,0.384l0.068,0.219l0.176,0.354l0.085,0.165l0.194,0.324l0.141,0.178l0.271,0.309l0.165,0.174l0.344,0.294
	l0.187,0.146l0.36,0.238l0.583,0.321l0.395,0.154l0.438,0.118l0.405,0.073l0.558,0.069l0.389-0.002l0.64-0.051l0.427-0.061
	l0.613-0.177l0.389-0.131l0.522-0.234l0.32-0.222l0.477-0.461l0.253-0.282l0.318-0.48l0.194-0.322L111.458,169.682z"/>
<path fill="#BE1622" d="M142.736,161.906l-0.234,0.255l-1.533,0.904l-1.216,0.688l-0.351,0.208l-0.96,0.624l-0.285,0.167
	l-0.249,0.03l-0.278-0.073l-1.282-0.572l-0.351-0.146l-1.257-0.528l-0.353-0.146l-1.207-0.645l-0.352-0.146l-1.256-0.53
	l-0.258-0.082l-0.168,0.01l-0.277,0.135l-0.726,0.368l-0.274,0.19l-0.095,0.234l0.101,0.324l0.667,1.229l0.229,0.338l0.812,1.174
	l0.229,0.338l0.331,0.511l0.207,0.352l0.184,0.363l0.113,0.289l-0.046,0.175l-0.202,0.206l-0.35,0.207l-1.091,0.556l-0.967,0.658
	l-0.352,0.206l-1.045,0.53l-0.289,0.109l-0.184-0.01l-0.174-0.192l-0.202-0.293l-0.215-0.315l-0.292-0.595l-0.185-0.364
	l-0.611-1.233l-0.206-0.351l-0.763-1.145l-0.227-0.337l-0.708-1.147l-0.206-0.351l-0.632-1.222l-0.207-0.349l-0.762-1.144
	l-0.208-0.352l-0.632-1.222l-0.205-0.35l-0.643-1.187l-0.207-0.35l-0.72-1.17l-0.206-0.35l-0.471-0.697l-0.171-0.342l-0.056-0.145
	l-0.103-0.322l0.029-0.253l0.223-0.221l0.162-0.125l0.316-0.217l1.011-0.537l2.658-1.448l1.438-0.968l0.349-0.204l1.498-0.766
	l0.832-0.491l0.386-0.196l0.366-0.129l0.537-0.141l0.394-0.084l0.405-0.063l0.428-0.074l0.419-0.041l0.389,0.007l0.583,0.04
	l0.357,0.055l0.348,0.09l0.374,0.133l0.565,0.258l0.363,0.169l0.509,0.26l0.334,0.218l0.348,0.238l0.315,0.285l0.273,0.312
	l0.229,0.336l0.329,0.456l0.205,0.352l0.184,0.362l0.178,0.396l0.152,0.413l0.12,0.4l0.063,0.407l0.038,0.418l-0.002,0.444
	l-0.028,0.402l-0.044,0.379l-0.055,0.356l-0.144,0.557l-0.125,0.341l-0.297,0.498l-0.169,0.307l-0.195,0.323l-0.247,0.233
	l-0.136,0.168l0.191,0.124l1.447,0.652l0.352,0.146l1.42,0.607l0.376,0.135l1.432,0.628l0.375,0.134l1.143,0.389l0.339,0.124
	l0.253,0.177L142.736,161.906z M131.128,157.388l0.43-0.37l0.219-0.278l0.174-0.308l0.063-0.392l-0.039-0.419l-0.12-0.402
	l-0.186-0.364l-0.24-0.357l-0.264-0.347l-0.282-0.277l-0.347-0.238l-0.352-0.146l-0.355-0.055l-0.386,0.049l-0.546,0.176
	l-0.376,0.162l-1.108,0.624l-0.35,0.206l-1.079,0.726l-0.249,0.176l-0.115,0.156l-0.053,0.209l0.121,0.254l0.317,0.489l0.251,0.325
	l0.262,0.347l0.243,0.359l0.667,1.23l0.163,0.229l0.121,0.105l0.192-0.025l0.288-0.112l1.191-0.582l0.349-0.207L131.128,157.388z"/>
<path fill="#BE1622" d="M162.605,140.688l0.32,0.176l0.096,0.316l-0.087,0.295l-0.178,0.284l-0.232,0.269l-0.42,0.411l-0.27,0.271
	l-0.749,0.866l-0.951,1.259l-0.313,0.168h-0.235l-0.294-0.088l-2.131-0.799l-0.311-0.031l-0.188,0.139l-0.219,0.216l-1.073,1.088
	l-0.267,0.308l-1.286,1.411l-1.015,1.139l-0.25,0.288l-0.23,0.307l-0.763,0.885l-0.179,0.283l-0.037,0.237l0.131,0.314l0.927,1.573
	l0.208,0.382l0.067,0.428l-0.152,0.372l-0.265,0.308l-1.023,1.067l-0.265,0.307l-0.955,1.261l-0.197,0.268l-0.313,0.131
	l-0.346-0.028l-0.232-0.236l-0.121-0.173l-0.209-0.38l-0.362-0.785l-0.19-0.364l-0.662-1.412l-0.169-0.349l-0.647-1.432
	l-0.188-0.363l-0.656-1.341l-0.191-0.365l-0.628-1.45l-0.169-0.349l-0.98-2.056l-0.69-1.536l-0.191-0.4l-0.5-1.171l-0.191-0.401
	l-0.571-1.131l-0.188-0.364l-0.492-1.029l-0.127-0.279l0.05-0.292l0.193-0.337l0.725-0.92l1.297-1.5l0.783-0.87l0.341-0.277
	l0.337-0.078l0.334,0.119l0.983,0.377l0.388,0.134l1.32,0.301l0.37,0.119l1.31,0.39l0.369,0.118l1.281,0.501l0.367,0.117l1.29,0.374
	l0.368,0.116l1.31,0.393l0.369,0.115l1.296,0.446l0.37,0.118l1.708,0.433l1.303,0.321l0.386,0.098l1.662,0.526L162.605,140.688z
	 M151.626,142.431l-0.316-0.14l-1.675-0.708l-0.371-0.151l-1.47-0.596l-0.332-0.12l-0.301,0.075l-0.275,0.201l-0.123,0.261
	l0.025,0.359l0.861,1.65l0.188,0.364l0.859,1.614l0.238,0.308l0.28,0.142l0.279-0.129l0.271-0.236l1.048-1.213l0.839-0.854
	l0.141-0.316l-0.023-0.287L151.626,142.431z"/>
<path fill="#BE1622" d="M161.319,110.859l0.371,0.171l3.514,1.347l1.405,0.459l0.38,0.144l3.15,1.155l0.404,0.156l0.181,0.096
	l0.395,0.179l1.112,0.509l1.386,0.505l0.323,0.15l0.249,0.204l0.187,0.29l0.077,0.301l-0.011,0.242l-0.104,0.341l-0.417,1.23
	l-0.123,0.389l-0.202,0.603l-0.146,0.379l-0.19,0.282l-0.228,0.239l-0.323,0.202l-0.39,0.095l-0.825,0.093l-0.391,0.096l-1.52,0.478
	l-0.376,0.13l-1.495,0.488l-0.392,0.094l-1.552,0.357l-0.366,0.104l-1.496,0.489l-0.376,0.129l-1.5,0.43l-0.273,0.142l0.009,0.194
	l0.258,0.181l1.168,0.504l0.381,0.146l1.195,0.43l0.381,0.146l1.338,0.487l0.379,0.146l1.304,0.58l0.389,0.123l1.004,0.222
	l0.39,0.122l0.28,0.19l0.104,0.231l-0.018,0.182l-0.063,0.303l-0.046,0.201l-0.133,0.412l-0.443,1.082l-0.146,0.381l-0.325,0.99
	l-0.146,0.38l-0.162,0.348l-0.148,0.243l-0.19,0.146l-0.204,0.028l-0.255-0.041l-0.175-0.042l-0.355-0.136l-0.765-0.349
	l-0.371-0.168l-1.285-0.414l-0.381-0.144l-2.877-1.16l-0.372-0.169l-1.23-0.554l-0.37-0.17l-1.64-0.63l-1.294-0.387l-0.38-0.146
	l-1.223-0.576l-0.387-0.123l-1.318-0.397l-0.39-0.121l-0.546-0.21l-0.348-0.16l-0.338-0.185l-0.242-0.146l-0.14-0.137l-0.017-0.168
	l0.055-0.28l0.225-0.729l0.319-0.695l0.685-1.779l0.133-0.276l0.141-0.082l0.268-0.061l1.451-0.588l0.376-0.127l1.476-0.44
	l0.377-0.129l1.501-0.433l0.377-0.128l1.514-0.399l0.367-0.104l1.484-0.465l0.377-0.128l1.515-0.398l0.24-0.127l0.097-0.182
	l-0.056-0.21l-0.262-0.102l-1.061-0.216l-0.39-0.122l-0.992-0.463l-0.38-0.146l-1.486-0.461l-0.379-0.145l-1.411-0.651l-0.39-0.123
	l-0.905-0.265l-0.594-0.228l-0.281-0.19l-0.153-0.167l-0.031-0.201l0.062-0.305l0.082-0.214l0.132-0.413l0.48-1.041l0.145-0.379
	l0.265-0.826l0.16-0.347l0.233-0.537l0.148-0.244l0.134-0.138l0.22-0.08l0.353,0.081l0.223,0.06l0.412,0.132l0.718,0.329
	l0.359,0.193L161.319,110.859z"/>
<path fill="#BE1622" d="M169.136,87.311l0.431,0.042l0.607,0.049l0.403,0.092l0.578,0.201l0.401,0.142l0.376,0.169l0.4,0.168
	l0.425,0.169l0.375,0.167l0.548,0.3l0.323,0.217l0.392,0.371l0.271,0.266l0.389,0.448l0.538,0.58l0.266,0.34l0.362,0.5l0.189,0.338
	l0.26,0.518l0.14,0.336l0.182,0.566l0.113,0.388l0.086,0.411l0.059,0.407l0.169,1.56l0.011,0.383L177.457,97l-0.017,0.406
	l-0.056,0.812l-0.077,0.659l-0.017,0.405l0.02,0.817v0.634l0.008,0.434l-0.039,0.381l-0.069,1.777l-0.041,0.38l-0.144,1.09
	l-0.111,0.199l-0.132,0.122l-0.281,0.039l-0.406,0.009l-0.202-0.032l-0.761-0.08l-0.355-0.015l-0.585-0.048l-0.382-0.016
	l-0.404-0.041l-0.406-0.015l-1.347-0.029l-0.407-0.016l-1.349-0.003l-0.381-0.039l-0.556-0.049l-0.381-0.065l-0.43-0.04
	l-0.408-0.017l-0.662,0.024l-0.433,0.009l-0.229-0.009l-0.432,0.009l-1.344-0.155l-0.406-0.017l-1.347-0.027l-0.408-0.015
	l-1.348,0.022l-0.99-0.037l-0.406-0.043l-0.379-0.091l-0.278-0.062l-0.148-0.108l-0.064-0.281l-0.034-0.433l-0.036-0.384
	l-0.01-0.409l0.113-2.233l0.017-0.407l0.124-1.216l0.034-0.202l0.018-0.457l-0.011-1.07l-0.009-0.382l0.016-0.406l0.075-0.632
	l0.082-0.812l0.067-0.405l0.129-0.655l0.092-0.404l0.115-0.377l0.366-0.901l0.193-0.375l0.218-0.375l0.217-0.348l0.618-0.814
	l0.291-0.32l0.269-0.294l0.555-0.539l0.264-0.243l0.288-0.218l0.337-0.165l0.57-0.259l0.388-0.137l0.411-0.111l0.411-0.136
	l0.412-0.111l0.411-0.086l0.563-0.08l0.409-0.06l0.435-0.059l0.407-0.036l0.611-0.001l0.407-0.01L169.136,87.311z M171.093,93.188
	l-0.374-0.192l-0.425-0.17l-0.38-0.115l-0.553-0.126l-0.356-0.037l-0.582-0.049l-0.813-0.031l-0.406,0.008l-0.588,0.055
	l-0.386,0.086l-0.153,0.045l-0.391,0.188l-0.549,0.36l-0.132,0.121l-0.288,0.244l-0.292,0.269l-0.239,0.295l-0.353,0.547
	l-0.168,0.351l-0.088,0.352l-0.094,0.402l-0.05,0.636l-0.042,0.431l-0.024,0.636l-0.048,0.558l0.011,0.382l0.054,0.562l0.065,0.284
	l0.123,0.131l0.301,0.089l0.229,0.033l0.38,0.04l0.765-0.02l0.407-0.01l0.561-0.03l0.408-0.034l0.407-0.01l0.407,0.016l0.559,0.048
	l1.219,0.048l0.431,0.043l0.405,0.041l0.556,0.072l0.356,0.014l0.585,0.048l0.381-0.009l0.612-0.053l0.284-0.091l0.135-0.147
	l0.035-0.303l-0.059-2.37l-0.003-0.585l-0.061-0.409l-0.111-0.438l-0.135-0.412l-0.163-0.388l-0.216-0.341l-0.388-0.472
	l-0.295-0.267L171.093,93.188z"/>
<path fill="#BE1622" d="M162.111,61.53l0.396-0.094l0.573-0.121l0.381-0.063l0.773-0.076l0.573-0.122l0.38-0.061l0.413-0.046
	l0.395-0.014l0.584,0.088l0.392,0.067l1.297,0.325l0.383,0.122l0.389,0.147l0.342,0.162l0.532,0.264l0.324,0.193l0.339,0.242
	l0.31,0.226l0.424,0.349l0.29,0.258l0.306,0.304l0.25,0.296l0.345,0.429l0.206,0.335l0.481,0.704l0.245,0.375l0.218,0.359
	l0.223,0.385l0.198,0.39l0.15,0.408l0.398,1.313l0.203,0.841l0.147,0.834l0.031,0.362l0.013,0.394l-0.039,1.447l-0.003,0.426
	l-0.046,0.465l-0.103,0.882l-0.085,0.424l-0.105,0.432l-0.148,0.389l-0.171,0.399l-0.228,0.387l-0.235,0.364l-0.457,0.857
	l-0.218,0.331l-0.242,0.341l-0.258,0.29l-0.428,0.343l-0.983,0.698l-0.467,0.3l-0.343,0.184l-0.366,0.191l-0.342,0.184l-0.515,0.236
	l-0.358,0.134l-0.405,0.151l-0.414,0.127l-0.42,0.1l-0.445,0.109l-0.428,0.076l-0.438,0.053l-0.443,0.03l-0.45,0.004l-0.402-0.012
	l-0.432-0.028h-0.613l-0.44-0.052l-0.249-0.029l-0.422-0.085l-0.641-0.178l-0.413-0.139l-0.232-0.062l-0.381-0.204l-0.467-0.31
	l-0.339-0.243l-0.315-0.248l-0.708-0.583l-0.291-0.257l-0.3-0.281l-0.273-0.29l-0.373-0.444l-0.225-0.305l-0.233-0.328l-0.209-0.334
	l-0.451-0.873l-0.184-0.342l-0.515-1.173l-0.288-0.763l-0.171-0.745l-0.154-0.591l-0.077-0.429l-0.053-0.435l-0.027-0.443
	l-0.054-0.436l-0.021-0.419l-0.013-0.395l0.01-0.402l0.04-0.571l0.043-0.383l0.218-0.944l0.123-0.383l0.145-0.39l0.265-0.533
	l0.164-0.341l0.185-0.35l0.226-0.308l0.359-0.48l0.257-0.291l0.264-0.266l0.257-0.29l0.406-0.417l0.257-0.29l0.314-0.281
	l0.302-0.226l0.522-0.291l0.686-0.369l0.399-0.175l0.391-0.199L162.111,61.53z M164.078,66.513l-0.414,0.125l-0.405,0.151
	l-0.383,0.142l-0.685,0.368l-0.312,0.202l-0.453,0.429l-0.257,0.291l-0.335,0.475l-0.195,0.323l-0.275,0.484l-0.139,0.334
	l-0.173,0.745l-0.042,0.383l-0.003,0.427l0.045,0.412l0.188,0.792l0.136,0.359l0.188,0.528l0.185,0.342l0.36,0.58l0.266,0.345
	l0.462,0.472l0.322,0.273l0.46,0.286l0.371,0.18l0.447,0.156l0.376,0.1l0.168,0.027l0.577,0.065l0.402,0.01l0.192,0.021l0.363-0.032
	l0.354-0.054l0.35-0.08l0.372-0.086l0.364-0.11l0.382-0.142l0.368-0.194l0.212-0.091l0.334-0.208l0.155-0.1l0.303-0.225l0.166-0.156
	l0.282-0.3l0.155-0.179l0.261-0.371l0.127-0.199l0.203-0.379l0.266-0.613l0.115-0.406l0.077-0.449l0.033-0.41l0.016-0.562
	l-0.038-0.388l-0.111-0.63l-0.102-0.42l-0.234-0.594l-0.165-0.375l-0.284-0.498l-0.252-0.296l-0.502-0.431l-0.309-0.225
	l-0.508-0.272l-0.341-0.162l-0.485-0.198l-0.406-0.116l-0.61-0.079l-0.41-0.036l-0.596,0.048l-0.381,0.062L164.078,66.513z"/>
<path fill="#FFFFFF" d="M11.675,76.886l-0.138-0.253l-0.258-0.554l-0.133-0.358l-0.202-0.564l-0.108-0.352l-0.123-0.566
	l-0.076-0.369l-0.1-0.64l-0.013-0.403l0.002-0.45l0.05-0.436l0.061-0.646l0.158-0.88l0.106-0.445l0.134-0.625l0.378-1.266
	l0.149-0.406l0.172-0.4l0.197-0.393l0.221-0.385l0.231-0.329l0.62-1.008l0.355-0.478l0.242-0.273l0.406-0.382l0.307-0.227
	l0.314-0.252l0.32-0.274l0.726-0.473l0.38-0.206l0.397-0.173l0.445-0.16l0.408-0.118l0.397-0.093l0.393-0.068l0.585-0.09
	l1.132-0.062l0.537-0.024l0.804-0.024l0.38,0.06l0.567,0.143l0.359,0.134l0.382,0.141l0.415,0.123l0.813,0.297l0.382,0.141
	l0.343,0.182l0.508,0.258l0.336,0.208l0.329,0.23l0.304,0.223l0.437,0.316l0.292,0.272l0.312,0.28l0.307,0.305l0.3,0.328
	l0.276,0.322l0.244,0.338l0.261,0.37l0.23,0.387l0.181,0.373l0.173,0.397l0.156,0.364l0.304,0.939l0.1,0.375l0.092,0.398
	l0.123,0.833l0.022,0.458l0.005,0.427l-0.052,0.886l-0.051,0.436l-0.075,0.429l-0.176,0.771l-0.112,0.549l-0.132,0.359l-0.187,0.528
	l-0.39,0.865l-0.174,0.318l-0.266,0.532l-0.499,0.779l-0.247,0.299l-0.478,0.441l-0.297,0.282l-0.626,0.502l-0.764,0.596
	l-0.272,0.209l-0.167,0.109l-0.221,0.121l-0.21-0.01L24.5,80.322l-0.152-0.204l-0.202-0.301l-0.187-0.347l-0.163-0.34l-0.14-0.333
	l-0.187-0.349l-0.364-0.559l-0.214-0.356l-0.084-0.157l-0.129-0.278l-0.023-0.193l0.028-0.177l0.099-0.156l0.227-0.225l0.479-0.361
	l0.264-0.266l0.404-0.463l0.224-0.305l0.307-0.491l0.182-0.344l0.23-0.594l0.117-0.391l0.111-0.551l0.019-0.418l-0.01-0.586
	L25.3,71.168l-0.028-0.354l-0.099-0.559l-0.141-0.415l-0.095-0.214l-0.229-0.387l-0.276-0.322l-0.265-0.263l-0.291-0.273
	l-0.321-0.255l-0.354-0.238l-0.392-0.198l-0.35-0.157l-0.717-0.267l-0.39-0.115l-0.615-0.159l-0.373-0.084l-0.598-0.047l-0.4,0.012
	L18.9,66.92l-0.425,0.084l-0.644,0.206l-0.373,0.18l-0.529,0.347l-0.313,0.251l-0.391,0.414l-0.255,0.322l-0.306,0.492l-0.188,0.368
	l-0.201,0.577l-0.167,0.561l-0.029,0.362l-0.01,0.211l0.013,0.4l0.038,0.675l0.055,0.439l0.061,0.418l0.075,0.367l0.155,0.55
	l0.148,0.39l0.098,0.295l0.005,0.161l-0.113,0.204l-0.251,0.217l-0.325,0.195l-0.174,0.054l-0.341,0.164l-0.604,0.245l-0.365,0.155
	l-0.952,0.433l-0.357,0.132l-0.16,0.084l-0.254,0.055L11.675,76.886z"/>
<path fill="#FFFFFF" d="M17.821,103.853l-0.407-0.017l-0.585-0.041l-0.382-0.043l-0.765-0.14l-0.585-0.04l-0.383-0.042l-0.408-0.069
	l-0.384-0.096l-0.538-0.244l-0.359-0.171l-1.157-0.665l-0.335-0.222l-0.334-0.249l-0.284-0.247l-0.441-0.4l-0.259-0.275
	l-0.261-0.324l-0.234-0.301l-0.313-0.454l-0.208-0.325L8.985,99.11l-0.158-0.353l-0.213-0.505l-0.109-0.379l-0.271-0.81L8.1,96.634
	l-0.11-0.405l-0.109-0.432l-0.085-0.429l-0.034-0.433l-0.025-1.373L7.773,92.7l0.084-0.842L7.927,91.5l0.096-0.382l0.432-1.38
	l0.119-0.411l0.171-0.435l0.34-0.82l0.197-0.387L9.503,87.3l0.249-0.334l0.271-0.337l0.326-0.312l0.324-0.285l0.674-0.699l0.3-0.26
	l0.325-0.261l0.327-0.209l0.506-0.212l1.137-0.402l0.53-0.163l0.381-0.083l0.404-0.084l0.379-0.084l0.558-0.086l0.382-0.032
	l0.43-0.034l0.434-0.009l0.433,0.018l0.458,0.017l0.433,0.042l0.435,0.067l0.435,0.094l0.434,0.12l0.383,0.118l0.411,0.146
	l0.587,0.168l0.412,0.169l0.23,0.097l0.385,0.197l0.564,0.346l0.363,0.247l0.205,0.124l0.311,0.299l0.364,0.426l0.259,0.325
	l0.236,0.325l0.523,0.755l0.208,0.326l0.21,0.353l0.185,0.352l0.239,0.53l0.133,0.354l0.133,0.379l0.11,0.378l0.194,0.962
	l0.084,0.381l0.176,1.269l0.066,0.812l-0.036,0.765l-0.014,0.609l-0.044,0.434l-0.067,0.434l-0.094,0.435l-0.068,0.433l-0.096,0.41
	l-0.093,0.382l-0.12,0.384l-0.194,0.538l-0.146,0.358l-0.466,0.849l-0.224,0.334l-0.249,0.336l-0.397,0.438l-0.249,0.285
	l-0.276,0.285l-0.301,0.233l-0.477,0.366l-0.325,0.208l-0.327,0.185l-0.328,0.211l-0.504,0.289l-0.326,0.208l-0.379,0.186
	l-0.353,0.133l-0.584,0.138l-0.758,0.168l-0.431,0.059l-0.431,0.085L17.821,103.853z M14.401,97.712l0.36,0.222l0.563,0.244
	l0.385,0.145l0.586,0.116l0.383,0.045l0.612,0.04l0.432-0.009l0.43-0.034l0.408-0.033l0.759-0.166l0.354-0.107l0.556-0.291
	l0.326-0.209l0.451-0.365l0.274-0.259l0.399-0.389l0.224-0.285l0.369-0.668l0.147-0.358l0.119-0.409l0.068-0.409l0.037-0.813
	l-0.033-0.38l-0.036-0.559l-0.083-0.381l-0.19-0.658l-0.161-0.404l-0.316-0.58l-0.235-0.351l-0.363-0.399l-0.311-0.274l-0.387-0.272
	l-0.333-0.197l-0.153-0.073l-0.539-0.22l-0.383-0.12l-0.181-0.073l-0.357-0.07l-0.356-0.043l-0.356-0.019l-0.382-0.02l-0.381,0.007
	l-0.407,0.035l-0.405,0.083l-0.228,0.029l-0.378,0.11l-0.178,0.053l-0.353,0.134l-0.204,0.106l-0.351,0.209l-0.2,0.13l-0.352,0.288
	l-0.175,0.155l-0.3,0.311l-0.422,0.516l-0.222,0.361l-0.196,0.411l-0.146,0.384l-0.168,0.536l-0.069,0.384l-0.064,0.637
	l-0.017,0.432l0.062,0.636l0.059,0.406l0.137,0.558l0.159,0.354l0.367,0.552l0.235,0.3l0.414,0.398l0.284,0.25L14.401,97.712z"/>
<path fill="#FFFFFF" d="M18.192,128.551l-0.261-0.122l-0.537-0.292l-0.319-0.211l-0.499-0.333l-0.294-0.22l-0.436-0.382l-0.28-0.25
	l-0.461-0.457l-0.249-0.315l-0.267-0.363l-0.217-0.383l-0.335-0.553l-0.396-0.805l-0.181-0.421l-0.262-0.581l-0.448-1.243
	l-0.122-0.416l-0.098-0.423l-0.075-0.434l-0.05-0.44l-0.009-0.404l-0.101-1.176l0.002-0.596l0.033-0.364l0.098-0.547l0.113-0.366
	l0.103-0.39l0.095-0.411l0.303-0.812l0.184-0.39l0.217-0.374l0.264-0.393l0.258-0.337l0.266-0.312l0.274-0.288l0.416-0.421
	l0.875-0.719l0.419-0.341l0.632-0.496l0.341-0.178l0.541-0.222l0.368-0.105l0.39-0.113l0.409-0.146l0.828-0.244l0.392-0.113
	l0.386-0.059l0.56-0.093l0.393-0.033l0.402-0.011h0.378l0.538-0.004l0.396,0.048l0.418,0.036l0.428,0.063l0.436,0.085l0.413,0.096
	l0.397,0.128l0.429,0.142l0.415,0.175l0.366,0.192l0.374,0.218l0.343,0.2l0.803,0.576l0.304,0.243l0.311,0.266l0.594,0.597
	l0.288,0.354l0.258,0.341l0.484,0.745l0.217,0.38l0.194,0.39l0.315,0.725l0.237,0.509l0.104,0.368l0.167,0.535l0.198,0.928
	l0.049,0.36l0.101,0.584l0.062,0.924l-0.023,0.387l-0.122,0.638l-0.07,0.404l-0.207,0.777l-0.259,0.929l-0.097,0.334l-0.067,0.186
	l-0.108,0.229l-0.174,0.116l-0.2,0.045l-0.243-0.075l-0.34-0.12l-0.358-0.17l-0.334-0.177l-0.309-0.186l-0.36-0.168l-0.624-0.235
	l-0.381-0.158l-0.164-0.077l-0.269-0.146l-0.131-0.141l-0.085-0.16l-0.013-0.185l0.051-0.313l0.17-0.575l0.056-0.373l0.05-0.612
	v-0.376l-0.046-0.578l-0.058-0.385l-0.167-0.616l-0.138-0.382l-0.237-0.51l-0.234-0.349l-0.356-0.466l-0.272-0.308l-0.231-0.267
	l-0.412-0.392l-0.359-0.25l-0.205-0.114l-0.414-0.176l-0.413-0.096l-0.371-0.055l-0.395-0.049l-0.41-0.014l-0.426,0.019
	l-0.434,0.074l-0.375,0.082l-0.735,0.21l-0.384,0.139l-0.589,0.238l-0.348,0.152l-0.508,0.319l-0.315,0.246l-0.348,0.314l-0.29,0.32
	l-0.397,0.549l-0.192,0.367l-0.219,0.591l-0.104,0.388l-0.066,0.565l-0.015,0.41l0.047,0.579l0.065,0.406l0.182,0.584l0.199,0.551
	l0.191,0.31l0.116,0.171l0.249,0.317l0.431,0.521l0.305,0.321l0.297,0.299l0.279,0.251l0.449,0.352l0.352,0.224l0.254,0.181
	l0.099,0.125l0.03,0.231l-0.072,0.325l-0.146,0.349l-0.109,0.146l-0.177,0.334l-0.341,0.557l-0.201,0.342l-0.508,0.913l-0.211,0.317
	l-0.076,0.163l-0.172,0.197L18.192,128.551z"/>
<path fill="#FFFFFF" d="M39.148,146.587l-0.337,0.229l-0.496,0.316l-0.332,0.192l-0.698,0.343l-0.496,0.315l-0.332,0.194
	l-0.369,0.187l-0.365,0.151l-0.577,0.124l-0.391,0.076l-1.324,0.155l-0.402,0.018h-0.418l-0.376-0.029l-0.59-0.061l-0.371-0.067
	l-0.403-0.105l-0.368-0.102l-0.521-0.178l-0.363-0.139l-0.395-0.177l-0.336-0.189l-0.471-0.28l-0.314-0.24l-0.696-0.489
	l-0.364-0.265l-0.331-0.26l-0.342-0.28l-0.324-0.297l-0.283-0.327l-0.836-1.088l-0.487-0.717l-0.43-0.727l-0.157-0.329l-0.152-0.363
	l-0.473-1.367l-0.148-0.4l-0.123-0.449l-0.214-0.862l-0.07-0.427l-0.052-0.442v-0.417l0.021-0.432l0.077-0.442l0.091-0.423
	l0.125-0.964l0.087-0.388l0.105-0.403l0.138-0.362l0.281-0.47l0.673-1.001l0.331-0.445l0.255-0.293l0.277-0.309l0.254-0.293
	l0.397-0.401l0.286-0.252l0.33-0.284l0.342-0.263l0.358-0.244l0.377-0.258l0.373-0.225l0.39-0.202l0.403-0.183l0.419-0.164
	l0.38-0.132l0.415-0.125l0.571-0.216l0.432-0.106l0.243-0.059l0.428-0.072l0.659-0.058l0.438-0.017l0.239-0.023l0.428,0.056
	l0.545,0.126l0.402,0.108l0.384,0.122l0.868,0.294l0.361,0.138l0.378,0.159l0.358,0.173l0.507,0.284l0.317,0.204l0.332,0.225
	l0.314,0.241l0.729,0.656l0.294,0.256l0.896,0.914l0.535,0.613l0.426,0.637l0.351,0.497l0.225,0.375l0.202,0.39l0.181,0.403
	l0.204,0.389l0.168,0.386l0.152,0.364l0.13,0.379l0.166,0.547l0.096,0.375l0.127,0.959l0.021,0.402v0.417l-0.06,0.59l-0.03,0.377
	l-0.052,0.393l-0.103,0.367l-0.166,0.575l-0.137,0.362l-0.154,0.344l-0.138,0.363l-0.233,0.531l-0.138,0.362l-0.193,0.374
	l-0.204,0.316l-0.386,0.458l-0.512,0.585l-0.311,0.304l-0.296,0.325L39.148,146.587z M32.748,143.686l0.422-0.035l0.598-0.139
	l0.395-0.113l0.542-0.254l0.332-0.192l0.513-0.333l0.344-0.263l0.327-0.282l0.309-0.271l0.51-0.585l0.22-0.298l0.272-0.562
	l0.139-0.361l0.145-0.562l0.067-0.371l0.09-0.55l0.011-0.362l-0.101-0.755l-0.096-0.376l-0.146-0.398l-0.187-0.369l-0.456-0.676
	l-0.253-0.287l-0.36-0.429l-0.295-0.255l-0.543-0.416l-0.368-0.229l-0.598-0.277l-0.399-0.143l-0.53-0.105l-0.412-0.036
	l-0.472,0.011l-0.387,0.04l-0.167,0.032l-0.562,0.144l-0.381,0.133l-0.187,0.047l-0.329,0.158l-0.312,0.176l-0.299,0.196
	l-0.317,0.214l-0.301,0.231l-0.306,0.269l-0.276,0.31l-0.167,0.157l-0.238,0.314l-0.11,0.146l-0.206,0.319l-0.099,0.205
	l-0.156,0.378l-0.084,0.225l-0.113,0.439l-0.047,0.229l-0.056,0.427l-0.034,0.667l0.037,0.42l0.087,0.448l0.111,0.396l0.185,0.53
	l0.169,0.349l0.329,0.551l0.243,0.357l0.428,0.473l0.29,0.293l0.44,0.366l0.337,0.188l0.625,0.226l0.366,0.103l0.57,0.073
	l0.376,0.032L32.748,143.686z"/>
<path fill="#FFFFFF" d="M53.396,168.385l-0.332-0.099l-1.483-0.984l-1.151-0.796l-0.338-0.226l-0.98-0.59l-0.277-0.184l-0.134-0.212
	l-0.056-0.281l-0.045-1.404l-0.022-0.381l-0.072-1.361l-0.022-0.38l0.055-1.369l-0.021-0.38l-0.074-1.36l-0.036-0.27l-0.084-0.147
	l-0.24-0.189l-0.65-0.494l-0.29-0.161l-0.254,0.014l-0.247,0.234l-0.816,1.138l-0.204,0.352l-0.704,1.242l-0.204,0.353l-0.316,0.523
	l-0.226,0.338l-0.245,0.325l-0.212,0.225l-0.176,0.037l-0.276-0.091l-0.338-0.226l-0.975-0.738l-1.015-0.586l-0.34-0.225
	l-0.931-0.71l-0.227-0.212l-0.069-0.168l0.098-0.239l0.175-0.312l0.19-0.332l0.408-0.522l0.247-0.323l0.845-1.09l0.225-0.337
	l0.697-1.187l0.204-0.352l0.724-1.136l0.226-0.34l0.823-1.102l0.225-0.34l0.697-1.185l0.224-0.341l0.824-1.101l0.226-0.339
	l0.788-1.094l0.226-0.338l0.739-1.157l0.225-0.34l0.421-0.727l0.232-0.305l0.107-0.112l0.247-0.233l0.239-0.084l0.295,0.105
	l0.184,0.091l0.333,0.19l0.924,0.676l2.464,1.76l1.496,0.87l0.339,0.227l1.342,1.014l0.803,0.536l0.349,0.259l0.274,0.274
	l0.36,0.422l0.247,0.319l0.234,0.338l0.254,0.352l0.219,0.359l0.162,0.352l0.22,0.545l0.107,0.343l0.072,0.354l0.041,0.394
	l0.017,0.622l0.006,0.402l-0.013,0.571l-0.047,0.395l-0.063,0.416l-0.12,0.409l-0.161,0.382l-0.205,0.353l-0.267,0.495l-0.225,0.338
	l-0.246,0.325l-0.284,0.331l-0.302,0.316l-0.31,0.285l-0.338,0.232l-0.36,0.22l-0.402,0.189l-0.373,0.15l-0.36,0.127l-0.344,0.105
	l-0.565,0.114l-0.358,0.035l-0.579-0.048l-0.352-0.021l-0.374-0.034l-0.317-0.12l-0.212-0.048l-0.029,0.225l0.046,1.587l0.021,0.381
	l0.074,1.544l0.043,0.396l0.058,1.564l0.044,0.396l0.149,1.198l0.037,0.36l-0.051,0.304L53.396,168.385z M52.399,155.968
	l0.522,0.225l0.345,0.076l0.354,0.021L54,156.176l0.359-0.218l0.309-0.284l0.247-0.324l0.217-0.374l0.196-0.388l0.127-0.374
	l0.063-0.416l-0.022-0.382l-0.106-0.345l-0.213-0.323l-0.396-0.418l-0.31-0.266l-1.045-0.726l-0.339-0.226l-1.122-0.653
	l-0.269-0.148l-0.19-0.035l-0.21,0.043l-0.177,0.22l-0.302,0.502l-0.184,0.365l-0.196,0.388l-0.217,0.374l-0.817,1.138l-0.134,0.247
	l-0.041,0.154l0.106,0.163l0.226,0.211l1.045,0.817l0.339,0.226L52.399,155.968z"/>
<path fill="#FFFFFF" d="M67.831,169.861l-0.137,0.384l-0.56,1.259l-0.138,0.383l-0.495,1.308l-0.095,0.264l-0.115,0.094
	l-0.217,0.003l-0.343-0.097l-1.212-0.461l-1.484-0.533l-1.163-0.524l-0.127-0.101l-0.045-0.096l0.085-0.24l0.166-0.616l0.139-0.383
	l0.104-0.367l0.13-0.36l0.391-1.316l0.161-0.375l0.537-1.268l0.161-0.374l0.401-1.342l0.137-0.383l0.44-1.302l0.738-2.058
	l0.449-1.327l0.137-0.383l0.489-1.283l0.737-2.059l0.424-1.333l0.167-0.237l0.179-0.046l0.249,0.062l0.189,0.068l0.368,0.106
	l0.567,0.229l0.383,0.138l1.118,0.348l1.485,0.532l0.245,0.143l-0.002,0.159l-0.072,0.271l-0.174,0.64l-0.114,0.393l-0.842,2.346
	l-0.441,1.302l-0.137,0.384l-0.497,1.307l-0.137,0.384l-0.438,1.3l-0.138,0.383l-0.513,1.276l-0.745,2.083L67.831,169.861z"/>
<path fill="#FFFFFF" d="M92.594,176.091l-0.224,0.18l-0.5,0.355l-0.326,0.195l-0.52,0.303l-0.325,0.168l-0.534,0.224l-0.349,0.142
	l-0.612,0.215l-0.393,0.087l-0.443,0.08l-0.437,0.029l-0.647,0.058l-0.895,0.006l-0.458-0.025l-0.638-0.017l-1.314-0.141
	l-0.427-0.073l-0.423-0.097l-0.423-0.121l-0.417-0.148l-0.366-0.167l-1.104-0.425l-0.535-0.263l-0.312-0.187l-0.45-0.331
	l-0.278-0.259l-0.305-0.265l-0.329-0.265l-0.597-0.627l-0.271-0.336l-0.243-0.358l-0.236-0.411l-0.191-0.376l-0.163-0.378
	l-0.139-0.371l-0.195-0.559l-0.266-1.102l-0.121-0.524l-0.171-0.786l-0.01-0.384l0.037-0.585l0.067-0.377l0.068-0.401l0.046-0.431
	l0.143-0.852l0.07-0.402l0.117-0.371l0.16-0.545l0.143-0.37l0.168-0.364l0.164-0.34l0.232-0.486l0.216-0.335l0.217-0.36l0.243-0.357
	l0.268-0.354l0.267-0.329l0.288-0.301l0.317-0.324l0.338-0.296l0.334-0.247l0.356-0.241l0.333-0.222l0.868-0.467l0.351-0.167
	l0.375-0.165l0.796-0.271l0.446-0.104l0.417-0.085l0.882-0.11l0.437-0.026l0.436-0.005l0.789,0.033l0.562,0.01l0.377,0.065
	l0.552,0.085l0.922,0.228l0.347,0.115l0.57,0.163l0.856,0.349l0.338,0.19l0.521,0.387l0.333,0.241l0.609,0.525l0.722,0.641
	l0.257,0.232l0.138,0.144l0.159,0.195l0.028,0.208l-0.047,0.199l-0.175,0.187l-0.256,0.252l-0.308,0.249l-0.306,0.222l-0.303,0.199
	l-0.308,0.246l-0.484,0.459l-0.31,0.274l-0.14,0.111l-0.249,0.179l-0.185,0.057l-0.181,0.006l-0.171-0.069l-0.261-0.181
	l-0.442-0.406l-0.31-0.212l-0.528-0.312l-0.341-0.166l-0.54-0.21l-0.37-0.118l-0.627-0.117l-0.404-0.045l-0.561-0.01l-0.417,0.06
	l-0.574,0.115l-0.396,0.112l-0.341,0.091l-0.535,0.196l-0.381,0.216l-0.193,0.131l-0.339,0.297l-0.265,0.33l-0.213,0.309
	l-0.215,0.335l-0.192,0.363l-0.17,0.392l-0.122,0.42l-0.092,0.375l-0.133,0.753l-0.043,0.402l-0.042,0.636l-0.016,0.382l0.064,0.595
	l0.085,0.393l0.13,0.449l0.162,0.401l0.319,0.595l0.246,0.334l0.437,0.457l0.304,0.262l0.479,0.309l0.361,0.193l0.54,0.211
	l0.397,0.12l0.603,0.089l0.581,0.063l0.363-0.037l0.208-0.028l0.394-0.086l0.655-0.16l0.423-0.133l0.398-0.136l0.348-0.142
	l0.513-0.252l0.355-0.217l0.272-0.149l0.157-0.034l0.223,0.074l0.259,0.209l0.25,0.281l0.085,0.163l0.222,0.306l0.351,0.55
	l0.22,0.329l0.598,0.855l0.195,0.33l0.114,0.14l0.102,0.242L92.594,176.091z"/>
<path fill="#FFFFFF" d="M117.95,165.212l0.056,0.403l0.066,0.582l0.025,0.384l0.003,0.778l0.065,0.585l0.025,0.384l0.007,0.412
	l-0.024,0.396l-0.143,0.572l-0.104,0.384l-0.447,1.259l-0.157,0.368l-0.184,0.374l-0.194,0.326l-0.312,0.503l-0.223,0.305
	l-0.274,0.313l-0.255,0.287l-0.387,0.389l-0.284,0.265l-0.332,0.276l-0.319,0.22l-0.458,0.301l-0.352,0.173l-0.75,0.413l-0.396,0.21
	l-0.379,0.18l-0.403,0.187l-0.41,0.159l-0.417,0.111l-1.347,0.272l-0.856,0.12l-0.841,0.067l-0.365-0.003l-0.395-0.024l-1.436-0.176
	l-0.424-0.043l-0.459-0.091l-0.87-0.186l-0.412-0.124l-0.42-0.149l-0.373-0.183l-0.38-0.209l-0.364-0.263l-0.341-0.27l-0.809-0.536
	l-0.309-0.249l-0.315-0.272l-0.264-0.284l-0.3-0.457l-0.604-1.047l-0.254-0.493l-0.151-0.357l-0.154-0.384l-0.15-0.359l-0.186-0.532
	l-0.102-0.369l-0.11-0.417l-0.086-0.426l-0.061-0.428l-0.066-0.453l-0.035-0.435l-0.013-0.438l0.015-0.442l0.04-0.449l0.048-0.399
	l0.067-0.428l0.06-0.609l0.095-0.435l0.053-0.243l0.124-0.415l0.238-0.619l0.178-0.398l0.084-0.225l0.239-0.359l0.353-0.434
	l0.274-0.316l0.277-0.288l0.647-0.651l0.283-0.264l0.309-0.272l0.314-0.244l0.478-0.329l0.322-0.196l0.349-0.2l0.354-0.175
	l0.911-0.366l0.359-0.15l1.216-0.403l0.786-0.21l0.758-0.102l0.604-0.096l0.435-0.036l0.438-0.012l0.443,0.014l0.439-0.01
	l0.42,0.019l0.393,0.024l0.399,0.049l0.563,0.094l0.379,0.079l0.919,0.307l0.368,0.158l0.373,0.183l0.507,0.312l0.324,0.196
	l0.328,0.218l0.287,0.253l0.443,0.403l0.264,0.283l0.241,0.288l0.266,0.284l0.374,0.443l0.265,0.281l0.251,0.34l0.193,0.323
	l0.24,0.548l0.303,0.717l0.137,0.415l0.159,0.407L117.95,165.212z M112.527,169.682l0.152-0.395l0.138-0.598l0.075-0.404
	l0.009-0.599l-0.026-0.383l-0.072-0.608l-0.086-0.425l-0.109-0.418l-0.104-0.394l-0.301-0.718l-0.173-0.329l-0.385-0.492
	l-0.264-0.282l-0.441-0.379l-0.305-0.224l-0.453-0.323l-0.317-0.17l-0.726-0.241l-0.379-0.079l-0.424-0.044l-0.414,0.007
	l-0.808,0.111l-0.367,0.102l-0.545,0.135l-0.358,0.151l-0.613,0.304l-0.367,0.23l-0.512,0.417l-0.304,0.294l-0.328,0.43
	l-0.214,0.354l-0.199,0.428l-0.135,0.364l-0.042,0.166l-0.12,0.569l-0.049,0.398l-0.039,0.189l-0.004,0.364l0.02,0.357l0.048,0.354
	l0.051,0.379l0.076,0.374l0.104,0.393l0.157,0.384l0.068,0.219l0.175,0.354l0.086,0.165l0.195,0.324l0.14,0.178l0.27,0.309
	l0.166,0.174l0.345,0.294l0.185,0.146l0.36,0.238l0.583,0.321l0.396,0.154l0.438,0.118l0.403,0.073l0.558,0.069l0.391-0.002
	l0.639-0.051l0.428-0.061l0.611-0.177l0.39-0.131l0.521-0.234l0.32-0.222l0.477-0.461l0.254-0.282l0.318-0.48l0.194-0.322
	L112.527,169.682z"/>
<path fill="#FFFFFF" d="M143.806,161.906l-0.234,0.255l-1.531,0.904l-1.219,0.688l-0.351,0.208l-0.957,0.624l-0.287,0.167
	l-0.248,0.03l-0.278-0.073l-1.282-0.572l-0.353-0.146l-1.255-0.528l-0.353-0.146l-1.206-0.645l-0.354-0.146l-1.256-0.53
	l-0.258-0.082l-0.168,0.01l-0.275,0.135l-0.729,0.368l-0.271,0.19l-0.098,0.234l0.104,0.324l0.666,1.229l0.229,0.338l0.812,1.174
	l0.228,0.338l0.332,0.511l0.206,0.352l0.184,0.363l0.112,0.289l-0.044,0.175l-0.204,0.206l-0.349,0.207l-1.091,0.556l-0.967,0.658
	l-0.352,0.206l-1.045,0.53l-0.29,0.109l-0.184-0.01l-0.173-0.192l-0.202-0.293l-0.216-0.315l-0.291-0.595l-0.186-0.364l-0.609-1.233
	l-0.207-0.351l-0.763-1.145l-0.229-0.337l-0.706-1.147l-0.207-0.351l-0.631-1.222l-0.207-0.349l-0.764-1.144l-0.205-0.352
	l-0.634-1.222l-0.206-0.35l-0.642-1.187l-0.205-0.35l-0.72-1.17l-0.207-0.35l-0.47-0.697l-0.173-0.342l-0.055-0.145l-0.103-0.322
	l0.028-0.253l0.225-0.221l0.162-0.125l0.315-0.217l1.011-0.537l2.657-1.448l1.438-0.968l0.349-0.204l1.499-0.766l0.83-0.491
	l0.386-0.196l0.366-0.129l0.538-0.141l0.395-0.084l0.403-0.063l0.428-0.074l0.419-0.041l0.389,0.007l0.583,0.04l0.358,0.055
	l0.348,0.09l0.373,0.133l0.567,0.258l0.363,0.169l0.508,0.26l0.334,0.218l0.347,0.238l0.317,0.285l0.272,0.312l0.228,0.336
	l0.327,0.456l0.207,0.352l0.185,0.362l0.177,0.396l0.153,0.413l0.12,0.4l0.062,0.407l0.04,0.418l-0.002,0.444l-0.029,0.402
	l-0.043,0.379l-0.056,0.356l-0.143,0.557l-0.125,0.341l-0.297,0.498l-0.172,0.307l-0.193,0.323l-0.248,0.233l-0.134,0.168
	l0.191,0.124l1.446,0.652l0.351,0.146l1.422,0.607l0.373,0.135l1.435,0.628l0.375,0.134l1.143,0.389l0.34,0.124l0.252,0.177
	L143.806,161.906z M132.198,157.388l0.43-0.37l0.22-0.278l0.173-0.308l0.063-0.392l-0.04-0.419l-0.119-0.402l-0.185-0.364
	l-0.242-0.357l-0.263-0.347l-0.282-0.277l-0.346-0.238l-0.353-0.146l-0.357-0.055l-0.384,0.049l-0.547,0.176l-0.374,0.162
	l-1.11,0.624l-0.351,0.206l-1.076,0.726l-0.25,0.176l-0.114,0.156l-0.054,0.209l0.119,0.254l0.319,0.489l0.25,0.325l0.263,0.347
	l0.243,0.359l0.666,1.23l0.163,0.229l0.123,0.105l0.19-0.025l0.289-0.112l1.191-0.582l0.349-0.207L132.198,157.388z"/>
<path fill="#FFFFFF" d="M163.677,140.688l0.319,0.176l0.095,0.316l-0.086,0.295l-0.179,0.284l-0.232,0.269l-0.42,0.411l-0.27,0.271
	l-0.747,0.866l-0.953,1.259l-0.312,0.168h-0.234l-0.294-0.088l-2.133-0.799l-0.31-0.031l-0.188,0.139l-0.219,0.216l-1.075,1.088
	l-0.266,0.308l-1.286,1.411l-1.016,1.139l-0.249,0.288l-0.229,0.307l-0.766,0.885l-0.177,0.283l-0.037,0.237l0.132,0.314
	l0.925,1.573l0.209,0.382l0.066,0.428l-0.151,0.372l-0.266,0.308l-1.022,1.067l-0.267,0.307l-0.954,1.261l-0.196,0.268l-0.314,0.131
	l-0.345-0.028l-0.233-0.236l-0.121-0.173l-0.208-0.38l-0.363-0.785l-0.188-0.364l-0.662-1.412l-0.171-0.349l-0.646-1.432
	l-0.188-0.363l-0.658-1.341l-0.189-0.365l-0.63-1.45l-0.169-0.349l-0.98-2.056l-0.689-1.536l-0.191-0.4l-0.501-1.171l-0.19-0.401
	l-0.572-1.131l-0.188-0.364l-0.491-1.029l-0.127-0.279l0.05-0.292l0.192-0.337l0.725-0.92l1.297-1.5l0.785-0.87l0.34-0.277
	l0.337-0.078l0.334,0.119l0.982,0.377l0.39,0.134l1.318,0.301l0.371,0.119l1.307,0.39l0.37,0.118l1.282,0.501l0.368,0.117
	l1.29,0.374l0.368,0.116l1.31,0.393l0.369,0.115l1.295,0.446l0.37,0.118l1.708,0.433l1.304,0.321l0.387,0.098l1.66,0.526
	L163.677,140.688z M152.696,142.431l-0.316-0.14l-1.676-0.708l-0.371-0.151l-1.468-0.596l-0.333-0.12l-0.301,0.075l-0.275,0.201
	l-0.124,0.261l0.025,0.359l0.861,1.65l0.188,0.364l0.857,1.614l0.238,0.308l0.281,0.142l0.279-0.129l0.272-0.236l1.047-1.213
	l0.838-0.854l0.141-0.316l-0.022-0.287L152.696,142.431z"/>
<path fill="#FFFFFF" d="M162.39,110.859l0.372,0.171l3.512,1.347l1.406,0.459l0.379,0.144l3.152,1.155l0.402,0.156l0.182,0.096
	l0.394,0.179l1.114,0.509l1.384,0.505l0.324,0.15l0.248,0.204l0.188,0.29l0.075,0.301l-0.011,0.242l-0.104,0.341l-0.415,1.23
	l-0.124,0.389l-0.202,0.603l-0.146,0.379l-0.189,0.282l-0.229,0.239l-0.323,0.202l-0.39,0.095l-0.826,0.093l-0.39,0.096l-1.52,0.478
	l-0.375,0.13l-1.497,0.488l-0.39,0.094l-1.554,0.357l-0.366,0.104l-1.495,0.489l-0.377,0.129l-1.499,0.43l-0.273,0.142l0.01,0.194
	l0.257,0.181l1.169,0.504l0.38,0.146l1.195,0.43l0.38,0.146l1.338,0.487l0.38,0.146l1.303,0.58l0.39,0.123l1.004,0.222l0.389,0.122
	l0.281,0.19l0.104,0.231l-0.018,0.182l-0.062,0.303l-0.049,0.201l-0.132,0.412l-0.443,1.082l-0.144,0.381l-0.328,0.99l-0.144,0.38
	l-0.162,0.348l-0.148,0.243l-0.19,0.146l-0.202,0.028l-0.256-0.041l-0.175-0.042l-0.356-0.136l-0.766-0.349l-0.37-0.168
	l-1.286-0.414l-0.381-0.144l-2.878-1.16l-0.37-0.169l-1.231-0.554l-0.369-0.17l-1.639-0.63l-1.295-0.387l-0.38-0.146l-1.223-0.576
	l-0.388-0.123l-1.319-0.397l-0.389-0.121l-0.546-0.21l-0.347-0.16l-0.339-0.185l-0.243-0.146l-0.138-0.137l-0.017-0.168l0.053-0.28
	l0.227-0.729l0.319-0.695l0.683-1.779l0.134-0.276l0.141-0.082l0.269-0.061l1.451-0.588l0.376-0.127l1.477-0.44l0.376-0.129
	l1.501-0.433l0.376-0.128l1.515-0.399l0.367-0.104l1.484-0.465l0.378-0.128l1.514-0.398l0.239-0.127l0.097-0.182l-0.054-0.21
	l-0.263-0.102l-1.061-0.216l-0.389-0.122l-0.993-0.463l-0.38-0.146l-1.485-0.461l-0.379-0.145l-1.413-0.651l-0.389-0.123
	l-0.905-0.265l-0.593-0.228l-0.282-0.19l-0.153-0.167l-0.03-0.201l0.06-0.305l0.083-0.214l0.132-0.413l0.48-1.041l0.146-0.379
	l0.264-0.826l0.159-0.347l0.233-0.537l0.148-0.244l0.135-0.138l0.221-0.08l0.352,0.081l0.222,0.06l0.413,0.132l0.717,0.329
	l0.362,0.193L162.39,110.859z"/>
<path fill="#FFFFFF" d="M170.207,87.311l0.429,0.042l0.608,0.049l0.403,0.092l0.578,0.201l0.4,0.142l0.375,0.169l0.402,0.168
	l0.425,0.169l0.375,0.167l0.548,0.3l0.323,0.217l0.393,0.371l0.269,0.266l0.39,0.448l0.537,0.58l0.267,0.34l0.362,0.5l0.19,0.338
	l0.26,0.518l0.139,0.336l0.182,0.566l0.112,0.388l0.086,0.411l0.06,0.407l0.168,1.56l0.011,0.383l0.03,0.561l-0.017,0.406
	l-0.056,0.812l-0.079,0.659l-0.016,0.405l0.02,0.817v0.634l0.008,0.434l-0.039,0.381l-0.071,1.777l-0.04,0.38l-0.144,1.09
	l-0.109,0.199l-0.133,0.122l-0.281,0.039l-0.408,0.009l-0.201-0.032l-0.761-0.08l-0.355-0.015l-0.584-0.048l-0.381-0.016
	l-0.406-0.041l-0.404-0.015l-1.349-0.029l-0.406-0.016l-1.35-0.003l-0.38-0.039l-0.558-0.049l-0.379-0.065l-0.43-0.04l-0.408-0.017
	l-0.662,0.024l-0.434,0.009l-0.228-0.009l-0.433,0.009l-1.343-0.155l-0.405-0.017l-1.35-0.027l-0.405-0.015l-1.351,0.022
	l-0.989-0.037l-0.406-0.043l-0.378-0.091l-0.278-0.062l-0.148-0.108l-0.064-0.281l-0.033-0.433l-0.036-0.384l-0.011-0.409
	l0.114-2.233l0.016-0.407l0.123-1.216l0.034-0.202l0.017-0.457l-0.01-1.07l-0.008-0.382l0.016-0.406l0.075-0.632l0.082-0.812
	l0.067-0.405l0.127-0.655l0.092-0.404l0.118-0.377l0.365-0.901l0.194-0.375l0.217-0.375l0.218-0.348l0.616-0.814l0.292-0.32
	l0.27-0.294l0.553-0.539l0.265-0.243l0.288-0.218l0.337-0.165l0.57-0.259l0.388-0.137l0.411-0.111l0.411-0.136l0.412-0.111
	l0.411-0.086l0.562-0.08l0.411-0.06l0.435-0.059l0.407-0.036l0.611-0.001l0.407-0.01L170.207,87.311z M172.163,93.188l-0.374-0.192
	l-0.426-0.17l-0.379-0.115l-0.553-0.126l-0.355-0.037l-0.583-0.049l-0.813-0.031l-0.407,0.008l-0.587,0.055l-0.387,0.086
	l-0.153,0.045l-0.39,0.188l-0.548,0.36l-0.132,0.121l-0.29,0.244l-0.29,0.269l-0.241,0.295l-0.352,0.547l-0.168,0.351l-0.09,0.352
	l-0.091,0.402l-0.051,0.636l-0.042,0.431l-0.025,0.636l-0.047,0.558l0.01,0.382l0.054,0.562l0.066,0.284l0.123,0.131l0.302,0.089
	l0.227,0.033l0.381,0.04l0.765-0.02l0.407-0.01l0.56-0.03l0.41-0.034l0.406-0.01l0.406,0.016l0.56,0.048l1.218,0.048l0.431,0.043
	l0.406,0.041l0.557,0.072l0.355,0.014l0.584,0.048l0.381-0.009l0.614-0.053l0.282-0.091l0.134-0.147l0.037-0.303l-0.059-2.37
	l-0.002-0.585l-0.062-0.409l-0.111-0.438l-0.136-0.412l-0.162-0.388l-0.215-0.341l-0.39-0.472l-0.295-0.267L172.163,93.188z"/>
<path fill="#FFFFFF" d="M163.182,61.53l0.396-0.094l0.574-0.121l0.379-0.063l0.774-0.076l0.573-0.122l0.38-0.061l0.413-0.046
	l0.395-0.014l0.584,0.088l0.393,0.067l1.294,0.325l0.384,0.122l0.39,0.147l0.341,0.162l0.532,0.264l0.326,0.193l0.338,0.242
	l0.308,0.226l0.426,0.349l0.29,0.258l0.306,0.304l0.249,0.296l0.343,0.429l0.21,0.335l0.48,0.704l0.245,0.375l0.217,0.359
	l0.223,0.385l0.199,0.39l0.149,0.408l0.4,1.313l0.202,0.841l0.146,0.834l0.03,0.362l0.015,0.394l-0.039,1.447l-0.003,0.426
	L176,73.446l-0.105,0.882l-0.082,0.424l-0.107,0.432l-0.147,0.389l-0.174,0.399l-0.227,0.387l-0.234,0.364l-0.458,0.857
	l-0.218,0.331l-0.241,0.341l-0.258,0.29l-0.428,0.343l-0.983,0.698l-0.467,0.3l-0.342,0.184l-0.368,0.191l-0.343,0.184l-0.513,0.236
	l-0.357,0.134l-0.407,0.151l-0.412,0.127l-0.422,0.1l-0.444,0.109l-0.429,0.076l-0.438,0.053l-0.443,0.03l-0.449,0.004l-0.402-0.012
	l-0.433-0.028h-0.612l-0.439-0.052l-0.25-0.029l-0.424-0.085l-0.638-0.178l-0.414-0.139l-0.232-0.062l-0.381-0.204l-0.466-0.31
	l-0.34-0.243l-0.316-0.248l-0.707-0.583l-0.292-0.257l-0.299-0.281l-0.272-0.29l-0.375-0.444l-0.224-0.305l-0.233-0.328
	l-0.207-0.334l-0.452-0.873l-0.185-0.342l-0.515-1.173l-0.287-0.763l-0.173-0.745l-0.152-0.591l-0.077-0.429l-0.053-0.435
	l-0.03-0.443l-0.052-0.436l-0.021-0.419l-0.014-0.395l0.011-0.402l0.039-0.571l0.043-0.383l0.218-0.944l0.123-0.383l0.146-0.39
	l0.264-0.533l0.162-0.341l0.187-0.35l0.226-0.308l0.357-0.48l0.257-0.291l0.266-0.266l0.257-0.29l0.405-0.417l0.258-0.29
	l0.314-0.281l0.303-0.226l0.522-0.291l0.685-0.369l0.4-0.175l0.389-0.199L163.182,61.53z M165.148,66.513l-0.415,0.125l-0.405,0.151
	l-0.382,0.142l-0.686,0.368l-0.312,0.202l-0.454,0.429l-0.257,0.291l-0.335,0.475l-0.193,0.323l-0.278,0.484l-0.138,0.334
	l-0.171,0.745l-0.044,0.383l-0.003,0.427l0.046,0.412l0.188,0.792l0.135,0.359l0.188,0.528l0.184,0.342l0.362,0.58l0.264,0.345
	l0.462,0.472l0.323,0.273l0.459,0.286l0.372,0.18l0.447,0.156l0.374,0.1l0.17,0.027l0.577,0.065l0.401,0.01l0.194,0.021l0.36-0.032
	l0.355-0.054l0.35-0.08l0.372-0.086l0.364-0.11l0.381-0.142l0.368-0.194l0.211-0.091l0.335-0.208l0.157-0.1l0.302-0.225l0.166-0.156
	l0.281-0.3l0.156-0.179l0.262-0.371l0.126-0.199l0.203-0.379l0.265-0.613l0.116-0.406l0.077-0.449l0.034-0.41l0.015-0.562
	l-0.038-0.388l-0.111-0.63l-0.102-0.42l-0.233-0.594l-0.166-0.375l-0.285-0.498l-0.25-0.296l-0.504-0.431l-0.309-0.225l-0.507-0.272
	l-0.341-0.162l-0.485-0.198l-0.407-0.116l-0.61-0.079l-0.408-0.036l-0.598,0.048l-0.379,0.062L165.148,66.513z"/>
<path fill="#BE1622" d="M105.648,25.912c0.21-1.036,0.42-2.072,0.631-3.111c-10.874-1.68-21.778-1.274-32.368,1.909
	c-10.899,3.277-20.52,9.26-28.685,17.122C62.05,27.108,83.784,21.439,105.648,25.912z"/>
<path fill="#BE1622" d="M106.739,20.525c0.211-1.035,0.42-2.074,0.631-3.109c-11.511-1.806-23.046-1.439-34.296,1.812
	c-12.011,3.468-22.662,9.987-31.638,18.623c8.91-7.832,19.204-13.655,30.719-16.69C83.567,18.162,95.235,18.195,106.739,20.525z"/>
<path fill="#BE1622" d="M37.649,33.866c10.783-9.528,23.616-16.322,37.807-19.095c7.1-1.386,14.25-1.721,21.459-1.268
	c3.327,0.208,6.638,0.773,9.905,1.431c0.919,0.187,0.969,0.412,1.151-0.498c0.165-0.804,0.325-1.605,0.488-2.41
	c-12.613-1.994-25.287-1.564-37.58,2.119C58.28,17.917,47.103,24.792,37.649,33.866z"/>
<path fill="#FFFFFF" d="M106.744,25.912c0.209-1.036,0.419-2.072,0.631-3.111c-10.875-1.68-21.778-1.274-32.368,1.909
	c-10.899,3.277-20.52,9.26-28.685,17.122C63.145,27.108,84.879,21.439,106.744,25.912z"/>
<path fill="#FFFFFF" d="M107.834,20.525c0.212-1.035,0.42-2.074,0.631-3.109c-11.51-1.806-23.046-1.439-34.296,1.812
	c-12.011,3.468-22.662,9.987-31.637,18.623c8.91-7.832,19.204-13.655,30.719-16.69C84.662,18.162,96.331,18.195,107.834,20.525z"/>
<path fill="#FFFFFF" d="M38.744,33.866c10.783-9.528,23.616-16.322,37.807-19.095c7.1-1.386,14.25-1.721,21.459-1.268
	c3.328,0.208,6.638,0.773,9.905,1.431c0.92,0.187,0.969,0.412,1.151-0.498c0.165-0.804,0.325-1.605,0.488-2.41
	c-12.613-1.994-25.286-1.564-37.58,2.119C59.375,17.917,48.198,24.792,38.744,33.866z"/>
<path fill="#BE1622" d="M115.033,26.865c-1.171,2.123-0.278,4.856,1.986,6.104c1.959,1.08,4.299,0.696,5.657-0.794
	c0.096,0.028,0.458,0.142,0.595,0.293c0.161,0.172,0.968,1.313,0.968,1.313l0.338,0.271l1.252,0.67c0,0,0.282,0.284,0.433,0.39
	c0.152,0.105,0.473,0.109,0.473,0.109l3.598,2.047c0,0,0.712,0.305,1.332,0.146c0.618-0.157,1.199-0.706,1.199-0.706l0.187,0.081
	l0.149,0.278l0.888-0.24c-0.188,0.218-0.36,0.458-0.507,0.721c-1.188,2.156-0.24,4.954,2.115,6.253
	c2.356,1.297,5.229,0.602,6.413-1.554c1.006-1.824,0.48-4.105-1.134-5.55c0.266,0.112,0.469,0.204,0.469,0.204
	s0.144-0.181-0.351-0.585c-0.496-0.402-1.075-0.614-1.457-0.802c-0.384-0.189-0.944-0.347-0.944-0.347l0.119-1.476
	c0,0,0.487,0.292,0.677,0.156c0.19-0.132,0.147-0.394,0.147-0.394s0.391,0.259,0.537,0.121c0.144-0.137,0.155-0.37,0.155-0.37
	l1.313-0.405l0.28-0.214c0,0,0.332-2.073,0.399-3.207c0.067-1.134,0.223-2.002,0.142-3.242c-0.084-1.237-0.164-1.717-0.164-1.717
	l-0.988,0.235c0,0-0.915,1.58-1.102,2.127c-0.186,0.547-0.128,1.494-0.128,1.494l-0.428-0.107l-0.034-0.192l-0.249-0.093
	c0,0,0.058-0.271-0.075-0.369c-0.134-0.095-0.462-0.254-0.462-0.254s0.317-0.499,0.313-0.694c-0.01-0.199-0.067-0.384-0.067-0.384
	s0.208-0.126,0.283-0.301c0.073-0.176,0.057-0.4,0.057-0.4s-0.294-0.055-0.716,0.167c-0.424,0.221-0.534,0.337-0.726,0.514
	c-0.188,0.179-0.218,0.355-0.218,0.355l0.179,0.056l0.477-0.15l-0.021,0.207c0,0-0.145,0.052-0.291,0.146
	c-0.143,0.093-0.342,0.157-0.463,0.001c-0.124-0.154-0.271-0.43-0.397-0.498c-0.125-0.07-0.32-0.134-0.32-0.134
	s0.155-0.283,0.155-0.412c0.006-0.13-0.01-0.397-0.01-0.397s0.339-0.531,0.304-0.765c-0.032-0.234-0.085-0.395-0.425-0.364
	c-0.34,0.03-0.493,0.185-0.756,0.451c-0.265,0.266-0.263,0.309-0.204,0.537c0.059,0.229,0.282,0.331,0.45,0.314
	c0.17-0.014,0.486-0.079,0.486-0.079s0.088,0.133,0.041,0.302c-0.048,0.171-0.186,0.421-0.186,0.421l-0.356-0.023
	c0,0-0.379-0.578-0.627-0.757c-0.247-0.18-0.531-0.423-0.688-0.726c-0.158-0.305-0.507-0.844-0.558-1.088
	c-0.052-0.247-0.194-0.651-0.194-0.651s0.18-0.248,0.064-0.332c-0.116-0.087-0.3-0.295-0.3-0.295l-0.062-0.643l0.177,0.141
	l0.197-0.108l0.408,0.182c0,0,1.01-0.486,1.075-0.646c0.063-0.158,0.095-0.423,0.095-0.423l-0.18-0.097c0,0-0.014-0.312,0.054-0.47
	c0.063-0.163,0.157-0.371,0.157-0.371s0.395-0.086,0.66,0.018c0.267,0.103,0.783,0.301,0.783,0.301l0.145-0.095
	c0,0-0.159-0.718-0.482-1.307c-0.323-0.588-0.696-1.467-1.864-1.874c-1.168-0.403-1.8,0.03-2.372,0.734s-0.441,1.513-0.441,1.513
	s-0.244,0.234-0.415,0.293c-0.169,0.056-0.729,0.356-1.116,0.47c-0.384,0.112-0.89,0.354-1.233,0.643
	c-0.346,0.288-0.714,0.496-0.915,0.863c-0.203,0.366-0.304,0.679-0.484,0.754c-0.179,0.074-0.396,0.129-0.345,0.329
	c0.052,0.202,0.329,0.204,0.146,0.361c-0.18,0.162-0.234,0.178-0.263,0.358c-0.03,0.178-0.023,0.419-0.023,0.419
	s-0.271,0.155-0.498,0.441c-0.227,0.288-0.5,0.615-0.5,0.615s-0.788-0.672-1.229-1.132c-0.442-0.46-1.334-1.191-1.334-1.191
	l1.131-1.676l-0.193-0.367l0.664-1.499l-0.257-0.295c0,0-2.142-1.742-2.878-2.128c-0.738-0.384-1.372-0.537-1.372-0.537
	s-0.928,1.353-1.359,1.918c-0.427,0.569-0.536,0.726-0.536,0.726l-0.351,0.088l-0.11,0.285l0.312,0.064l-0.131,0.317
	c0,0,0.054,0.074,0.753,0.566c0.699,0.496,1.366,0.926,1.366,0.926l-0.216,0.228l-1.074-0.656l-0.219,0.228
	c0,0-0.421,0.68-0.358,0.821c0.06,0.143,0.291,0.27,0.291,0.27l-0.21,0.166l-1.3-0.5l-0.162,0.216l-0.314,0.021l-1.644,1.849
	l0.702,0.366l0.599-0.625l1.338-0.413l0.836,1.092l-0.163,0.169l-0.461-0.384l-0.838,0.516l0.447,0.484l0.062,0.077
	C117.136,24.758,115.769,25.532,115.033,26.865z M134.79,38.128c0.214-0.384,0.494-0.71,0.821-0.967l0.474,0.931l0.244,0.398
	c0,0-0.615,0.656-0.556,1.385c0.062,0.729,0.231,1.43,1.023,1.799c0.791,0.372,1.666,0.506,2.262,0.097
	c0.599-0.407,1.087-0.963,1.09-1.764c0.001-0.801-0.269-1.232-0.775-1.664c-0.504-0.428-0.986-0.52-0.986-0.52
	s-0.161-0.547-0.104-0.905c0.021-0.131,0.073-0.283,0.131-0.421c0.362,0.071,0.719,0.196,1.061,0.385
	c1.693,0.932,2.342,3.002,1.449,4.625c-0.895,1.623-2.991,2.182-4.685,1.248C134.544,41.821,133.898,39.75,134.79,38.128z
	 M131.482,26.772c0,0,0.322,0.005,0.561,0.029c0.245,0.025,0.29-0.817,0.461-0.918c0.171-0.101,0.811,0.294,0.811,0.294l0.078,0.24
	c0,0,0.346,0.125,0.518,0.11c0.169-0.015,0.47,0.239,0.579,0.298c0.105,0.059,0.276-0.043,0.392,0
	c0.117,0.042,0.148,0.276,0.122,0.369c-0.027,0.095,0.129,0.268,0.317,0.304c0.188,0.04,0.362,0.353,0.362,0.353
	s-0.518-0.11-0.757-0.18c-0.255-0.071-0.556-0.042-0.879,0.038c-0.32,0.083-1.604,0.809-1.604,0.809s-0.235-0.283-0.492-0.663
	c-0.252-0.377-0.661-0.732-0.661-0.732L131.482,26.772z M116.5,27.652c0.671-1.218,2.127-1.732,3.428-1.29l0.782,1.004l0.301,0.125
	l0.266,0.32l0.312-0.045c0.18,0.342,0.289,0.713,0.326,1.092l-0.187,0.068l-0.452-0.313c0,0-0.006-0.374-0.351-0.671
	c-0.347-0.297-0.808-0.509-0.808-0.509s-0.31-0.323-0.444-0.331c-0.132-0.01-0.294,0.031-0.294,0.031l0.051,0.116l0.214,0.075
	l0.123,0.155l-0.063,0.116l-0.17,0.014c0,0-0.747-0.367-1.295-0.041c-0.554,0.329-0.998,0.884-0.943,1.5
	c0.054,0.615,0.379,0.991,0.762,1.264c0.38,0.275,0.737,0.43,0.737,0.43l0.06,0.271l0.391,0.042c0,0,0.229,0.258,0.499,0.275
	c0.271,0.019,1.076-0.23,1.076-0.23l0.317-0.153l0.051,0.028c-0.869,0.941-2.316,1.198-3.512,0.539
	C116.27,30.757,115.747,29.021,116.5,27.652z"/>
<path fill="#FFFFFF" d="M116.127,26.918c-1.17,2.123-0.279,4.856,1.986,6.104c1.958,1.079,4.298,0.696,5.657-0.794
	c0.095,0.028,0.457,0.143,0.596,0.293c0.159,0.172,0.966,1.313,0.966,1.313l0.338,0.271l1.251,0.669c0,0,0.284,0.285,0.436,0.391
	c0.15,0.105,0.473,0.107,0.473,0.107l3.596,2.049c0,0,0.713,0.305,1.332,0.147c0.62-0.157,1.201-0.706,1.201-0.706l0.184,0.081
	l0.151,0.278l0.888-0.239c-0.189,0.218-0.361,0.458-0.507,0.721c-1.187,2.156-0.239,4.954,2.115,6.253
	c2.357,1.297,5.229,0.602,6.414-1.554c1.006-1.825,0.479-4.105-1.135-5.55c0.266,0.112,0.468,0.203,0.468,0.203
	s0.145-0.18-0.349-0.584c-0.497-0.402-1.077-0.614-1.458-0.802c-0.384-0.189-0.943-0.347-0.943-0.347l0.118-1.476
	c0,0,0.488,0.292,0.677,0.156c0.189-0.132,0.147-0.393,0.147-0.393s0.391,0.257,0.536,0.121c0.144-0.137,0.156-0.371,0.156-0.371
	l1.312-0.403l0.281-0.216c0,0,0.332-2.071,0.399-3.206c0.067-1.134,0.224-2.002,0.142-3.242c-0.084-1.238-0.165-1.718-0.165-1.718
	l-0.988,0.236c0,0-0.914,1.58-1.102,2.127c-0.187,0.547-0.129,1.494-0.129,1.494l-0.425-0.107l-0.037-0.192l-0.247-0.092
	c0,0,0.059-0.272-0.075-0.369c-0.134-0.095-0.462-0.254-0.462-0.254s0.318-0.499,0.312-0.695c-0.008-0.198-0.066-0.383-0.066-0.383
	s0.207-0.126,0.282-0.303c0.074-0.174,0.058-0.398,0.058-0.398s-0.295-0.056-0.717,0.167c-0.424,0.221-0.534,0.335-0.724,0.514
	c-0.189,0.177-0.218,0.355-0.218,0.355l0.177,0.056l0.478-0.151l-0.021,0.207c0,0-0.144,0.052-0.29,0.145
	c-0.142,0.095-0.342,0.157-0.463,0.002c-0.123-0.154-0.272-0.43-0.397-0.499c-0.124-0.069-0.32-0.133-0.32-0.133
	s0.156-0.284,0.156-0.413c0.005-0.129-0.012-0.396-0.012-0.396s0.339-0.532,0.306-0.766c-0.033-0.232-0.086-0.394-0.425-0.364
	c-0.342,0.03-0.493,0.186-0.757,0.452c-0.264,0.267-0.264,0.309-0.204,0.537c0.059,0.229,0.282,0.33,0.452,0.315
	c0.169-0.015,0.484-0.079,0.484-0.079s0.086,0.133,0.041,0.302c-0.047,0.171-0.186,0.422-0.186,0.422l-0.356-0.024
	c0,0-0.379-0.577-0.626-0.756c-0.248-0.18-0.532-0.424-0.69-0.727c-0.156-0.305-0.506-0.845-0.557-1.088
	c-0.052-0.246-0.196-0.651-0.196-0.651s0.183-0.247,0.065-0.332c-0.115-0.087-0.301-0.295-0.301-0.295l-0.061-0.644l0.177,0.143
	l0.196-0.109l0.41,0.183c0,0,1.01-0.487,1.073-0.647c0.066-0.157,0.096-0.422,0.096-0.422l-0.179-0.097c0,0-0.014-0.312,0.051-0.47
	c0.065-0.162,0.157-0.371,0.157-0.371s0.396-0.088,0.661,0.018c0.268,0.103,0.784,0.301,0.784,0.301l0.146-0.096
	c0,0-0.16-0.717-0.483-1.307s-0.696-1.468-1.864-1.874c-1.168-0.404-1.8,0.03-2.373,0.734c-0.572,0.703-0.44,1.513-0.44,1.513
	s-0.244,0.233-0.415,0.293c-0.17,0.056-0.729,0.356-1.116,0.468c-0.384,0.114-0.89,0.355-1.234,0.644
	c-0.344,0.289-0.714,0.497-0.914,0.862c-0.203,0.367-0.305,0.679-0.484,0.755c-0.179,0.074-0.396,0.128-0.346,0.33
	c0.053,0.202,0.329,0.203,0.147,0.36c-0.182,0.163-0.233,0.178-0.264,0.357c-0.03,0.179-0.022,0.42-0.022,0.42
	s-0.271,0.156-0.498,0.44c-0.228,0.288-0.501,0.615-0.501,0.615s-0.787-0.672-1.23-1.133c-0.441-0.459-1.333-1.191-1.333-1.191
	l1.131-1.674l-0.191-0.367l0.664-1.499l-0.257-0.296c0,0-2.142-1.742-2.879-2.127c-0.737-0.384-1.372-0.537-1.372-0.537
	s-0.928,1.353-1.359,1.918c-0.426,0.569-0.536,0.726-0.536,0.726l-0.35,0.088l-0.111,0.286l0.312,0.063l-0.13,0.319
	c0,0,0.053,0.073,0.754,0.566c0.699,0.495,1.365,0.926,1.365,0.926l-0.217,0.228l-1.072-0.657l-0.22,0.228
	c0,0-0.42,0.679-0.358,0.82c0.058,0.142,0.291,0.27,0.291,0.27l-0.209,0.166l-1.301-0.499l-0.162,0.216l-0.313,0.021l-1.646,1.849
	l0.702,0.366l0.599-0.625l1.339-0.413l0.837,1.092l-0.164,0.169l-0.46-0.384l-0.839,0.515l0.447,0.486l0.063,0.077
	C118.23,24.812,116.861,25.586,116.127,26.918z M135.884,38.182c0.214-0.385,0.495-0.71,0.822-0.968l0.471,0.933l0.247,0.397
	c0,0-0.617,0.658-0.557,1.386c0.062,0.727,0.231,1.43,1.023,1.799c0.791,0.372,1.665,0.506,2.262,0.097
	c0.599-0.407,1.086-0.963,1.089-1.764c0.002-0.801-0.268-1.233-0.773-1.664c-0.505-0.429-0.987-0.521-0.987-0.521
	s-0.161-0.546-0.104-0.903c0.021-0.133,0.074-0.284,0.13-0.421c0.362,0.07,0.72,0.195,1.062,0.384
	c1.693,0.932,2.343,3.002,1.447,4.625c-0.893,1.623-2.989,2.182-4.683,1.248C135.637,41.875,134.991,39.804,135.884,38.182z
	 M132.575,26.826c0,0,0.322,0.004,0.562,0.027c0.245,0.026,0.29-0.816,0.461-0.917c0.172-0.101,0.81,0.294,0.81,0.294l0.079,0.238
	c0,0,0.345,0.126,0.518,0.111c0.169-0.015,0.471,0.238,0.577,0.297c0.107,0.059,0.279-0.044,0.395,0
	c0.116,0.042,0.146,0.277,0.12,0.37c-0.027,0.093,0.131,0.268,0.319,0.303c0.187,0.041,0.361,0.354,0.361,0.354
	s-0.519-0.11-0.758-0.18c-0.254-0.072-0.556-0.044-0.879,0.038c-0.32,0.082-1.603,0.808-1.603,0.808s-0.237-0.282-0.493-0.662
	c-0.253-0.377-0.661-0.732-0.661-0.732L132.575,26.826z M117.594,27.706c0.671-1.218,2.127-1.732,3.427-1.29l0.782,1.004
	l0.302,0.123l0.266,0.321l0.312-0.045c0.18,0.341,0.29,0.713,0.326,1.092l-0.187,0.068l-0.453-0.313c0,0-0.004-0.374-0.351-0.672
	c-0.345-0.297-0.806-0.509-0.806-0.509s-0.309-0.322-0.445-0.33c-0.133-0.01-0.296,0.031-0.296,0.031l0.053,0.115l0.214,0.075
	l0.123,0.155l-0.063,0.116l-0.169,0.014c0,0-0.748-0.367-1.297-0.041c-0.553,0.329-0.996,0.884-0.942,1.499
	c0.055,0.615,0.38,0.992,0.762,1.264c0.379,0.275,0.738,0.43,0.738,0.43l0.06,0.271l0.389,0.042c0,0,0.232,0.258,0.5,0.275
	c0.271,0.019,1.077-0.23,1.077-0.23l0.316-0.152l0.051,0.028c-0.868,0.941-2.315,1.197-3.513,0.539
	C117.364,30.81,116.841,29.073,117.594,27.706z"/>
</svg>
