<?xml version="1.0" encoding="utf-8"?>
<!-- Generator: Adobe Illustrator 15.0.0, SVG Export Plug-In  -->
<!DOCTYPE svg PUBLIC "-//W3C//DTD SVG 1.1//EN" "http://www.w3.org/Graphics/SVG/1.1/DTD/svg11.dtd" [
	<!ENTITY ns_flows "http://ns.adobe.com/Flows/1.0/">
]>
<svg version="1.1"
	 xmlns="http://www.w3.org/2000/svg" xmlns:xlink="http://www.w3.org/1999/xlink" xmlns:a="http://ns.adobe.com/AdobeSVGViewerExtensions/3.0/"
	 x="0px" y="0px" width="200px" height="200px" viewBox="-6.86 -6.342 200 200"
	 overflow="visible" enable-background="new -6.86 -6.342 200 200" xml:space="preserve">
<defs>
</defs>
<g>
	<g>
		<path fill="#FBBA00" d="M92.553,182.536c49.696,0,89.981-40.288,89.981-89.984c0-49.697-40.285-89.984-89.981-89.984
			S2.568,42.855,2.568,92.552C2.568,142.248,42.857,182.536,92.553,182.536"/>
		<path fill-rule="evenodd" clip-rule="evenodd" d="M177.4,115.136c-1.063,0.164-2.124,0.328-3.175,0.542
			c-5.442,1.138-11.018,1.485-16.403,2.921c-1.724,0.46-3.485,0.777-5.21,1.238c-0.965,0.257-1.869,0.75-1.962,1.904
			c-0.057,0.728-0.399,1.207-0.92,1.634c-2.18,1.758-4.386,3.485-6.526,5.292c-3.403,2.867-7.16,4.537-11.729,3.816
			c-1.59-0.247-3.245-0.191-4.694-1.09c-0.598-0.375-1.23-0.707-1.356-1.465c-0.217-1.363-0.439-2.83,0.304-4.037
			c0.894-1.449,0.969-3.054,1.354-4.613c0.724-2.906,1.438-5.854,4.089-7.775c0.342-0.25,0.547-0.698,0.757-1.092
			c0.503-0.927,0.812-2.012,1.484-2.775c1.625-1.826,2.411-4.028,3.159-6.262c0.345-1.034,0.454-2.143,1.447-2.859
			c0.392-0.282,0.323-0.81,0.304-1.255c-0.074-1.584-0.192-3.166-0.239-4.744c-0.099-3.295-0.442-6.542-1.209-9.77
			c-1.324-5.567-2.317-11.226-4.129-16.662c-2.569-7.726-6.524-14.693-12.202-20.593c-2.095-2.175-4.389-4.078-7.64-4.289
			c-0.932-0.061-1.434-1.116-1.186-2.12c0.426-1.704,0.521-3.415,0.384-5.186c-0.171-2.248-1.046-4.238-1.831-6.284
			c-0.881-2.314-2.526-3.941-4.636-5.144c-1.092-0.625-2.531-0.68-3.209-2.001c-0.065-0.13-0.363-0.142-0.555-0.203
			c-1.289-0.417-2.54-0.23-3.824,0.127c-1.495,0.413-2.891,1.064-4.304,1.665c-1.112,0.474-2.44,0.592-3.306,1.452
			c-0.635,0.629-1.303,0.992-2.107,1.036c-1.47,0.083-2.524,0.807-3.607,1.746c-2.54,2.204-4.551,4.857-6.672,7.427
			c-0.223,0.271-0.566,0.563-0.407,0.956c0.198,0.499,0.69,0.307,1.074,0.302c0.867-0.001,1.653,0.078,2.336,0.766
			c0.373,0.374,1,0.54,1.54,0.686c1.646,0.436,3.305,0.827,4.963,1.211c1.06,0.244,1.359,0.714,0.941,1.747
			c-0.285,0.713-0.693,1.375-1.028,2.072c-0.454,0.957-0.106,1.718,0.895,1.95c0.191,0.045,0.416-0.047,0.604,0.006
			c0.561,0.155,0.941,0.588,0.472,1.037c-0.495,0.471-0.939-0.193-1.366-0.44c-0.975-0.568-1.556-0.281-1.546,0.858
			c0.004,0.81,0.153,1.616,0.192,2.426c0.1,2.223,0.692,4.208,2.367,5.813c1.065,1.026,2.521,1.243,3.763,0.37
			c0.386-0.272,0.775-0.539,1.167-0.808c0.043,0.077,0.087,0.15,0.134,0.228c-0.349,0.269-0.712,0.523-1.042,0.814
			c-0.329,0.292-0.715,0.576-0.925,0.947c-0.353,0.619-0.87,1.376-0.255,2.013c0.652,0.678,1.169-0.167,1.663-0.468
			c1.614-0.993,2.428-0.663,2.371,1.233c-0.143,4.663,0.409,9.232,1.406,13.777c0.312,1.422,0.275,2.993-0.781,4.148
			c-0.624,0.688-1.18,1.349-1.376,2.231c-0.337,1.495-0.95,2.775-2.075,3.876c-0.756,0.73-1.036,1.833-1.278,2.863
			c-0.213,0.894-0.734,1.591-1.461,1.991c-1.085,0.597-1.69,1.448-2.042,2.586c-0.37,1.198-0.749,2.393-1.976,3.087
			c-0.445,0.252-0.72,0.752-0.979,1.223c-0.562,1.02-1.447,1.56-2.589,1.8c-0.685,0.141-0.957-0.131-1.21-0.675
			c-0.746-1.58-0.128-2.998,0.421-4.457c0.524-1.389,1.271-2.045,2.95-2.021c2.644,0.035,4.77-1.119,3.875-4.442
			c-0.193-0.703-0.259-1.437-0.432-2.148c-0.237-1.002-0.7-1.905-1.402-2.666c-1.065-1.154-3.293-1.504-4.233-0.687
			c-2.001,1.733-2.956,6.043-1.853,8.434c0.368,0.798,0.287,1.599,0.018,2.369c-0.287,0.801-0.77,1.536-1.019,2.346
			c-0.672,2.198-2.016,3.172-4.332,2.583c-0.072-0.02-0.159-0.008-0.237-0.008c-1.471,0.013-1.854,0.336-1.8,1.783
			c0.032,0.822-0.229,1.195-1.04,1.277c-0.553,0.056-1.054,0.417-1.654,0.299c-0.414-0.082-0.793,0.166-0.895,0.502
			c-0.519,1.767-1.916,3.137-2.251,4.97c-0.188,1.08-0.599,1.376-1.648,0.883c-0.719-0.337-1.387-0.551-1.92,0.618
			c-0.437,0.962-1.391,2.019-2.343,2.317c-0.975,0.303-1.264,0.828-1.586,1.547c-0.205,0.455-0.37,0.949-0.991,0.921
			c-0.741-0.035-1.283-0.392-1.674-1.043c-0.346-0.573,0.014-0.872,0.311-1.272c1.361-1.865,1.293-2.644-0.311-4.347
			c-0.277-0.294-0.493-0.645-0.758-0.952c-1.431-1.661-2.804-3.368-4.324-4.94c-0.551-0.568-1.34-0.804-1.285-1.846
			c0.055-0.89,0.226-1.682,0.753-2.389c0.621-0.84,1.221-1.325,2.287-0.437c0.831,0.692,1.896,0.415,2.736-0.148
			c0.801-0.537,0.342-1.324,0.121-1.996c-0.19-0.573-0.429-1.14-0.7-1.686c-0.279-0.575-0.255-1.104,0.115-1.604
			c0.897-1.202,1.71-2.494,2.757-3.556c0.776-0.795,1.189-1.629,1.219-2.675c0.018-0.726,0.306-1.177,0.886-1.607
			c2.006-1.497,3.615-3.381,4.947-5.49c0.72-1.138,0.519-1.775-0.75-1.865c-1.567-0.109-2.835-0.875-4.172-1.478
			c-1.024-0.461-1.526-0.165-1.896,0.737c-0.422,1.029-1.041,1.931-1.719,2.799c-3.513,4.509-7.201,8.894-9.971,13.944
			c-1.897,3.448-4.084,6.741-5.328,10.524c-0.471,1.43-1.026,2.855-1.782,4.141c-1.564,2.671-1.889,5.644-1.972,8.568
			c-0.112,4.007,0.572,7.995,1.14,11.974c0.426,2.992,1.626,5.689,3.723,7.784c2.279,2.271,3.694,5.127,5.711,7.553
			c0.31,0.363,0.41,0.788,0.162,1.238c-0.594,1.113-1.12,2.265-1.787,3.328c-0.614,0.977-1.513,1.563-2.762,1.438
			c-1.332-0.139-2.68-0.144-3.997-0.357c-5.216-0.846-10.352-0.609-15.42,0.904c-0.414,0.122-0.992,0.151-1.086,0.655
			c-0.111,0.602,0.528,0.615,0.892,0.817c0.211,0.115,0.49,0.179,0.514,0.457c0.03,0.395-0.333,0.416-0.587,0.489
			c-1.897,0.51-4.109-0.286-3.108,1.348c1.918,3.14,5.35,6.454,9.435,9.674c-0.044-0.585,0-1.247,0.217-1.342
			c0.355-0.147,0.464-0.308,0.32-0.617c-0.497-1.079,0.124-1.23,0.985-1.273c0.523-0.026,1.035-0.168,1.387-0.229
			c1.502-0.017,1.817,0.389,1.547,1.669c-0.265,1.247-0.712,1.88-1.2,3.034c-0.119,0.284-0.297,0.613-0.524,0.83
			c12.521,9.15,29.024,17.025,29.024,17.025c0.194-1.314,0.331-2.633,0.395-3.961c0.048-1.095,0.365-1.348,1.059-0.896
			c0.289,0.184,0.476,0.695,0.889,0.462c0.415-0.236,0.215-0.734,0.245-1.124c0.3-3.852-0.799-7.373-2.499-10.769
			c-2.114-4.226-4.705-8.119-7.998-11.52c-0.195-0.202-0.287-0.429-0.173-0.655c0.314-0.624,0.32-1.318,0.426-2.03
			c0.584,0.247,0.812,0.652,0.824,1.168c0.026,1.137,0.709,1.688,1.715,1.907c0.976,0.212,1.723,0.745,2.224,1.571
			c1.184,1.924,2.929,3.236,4.977,3.927c2.495,0.84,4.028,2.457,5.025,4.77c0.652,1.504,0.826,2.934-0.354,4.307
			c-0.67,0.779-1.039,1.729-1.269,2.736c-0.422,1.833-0.093,3.62,0.107,5.438c0.137,1.201-0.261,3.545,0.079,4.632
			c0,0,78.268,25.624,111.232-63.872C180.544,113.741,178.341,114.986,177.4,115.136z M38.188,159.21h-0.015v0.967
			c0,1.895,0.006,1.849-1.874,1.696c-0.998-0.079-1.203-0.453-0.773-1.307c0.547-1.089,0.906-2.242,1.231-3.41
			c0.104-0.372,0.148-0.858,0.746-0.736c0.53,0.109,0.714,0.451,0.691,0.971C38.169,157.998,38.188,158.604,38.188,159.21z
			 M40.389,158.381c-0.648,1.007-1.057,2.127-1.551,3.224c0.048-1.23-0.059-2.397-0.05-3.571c0.003-0.354-0.087-0.814,0.364-0.93
			c0.482-0.124,1.001,0.06,1.379,0.32C40.939,157.707,40.57,158.098,40.389,158.381z M46.854,162.236
			c-0.636,0.86-1.111,1.9-2.341,2.129c-0.392,0.072-0.711,0.065-1.011-0.203c-0.376-0.336-0.134-0.661,0.034-0.974
			c0.459-0.85,0.925-1.699,1.403-2.534c0.177-0.316,0.371-0.642,0.852-0.609c0.529,0.227,1.116,0.447,1.43,1.001
			C47.488,161.521,47.107,161.896,46.854,162.236z M76.4,111.784c-0.111,0.256-0.261,0.509-0.45,0.715
			c-0.326,0.356-0.291,1.238-0.957,1.033c-0.587-0.184-0.193-0.934-0.34-1.318c0.048-0.534-0.127-1.049,0.275-1.353
			c0.548-0.418,1.348-0.77,1.869-0.411C77.304,110.792,76.583,111.333,76.4,111.784z M110.167,104.277
			c-1.376,1.069-1.504,2.563-1.423,4.065c0.063,1.293-0.328,2.391-0.885,3.482c-0.395,0.773-0.93,0.924-1.523,0.275
			c-0.435-0.477-0.953-0.748-1.536-0.936c-1.62-0.528-2.85-1.673-4.188-2.652c-2.22-1.627-4.668-2.666-7.491-2.316
			c-1.198,0.15-2.373,0.535-3.554,0.812c-0.533,0.055-0.711-0.11-0.707-0.69c0.014-1.387,2.062-3.191,3.354-3.716
			c2.448-0.992,4.695-2.366,6.309-4.599c1.277-1.771,3.042-3.132,4.27-4.962c0.434-0.643,0.733-0.298,0.811,0.29
			c0.42,3.183,2.354,5.562,4.225,7.969c0.552,0.706,1.147,1.33,2.086,1.597C110.759,103.133,110.764,103.817,110.167,104.277z
			 M139.074,153.912c-0.108-0.829,0.244-1.521,1.184-1.696c0.702-0.127,1.609,0.78,1.561,1.414
			c-0.043,0.545-1.581,1.794-2.161,1.756C139.15,155.351,139.056,155.127,139.074,153.912z M145.016,162.513
			c-0.187,0.595-0.582,0.957-1.18,0.513c-0.924-0.696-1.795-1.467-2.693-2.206c0.058-0.122,0.112-0.245,0.163-0.364
			c1.146,0.169,2.313,0.252,3.424,0.539C145.633,161.23,145.186,161.962,145.016,162.513z M143.788,151.847
			c-0.639,0.429-1.041,0.194-1.361-0.415c-0.357-0.675-0.018-0.786,0.566-1.084c0.805-0.406,1.831-0.69,2.074-1.837
			c0.059-0.25,0.43-0.469,0.706-0.63c2.715-1.608,5.432-3.211,8.16-4.795c1.067-0.619,1.341-0.444,1.339,0.778
			c0.104,1.07-0.676,1.555-1.429,1.896c-1.673,0.756-3.157,1.818-4.638,2.856C147.47,149.834,145.535,150.681,143.788,151.847z
			 M150.994,154.128c0.192-0.814,0.054-1.523-0.321-2.221c-0.307-0.557,0.039-0.938,0.484-1.205
			c0.586-0.354,1.207-0.657,1.812-0.979c0.075-0.039,0.215-0.094,0.218-0.092c0.667,1.307,2.033-0.169,2.818,0.742
			C154.662,151.991,152.393,152.417,150.994,154.128z"/>
		<g>
			<path fill="#FFFFFF" d="M92.553,185.106C41.52,185.106,0,143.587,0,92.552C0,41.52,41.52,0,92.553,0
				c51.034,0,92.55,41.52,92.55,92.552C185.103,143.587,143.587,185.106,92.553,185.106z M92.553,5.137
				c-48.201,0-87.417,39.215-87.417,87.415c0,48.203,39.215,87.417,87.417,87.417c48.2,0,87.414-39.214,87.414-87.417
				C179.967,44.352,140.753,5.137,92.553,5.137z"/>
		</g>
		<path fill-rule="evenodd" clip-rule="evenodd" fill="none" stroke="#000000" stroke-miterlimit="10" d="M22.806,149.409"/>
	</g>
</g>
</svg>
