<?xml version="1.0" encoding="utf-8"?>
<!-- Generator: Adobe Illustrator 15.0.0, SVG Export Plug-In . SVG Version: 6.00 Build 0)  -->
<!DOCTYPE svg PUBLIC "-//W3C//DTD SVG 1.1//EN" "http://www.w3.org/Graphics/SVG/1.1/DTD/svg11.dtd">
<svg version="1.1" id="Calque_1" xmlns="http://www.w3.org/2000/svg" xmlns:xlink="http://www.w3.org/1999/xlink" x="0px" y="0px"
	 width="260px" height="260px" viewBox="0 0 260 260" enable-background="new 0 0 260 260" xml:space="preserve">
<g>
	<path fill="#FFB731" d="M2.999,204.904h11.258c6.123,0,8.387,3.188,8.387,7.686c0,3.029-1.689,7.686-9.471,7.686H8.739v7.334h-5.74
		V204.904z M8.675,216.064h4.784c2.582,0,3.508-1.689,3.508-3.443c0-2.264-1.084-3.508-3.668-3.508H8.675V216.064z"/>
	<path fill="#FFB731" d="M29.693,204.904h5.868l8.578,22.705h-6.091l-1.147-3.57h-8.388l-1.148,3.57h-6.06L29.693,204.904z
		 M35.529,219.828l-2.806-9.375h-0.064l-2.807,9.375H35.529z"/>
	<path fill="#FFB731" d="M46.15,204.904h11.353c5.104,0,8.229,2.359,8.229,7.461c0,2.936-1.85,5.295-4.688,6.123l5.198,9.121h-6.346
		l-4.465-8.164h-3.604v8.164H46.15V204.904z M51.827,215.236h5.197c1.818-0.031,3.03-0.957,3.03-3.062
		c0-2.104-1.212-3.029-3.03-3.061h-5.197V215.236z"/>
	<path fill="#FFB731" d="M68.889,204.904h5.676v22.705h-5.676V204.904z"/>
	<path fill="#FFB731" d="M80.849,220.816c1.977,1.787,3.858,2.84,6.569,2.84c1.499,0,4.241-0.639,4.241-2.615
		c0-1.148-0.861-1.723-2.551-2.01l-4.721-0.766c-4.209-0.67-6.505-2.902-6.505-6.25c0-5.486,4.433-7.75,9.279-7.75
		c3.764,0,7.463,1.531,10.015,4.369l-4.306,3.094c-1.499-1.818-3.699-2.871-6.091-2.871c-1.308,0-3.222,0.83-3.222,2.297
		c0,1.211,0.989,1.818,3.157,2.168l2.169,0.352c4.528,0.732,8.26,2.137,8.26,6.473c0,6.826-6.155,8.102-10.396,8.102
		c-3.858,0-7.144-1.244-10.236-4.625L80.849,220.816z"/>
</g>
<g>
	<path d="M2.864,234.119h8.907c7.003,0,11.715,3.322,11.715,11.488c0,8.164-4.712,11.488-11.715,11.488H2.864V234.119z
		 M8.608,252.256H11.9c4.292,0,5.841-2.938,5.841-6.648s-1.549-6.648-5.873-6.648h-3.26V252.256z"/>
	<path d="M46.403,249.092c0,6.295-5.324,8.65-9.746,8.65c-4.389,0-9.714-2.355-9.714-8.65v-14.973h5.745v14.49
		c0,2.58,1,4.484,3.969,4.484c3.002,0,4.002-1.904,4.002-4.484v-14.49h5.744V249.092z"/>
	<path d="M50.861,234.119h5.81l8.358,14.684h0.064v-14.684h5.228v22.977h-5.744l-8.423-14.457h-0.064v14.457h-5.229V234.119z"/>
	<path d="M74.78,234.119h5.744v9.164l8.229-9.164h7.616l-8.358,8.713l8.616,14.264h-6.39l-6.261-10.197l-3.453,3.518v6.68H74.78
		V234.119z"/>
	<path d="M98.698,257.096v-22.977h16.911v4.453h-11.166v4.195h10.424v4.453h-10.424v5.422h12.134v4.453H98.698z"/>
	<path d="M119.614,234.119h11.49c5.162,0,8.326,2.387,8.326,7.551c0,2.969-1.873,5.357-4.744,6.197l5.26,9.229h-6.422l-4.518-8.262
		h-3.646v8.262h-5.746V234.119z M125.359,244.574h5.26c1.84-0.031,3.066-0.969,3.066-3.098c0-2.131-1.227-3.066-3.066-3.098h-5.26
		V244.574z"/>
	<path d="M165.283,259.227c-2.453-0.193-4.971-1.873-6.035-2.873c-1.613,0.871-3.518,1.389-5.713,1.389
		c-7.326,0-11.617-5.68-11.617-12.135s4.291-12.135,11.617-12.135s11.619,5.68,11.619,12.135c0,2.807-0.809,5.486-2.389,7.648
		c0.516,0.742,2.389,1.646,4.195,1.871L165.283,259.227z M153.535,238.314c-3.355,0-5.873,2.129-5.873,7.293
		c0,3.355,1.355,7.293,5.873,7.293c4.26,0,5.873-3.744,5.873-7.293C159.408,241.992,157.795,238.314,153.535,238.314z"/>
	<path d="M188.07,249.092c0,6.295-5.324,8.65-9.746,8.65c-4.389,0-9.713-2.355-9.713-8.65v-14.973h5.744v14.49
		c0,2.58,1,4.484,3.969,4.484c3.002,0,4.002-1.904,4.002-4.484v-14.49h5.744V249.092z"/>
	<path d="M192.529,257.096v-22.977h16.91v4.453h-11.166v4.195h10.424v4.453h-10.424v5.422h12.135v4.453H192.529z"/>
</g>
<g>
	<path d="M119.065,227.564h-2.381v-7.316c-0.632,0.234-1.455,0.293-2.146,0.338v-1.588c1.484-0.043,2.219-0.514,2.66-1.455h1.866
		V227.564z"/>
	<path d="M125.123,221.453h0.514c0.617,0,1-0.383,1-1.074c0-0.631-0.162-1.189-0.984-1.189c-0.721,0-1,0.75-1.045,1.439
		l-2.292-0.191c0.117-2.1,1.586-3.1,3.497-3.1c1.881,0,3.293,0.881,3.293,2.777c0,1.219-0.691,1.836-1.514,2.131v0.029
		c1.115,0.338,1.852,1.088,1.852,2.322c0,2.482-2.043,3.174-3.807,3.174c-2.557,0-3.512-1.25-3.512-3.602l2.352-0.189
		c-0.029,0.102-0.059,0.264-0.059,0.514c0,0.734,0.264,1.426,1.205,1.426c0.748,0,1.203-0.441,1.203-1.338
		c0-1.014-0.484-1.455-1.248-1.455h-0.455V221.453z"/>
</g>
<g>
	<path d="M140.996,227.609h-2.381v-7.316c-0.633,0.234-1.455,0.293-2.146,0.338v-1.588c1.484-0.043,2.219-0.514,2.66-1.455h1.867
		V227.609z"/>
	<path d="M143.865,223.539l4.129-5.951h2.232v6.039h1.338v1.676h-1.322v2.307h-2.396v-2.307h-3.98V223.539z M147.846,220.145h-0.029
		l-2.277,3.482h2.307V220.145z"/>
</g>
<g>
	<path fill="#FFB731" d="M154.15,217.457h1.635v10.246h-1.635V217.457z"/>
</g>
<g>
	<path fill="#FFB731" d="M131.775,217.457h1.635v10.246h-1.635V217.457z"/>
</g>
<g>
	<path d="M163.176,227.609h-2.381v-7.316c-0.631,0.234-1.455,0.293-2.145,0.338v-1.588c1.484-0.043,2.219-0.514,2.66-1.455h1.865
		V227.609z"/>
	<path d="M167.279,217.588h5.76l-0.16,1.939h-3.807l-0.25,1.764c0.455-0.381,1.043-0.529,1.617-0.529
		c1.748,0,3.025,1.367,3.025,3.365c0,1.881-1.174,3.689-3.85,3.689c-2.395,0-3.379-1.426-3.379-3.352l2.293-0.102v0.322
		c0,0.852,0.572,1.367,1.145,1.367c0.955,0,1.324-0.867,1.324-1.734c0-1.029-0.354-1.881-1.264-1.881
		c-0.457,0-0.854,0.205-1.104,0.779l-1.998-0.338L167.279,217.588z"/>
</g>
<g>
	<path d="M177.467,223.568h0.643v0.508h0.018c0.254-0.33,0.66-0.609,1.133-0.609c0.439,0,0.955,0.178,1.176,0.703
		c0.287-0.398,0.793-0.703,1.225-0.703c0.66,0,1.318,0.289,1.318,1.473v2.67h-0.693v-2.705c0-0.498-0.219-0.795-0.709-0.795
		c-0.432,0-1.006,0.238-1.006,0.846v2.654h-0.693v-2.705c0-0.498-0.221-0.795-0.711-0.795c-0.43,0-1.006,0.238-1.006,0.846v2.654
		h-0.693V223.568z"/>
	<path d="M186.412,224.828c0-0.574-0.254-0.82-0.947-0.82c-0.533,0-0.803,0.279-0.828,0.83l-0.693-0.043
		c0.094-0.912,0.635-1.328,1.529-1.328c0.686,0,1.633,0.188,1.633,1.252v1.877c0,0.396,0.152,0.457,0.295,0.457
		c0.076,0,0.145-0.018,0.211-0.043v0.574c-0.135,0.035-0.287,0.061-0.43,0.061c-0.414,0-0.609-0.178-0.703-0.559
		c-0.379,0.422-0.869,0.625-1.436,0.625c-0.719,0-1.295-0.49-1.295-1.115c0-1.115,0.998-1.318,2.664-1.412V224.828z
		 M186.412,225.641c-1.133,0.16-1.92,0.287-1.92,0.912c0,0.49,0.449,0.617,0.777,0.617c0.652,0,1.143-0.396,1.143-1.064V225.641z"/>
	<path d="M188.254,221.592h0.693v0.793h-0.693V221.592z M188.254,223.568h0.693v4.041h-0.693V223.568z"/>
	<path d="M192.387,226.857c1.039-0.549,2.891-1.936,2.891-3.279c0-0.719-0.355-1.074-1.107-1.074s-1.039,0.541-1.039,1.064
		c0,0.229,0.033,0.475,0.076,0.719h-0.744c-0.051-0.229-0.076-0.447-0.076-0.65c0-0.98,0.574-1.826,1.834-1.826
		c1.1,0,1.852,0.727,1.852,1.834c0,1.445-1.572,2.596-2.646,3.264V226.9l-0.008,0.016h2.713v0.693h-3.744V226.857z"/>
	<path d="M198.861,221.811c1.539,0,2.09,1.607,2.09,2.926s-0.551,2.924-2.09,2.924c-1.537,0-2.088-1.605-2.088-2.924
		S197.324,221.811,198.861,221.811z M198.861,226.967c0.576,0,1.295-0.439,1.295-2.23c0-1.793-0.719-2.232-1.295-2.232
		c-0.574,0-1.293,0.439-1.293,2.232C197.568,226.527,198.287,226.967,198.861,226.967z"/>
	<path d="M203.502,223.426h-1.225v-0.541c0.803-0.033,1.309-0.16,1.471-1.023h0.549v5.748h-0.795V223.426z"/>
	<path d="M209.387,223.408c-0.094-0.592-0.49-0.955-0.998-0.955c-1.15,0-1.344,1.158-1.387,2.062h0.018
		c0.102-0.193,0.541-0.693,1.395-0.693c1.09,0,1.852,0.744,1.852,1.834c0,0.846-0.482,2.004-2.012,2.004
		c-0.678,0-1.996-0.439-1.996-2.848c0-1.328,0.406-3.002,2.113-3.002c0.98,0,1.539,0.559,1.758,1.514L209.387,223.408z
		 M208.32,226.967c0.686,0,1.201-0.49,1.201-1.225c0-0.736-0.516-1.227-1.201-1.227c-0.684,0-1.199,0.49-1.199,1.227
		C207.121,226.477,207.637,226.967,208.32,226.967z"/>
</g>
<g>
	
		<image overflow="visible" opacity="0.3" width="875" height="875" xlink:href="C26831A5.png"  transform="matrix(0.24 0 0 0.24 10.4653 -1.9741)">
	</image>
	<g>
		<path fill="#FFB731" d="M108.451,185.994c49.696,0,89.981-40.288,89.981-89.984c0-49.697-40.285-89.984-89.981-89.984
			c-49.696,0-89.985,40.287-89.985,89.984C18.465,145.706,58.754,185.994,108.451,185.994"/>
	</g>
</g>
<path fill-rule="evenodd" clip-rule="evenodd" d="M193.297,118.594c-1.062,0.164-2.123,0.328-3.174,0.542
	c-5.443,1.138-11.018,1.485-16.404,2.921c-1.723,0.46-3.484,0.777-5.209,1.238c-0.965,0.257-1.869,0.75-1.963,1.904
	c-0.057,0.728-0.398,1.207-0.92,1.634c-2.18,1.758-4.385,3.485-6.525,5.292c-3.404,2.867-7.16,4.537-11.729,3.816
	c-1.59-0.247-3.246-0.191-4.695-1.09c-0.598-0.375-1.23-0.707-1.355-1.465c-0.217-1.363-0.439-2.83,0.303-4.037
	c0.895-1.449,0.969-3.054,1.355-4.613c0.723-2.906,1.438-5.854,4.088-7.775c0.342-0.25,0.547-0.698,0.758-1.092
	c0.502-0.927,0.812-2.012,1.484-2.776c1.625-1.825,2.41-4.028,3.158-6.261c0.346-1.034,0.455-2.143,1.447-2.859
	c0.393-0.283,0.324-0.81,0.305-1.255c-0.074-1.584-0.193-3.166-0.24-4.744c-0.098-3.295-0.441-6.542-1.209-9.77
	c-1.324-5.567-2.316-11.226-4.129-16.662c-2.568-7.726-6.523-14.693-12.201-20.593c-2.096-2.175-4.389-4.078-7.641-4.289
	c-0.932-0.061-1.434-1.116-1.186-2.12c0.426-1.704,0.521-3.415,0.385-5.186c-0.172-2.248-1.047-4.238-1.832-6.284
	c-0.881-2.314-2.525-3.941-4.635-5.144c-1.092-0.625-2.531-0.68-3.209-2.001c-0.065-0.13-0.363-0.142-0.555-0.203
	c-1.289-0.417-2.54-0.23-3.824,0.127c-1.495,0.413-2.891,1.064-4.304,1.665c-1.112,0.474-2.44,0.592-3.306,1.452
	c-0.635,0.629-1.303,0.992-2.107,1.036c-1.47,0.083-2.524,0.807-3.607,1.746c-2.54,2.204-4.551,4.857-6.672,7.427
	c-0.223,0.271-0.566,0.563-0.407,0.956c0.198,0.499,0.69,0.307,1.074,0.302c0.867-0.001,1.653,0.078,2.336,0.766
	c0.373,0.374,1,0.54,1.54,0.686c1.646,0.436,3.305,0.827,4.963,1.211c1.06,0.244,1.359,0.714,0.941,1.747
	c-0.285,0.713-0.693,1.375-1.028,2.072c-0.454,0.957-0.106,1.718,0.895,1.95c0.191,0.045,0.416-0.047,0.604,0.006
	c0.561,0.155,0.941,0.588,0.472,1.037c-0.495,0.471-0.939-0.193-1.366-0.44c-0.975-0.568-1.556-0.281-1.546,0.858
	c0.004,0.81,0.153,1.616,0.192,2.426c0.1,2.223,0.692,4.208,2.367,5.813c1.065,1.026,2.521,1.243,3.763,0.37
	c0.386-0.272,0.775-0.539,1.167-0.808c0.043,0.077,0.087,0.15,0.134,0.228c-0.349,0.269-0.712,0.523-1.042,0.814
	c-0.329,0.292-0.715,0.576-0.925,0.947c-0.353,0.619-0.87,1.376-0.255,2.013c0.652,0.678,1.169-0.167,1.663-0.468
	c1.614-0.993,2.428-0.663,2.371,1.233c-0.143,4.663,0.409,9.232,1.406,13.777c0.312,1.422,0.275,2.993-0.781,4.148
	c-0.624,0.688-1.18,1.349-1.376,2.231c-0.337,1.495-0.95,2.775-2.075,3.876c-0.756,0.73-1.036,1.833-1.278,2.863
	c-0.213,0.894-0.734,1.591-1.461,1.991c-1.085,0.597-1.69,1.448-2.042,2.586c-0.37,1.198-0.749,2.393-1.976,3.087
	c-0.445,0.252-0.72,0.752-0.979,1.223c-0.562,1.02-1.447,1.56-2.589,1.799c-0.685,0.142-0.957-0.13-1.21-0.674
	c-0.746-1.58-0.128-2.998,0.421-4.457c0.524-1.389,1.271-2.045,2.95-2.021c2.644,0.035,4.77-1.119,3.875-4.442
	c-0.193-0.703-0.259-1.437-0.432-2.148c-0.237-1.002-0.7-1.905-1.402-2.666c-1.065-1.154-3.293-1.504-4.233-0.687
	c-2.001,1.733-2.956,6.043-1.853,8.434c0.368,0.798,0.287,1.599,0.018,2.369c-0.287,0.801-0.77,1.536-1.019,2.346
	c-0.672,2.197-2.016,3.172-4.332,2.583c-0.072-0.02-0.159-0.008-0.237-0.008c-1.471,0.012-1.854,0.336-1.8,1.782
	c0.032,0.823-0.229,1.195-1.04,1.278c-0.553,0.056-1.054,0.417-1.654,0.298c-0.414-0.082-0.793,0.166-0.895,0.503
	c-0.519,1.766-1.916,3.136-2.251,4.97c-0.188,1.08-0.599,1.375-1.648,0.883c-0.719-0.337-1.387-0.551-1.92,0.618
	c-0.437,0.962-1.391,2.019-2.343,2.317c-0.976,0.304-1.264,0.829-1.587,1.548c-0.204,0.455-0.369,0.949-0.99,0.92
	c-0.741-0.035-1.283-0.392-1.674-1.043c-0.346-0.573,0.014-0.872,0.311-1.273c1.361-1.864,1.293-2.643-0.311-4.346
	c-0.277-0.293-0.493-0.645-0.758-0.952c-1.432-1.661-2.805-3.369-4.324-4.941c-0.551-0.567-1.34-0.803-1.285-1.845
	c0.055-0.89,0.226-1.682,0.754-2.39c0.62-0.84,1.221-1.325,2.286-0.437c0.831,0.692,1.896,0.415,2.736-0.148
	c0.802-0.537,0.342-1.324,0.12-1.996c-0.189-0.573-0.428-1.14-0.699-1.686c-0.279-0.575-0.255-1.104,0.115-1.604
	c0.896-1.202,1.71-2.494,2.758-3.556c0.775-0.795,1.189-1.629,1.219-2.675c0.018-0.726,0.305-1.177,0.886-1.607
	c2.006-1.497,3.614-3.381,4.947-5.49c0.72-1.138,0.519-1.775-0.75-1.865c-1.567-0.109-2.835-0.875-4.173-1.478
	c-1.023-0.461-1.525-0.165-1.895,0.737c-0.422,1.029-1.041,1.931-1.719,2.799c-3.514,4.509-7.201,8.894-9.971,13.944
	c-1.898,3.448-4.084,6.741-5.328,10.524c-0.471,1.429-1.025,2.855-1.781,4.14c-1.564,2.67-1.889,5.643-1.973,8.568
	c-0.111,4.007,0.572,7.995,1.141,11.974c0.426,2.992,1.626,5.689,3.723,7.784c2.279,2.271,3.695,5.127,5.711,7.553
	c0.311,0.363,0.41,0.788,0.162,1.238c-0.594,1.113-1.119,2.265-1.787,3.328c-0.613,0.977-1.513,1.563-2.762,1.438
	c-1.332-0.139-2.68-0.144-3.997-0.357c-5.216-0.846-10.353-0.609-15.421,0.904c-0.413,0.122-0.992,0.151-1.086,0.655
	c-0.111,0.602,0.528,0.615,0.893,0.817c0.211,0.115,0.49,0.179,0.514,0.457c0.029,0.395-0.332,0.416-0.587,0.489
	c-1.897,0.51-4.108-0.286-3.108,1.348c1.919,3.14,5.35,6.454,9.436,9.674c-0.045-0.585,0-1.247,0.217-1.342
	c0.355-0.147,0.463-0.308,0.32-0.617c-0.497-1.079,0.123-1.23,0.984-1.273c0.523-0.026,1.035-0.168,1.387-0.229
	c1.502-0.017,1.817,0.389,1.547,1.669c-0.265,1.247-0.712,1.88-1.199,3.034c-0.119,0.283-0.298,0.613-0.524,0.83
	c12.521,9.15,29.024,17.025,29.024,17.025c0.194-1.314,0.331-2.633,0.395-3.961c0.049-1.096,0.365-1.348,1.06-0.896
	c0.288,0.184,0.476,0.695,0.889,0.463c0.415-0.236,0.215-0.734,0.245-1.125c0.3-3.852-0.799-7.373-2.5-10.768
	c-2.113-4.226-4.704-8.119-7.998-11.52c-0.195-0.202-0.286-0.429-0.172-0.655c0.314-0.624,0.319-1.318,0.426-2.03
	c0.584,0.247,0.812,0.652,0.824,1.168c0.025,1.137,0.709,1.688,1.715,1.907c0.976,0.212,1.723,0.745,2.224,1.571
	c1.184,1.924,2.929,3.236,4.977,3.927c2.495,0.84,4.028,2.457,5.025,4.769c0.652,1.504,0.826,2.934-0.354,4.307
	c-0.67,0.779-1.039,1.729-1.269,2.736c-0.422,1.834-0.093,3.621,0.107,5.438c0.137,1.201-0.261,3.545,0.079,4.633
	c0,0,78.268,25.623,111.233-63.872C196.441,117.199,194.238,118.444,193.297,118.594z M54.085,162.668h-0.015v0.967
	c0,1.895,0.006,1.848-1.874,1.695c-0.998-0.078-1.202-0.453-0.772-1.307c0.547-1.088,0.905-2.241,1.23-3.409
	c0.105-0.372,0.148-0.858,0.746-0.736c0.53,0.109,0.715,0.451,0.691,0.971C54.067,161.456,54.085,162.062,54.085,162.668z
	 M56.286,161.839c-0.647,1.007-1.057,2.126-1.551,3.224c0.049-1.23-0.059-2.397-0.049-3.571c0.002-0.354-0.088-0.814,0.363-0.93
	c0.482-0.124,1.002,0.06,1.379,0.32C56.836,161.165,56.467,161.556,56.286,161.839z M62.751,165.693
	c-0.636,0.861-1.111,1.9-2.341,2.129c-0.392,0.072-0.711,0.066-1.011-0.203c-0.376-0.336-0.134-0.66,0.034-0.973
	c0.459-0.85,0.925-1.699,1.402-2.535c0.178-0.316,0.371-0.641,0.853-0.609c0.528,0.227,1.116,0.447,1.431,1.002
	C63.385,164.979,63.004,165.354,62.751,165.693z M92.297,115.242c-0.111,0.256-0.261,0.509-0.45,0.715
	c-0.326,0.356-0.291,1.238-0.957,1.033c-0.587-0.184-0.193-0.934-0.34-1.318c0.048-0.534-0.127-1.049,0.275-1.353
	c0.548-0.418,1.348-0.77,1.869-0.411C93.202,114.25,92.48,114.791,92.297,115.242z M126.064,107.735
	c-1.377,1.07-1.504,2.564-1.424,4.065c0.064,1.292-0.328,2.391-0.885,3.482c-0.395,0.773-0.929,0.924-1.523,0.275
	c-0.435-0.477-0.953-0.748-1.536-0.936c-1.62-0.528-2.85-1.673-4.188-2.653c-2.22-1.626-4.668-2.666-7.491-2.316
	c-1.198,0.151-2.373,0.535-3.554,0.812c-0.533,0.055-0.711-0.11-0.707-0.69c0.014-1.387,2.062-3.192,3.354-3.716
	c2.448-0.993,4.695-2.367,6.309-4.599c1.277-1.77,3.042-3.132,4.27-4.962c0.434-0.643,0.733-0.298,0.811,0.29
	c0.42,3.183,2.354,5.561,4.225,7.969c0.551,0.706,1.146,1.33,2.086,1.597C126.656,106.591,126.662,107.275,126.064,107.735z
	 M154.971,157.37c-0.107-0.829,0.244-1.521,1.184-1.696c0.703-0.127,1.609,0.78,1.561,1.414c-0.043,0.545-1.58,1.794-2.16,1.756
	C155.047,158.809,154.953,158.585,154.971,157.37z M160.914,165.971c-0.188,0.594-0.582,0.957-1.18,0.512
	c-0.924-0.695-1.795-1.467-2.693-2.205c0.057-0.123,0.111-0.246,0.162-0.365c1.146,0.17,2.314,0.252,3.424,0.539
	C161.531,164.688,161.084,165.42,160.914,165.971z M159.686,155.305c-0.639,0.429-1.041,0.194-1.361-0.415
	c-0.357-0.675-0.018-0.786,0.566-1.084c0.805-0.406,1.83-0.69,2.074-1.837c0.059-0.25,0.43-0.469,0.705-0.63
	c2.715-1.608,5.432-3.211,8.16-4.795c1.068-0.619,1.342-0.444,1.34,0.778c0.104,1.07-0.676,1.555-1.43,1.896
	c-1.672,0.756-3.156,1.818-4.637,2.856C163.367,153.292,161.432,154.139,159.686,155.305z M166.891,157.586
	c0.193-0.814,0.055-1.523-0.32-2.221c-0.307-0.557,0.039-0.938,0.484-1.205c0.586-0.354,1.207-0.657,1.811-0.979
	c0.076-0.039,0.215-0.094,0.219-0.092c0.666,1.307,2.033-0.169,2.818,0.742C170.559,155.449,168.291,155.875,166.891,157.586z"/>
<g>
	<path fill="#FFFFFF" d="M108.451,188.564c-51.034,0-92.554-41.52-92.554-92.555c0-51.032,41.52-92.552,92.554-92.552
		C159.484,3.458,201,44.978,201,96.01C201,147.045,159.484,188.564,108.451,188.564z M108.451,8.595
		c-48.201,0-87.417,39.215-87.417,87.415c0,48.203,39.216,87.416,87.417,87.416c48.2,0,87.415-39.213,87.415-87.416
		C195.865,47.81,156.65,8.595,108.451,8.595z"/>
</g>
</svg>
